<?xml version="1.0" encoding="UTF-8"?>
<svg xmlns="http://www.w3.org/2000/svg" xmlns:xlink="http://www.w3.org/1999/xlink" width="18px" height="18px" viewBox="0 0 18 18" version="1.1">
<g id="surface1">
<path style=" stroke:none;fill-rule:nonzero;fill:rgb(0%,0%,0%);fill-opacity:1;" d="M 11.453125 9 C 13.253906 9 14.726562 7.527344 14.726562 5.726562 C 14.726562 3.925781 13.253906 2.453125 11.453125 2.453125 C 9.65625 2.453125 8.183594 3.925781 8.183594 5.726562 C 8.183594 7.527344 9.65625 9 11.453125 9 Z M 4.089844 7.363281 L 4.089844 4.910156 L 2.453125 4.910156 L 2.453125 7.363281 L 0 7.363281 L 0 9 L 2.453125 9 L 2.453125 11.453125 L 4.089844 11.453125 L 4.089844 9 L 6.546875 9 L 6.546875 7.363281 Z M 11.453125 10.636719 C 9.246094 10.636719 4.910156 11.699219 4.910156 13.910156 L 4.910156 15.546875 L 18 15.546875 L 18 13.910156 C 18 11.699219 13.664062 10.636719 11.453125 10.636719 Z M 11.453125 10.636719 "/>
</g>
</svg>
