<?xml version="1.0" encoding="UTF-8"?>
<svg xmlns="http://www.w3.org/2000/svg" xmlns:xlink="http://www.w3.org/1999/xlink" width="18px" height="18px" viewBox="0 0 18 18" version="1.1">
<g id="surface1">
<path style=" stroke:none;fill-rule:evenodd;fill:rgb(11.372549%,11.372549%,11.372549%);fill-opacity:1;" d="M 1 10 L 7 10 C 7.550781 10 8 9.550781 8 9 L 8 1 C 8 0.449219 7.550781 0 7 0 L 1 0 C 0.449219 0 0 0.449219 0 1 L 0 9 C 0 9.550781 0.449219 10 1 10 Z M 1 18 L 7 18 C 7.550781 18 8 17.550781 8 17 L 8 13 C 8 12.449219 7.550781 12 7 12 L 1 12 C 0.449219 12 0 12.449219 0 13 L 0 17 C 0 17.550781 0.449219 18 1 18 Z M 11 18 L 17 18 C 17.550781 18 18 17.550781 18 17 L 18 9 C 18 8.449219 17.550781 8 17 8 L 11 8 C 10.449219 8 10 8.449219 10 9 L 10 17 C 10 17.550781 10.449219 18 11 18 Z M 10 1 L 10 5 C 10 5.550781 10.449219 6 11 6 L 17 6 C 17.550781 6 18 5.550781 18 5 L 18 1 C 18 0.449219 17.550781 0 17 0 L 11 0 C 10.449219 0 10 0.449219 10 1 Z M 10 1 "/>
</g>
</svg>
