<?xml version="1.0" encoding="UTF-8"?>
<svg xmlns="http://www.w3.org/2000/svg" xmlns:xlink="http://www.w3.org/1999/xlink" width="18px" height="18px" viewBox="0 0 18 18" version="1.1">
<g id="surface1">
<path style=" stroke:none;fill-rule:nonzero;fill:rgb(0%,0%,0%);fill-opacity:1;" d="M 12.050781 10.199219 L 17.8125 15.140625 C 17.9375 14.859375 18 14.554688 18 14.25 L 18 6.410156 Z M 12.050781 10.199219 "/>
<path style=" stroke:none;fill-rule:nonzero;fill:rgb(0%,0%,0%);fill-opacity:1;" d="M 9.402344 10.105469 L 17.917969 4.683594 C 17.664062 3.695312 16.773438 3.003906 15.75 3 L 2.25 3 C 1.226562 3.003906 0.335938 3.695312 0.0820312 4.683594 L 8.597656 10.105469 C 8.84375 10.261719 9.15625 10.261719 9.402344 10.105469 Z M 9.402344 10.105469 "/>
<path style=" stroke:none;fill-rule:nonzero;fill:rgb(0%,0%,0%);fill-opacity:1;" d="M 0 6.410156 L 0 14.25 C 0 14.554688 0.0625 14.859375 0.1875 15.140625 L 5.949219 10.199219 Z M 0 6.410156 "/>
<path style=" stroke:none;fill-rule:nonzero;fill:rgb(0%,0%,0%);fill-opacity:1;" d="M 10.734375 11.035156 L 10.210938 11.371094 C 9.472656 11.835938 8.53125 11.835938 7.792969 11.371094 L 7.269531 11.035156 C 7.257812 11.046875 7.253906 11.058594 7.242188 11.070312 L 1.214844 16.234375 C 1.53125 16.40625 1.886719 16.496094 2.25 16.5 L 15.75 16.5 C 16.113281 16.496094 16.46875 16.40625 16.789062 16.234375 L 10.761719 11.070312 C 10.75 11.058594 10.746094 11.046875 10.734375 11.035156 Z M 10.734375 11.035156 "/>
</g>
</svg>
