<?xml version="1.0" encoding="UTF-8"?>
<svg xmlns="http://www.w3.org/2000/svg" xmlns:xlink="http://www.w3.org/1999/xlink" width="18px" height="18px" viewBox="0 0 18 18" version="1.1">
<g id="surface1">
<path style="fill:none;stroke-width:2;stroke-linecap:round;stroke-linejoin:round;stroke:rgb(0%,0%,0%);stroke-opacity:1;stroke-miterlimit:4;" d="M 14 8 L 14 6 C 14 4.895833 13.104167 4 12 4 L 5 4 C 3.895833 4 3 4.895833 3 6 L 3 18 C 3 19.104167 3.895833 20 5 20 L 12 20 C 13.104167 20 14 19.104167 14 18 L 14 16 " transform="matrix(0.75,0,0,0.75,0,0)"/>
<path style="fill:none;stroke-width:2;stroke-linecap:round;stroke-linejoin:round;stroke:rgb(0%,0%,0%);stroke-opacity:1;stroke-miterlimit:4;" d="M 7 12 L 21 12 L 18 9 M 18 15 L 21 12 " transform="matrix(0.75,0,0,0.75,0,0)"/>
</g>
</svg>
