<?xml version="1.0" encoding="UTF-8"?>
<svg xmlns="http://www.w3.org/2000/svg" xmlns:xlink="http://www.w3.org/1999/xlink" width="18px" height="18px" viewBox="0 0 18 15" version="1.1">
<g id="surface1">
<path style=" stroke:none;fill-rule:evenodd;fill:rgb(11.372549%,11.372549%,11.372549%);fill-opacity:1;" d="M 2.570312 8.484375 L 2.570312 10.824219 C 2.570312 11.433594 2.914062 12 3.460938 12.292969 L 7.75 14.566406 C 8.261719 14.839844 8.878906 14.839844 9.394531 14.566406 L 13.679688 12.292969 C 14.230469 12 14.570312 11.433594 14.570312 10.824219 L 14.570312 8.484375 L 9.394531 11.234375 C 8.878906 11.507812 8.261719 11.507812 7.75 11.234375 Z M 7.75 0.433594 L 0.523438 4.265625 C -0.0703125 4.582031 -0.0703125 5.417969 0.523438 5.734375 L 7.75 9.566406 C 8.261719 9.839844 8.878906 9.839844 9.394531 9.566406 L 16.285156 5.910156 L 16.285156 10.832031 C 16.285156 11.292969 16.671875 11.667969 17.144531 11.667969 C 17.613281 11.667969 18 11.292969 18 10.832031 L 18 5.492188 C 18 5.183594 17.828125 4.910156 17.554688 4.757812 L 9.394531 0.433594 C 8.878906 0.167969 8.261719 0.167969 7.75 0.433594 Z M 7.75 0.433594 "/>
</g>
</svg>
