<?xml version="1.0" encoding="UTF-8"?>
<svg xmlns="http://www.w3.org/2000/svg" xmlns:xlink="http://www.w3.org/1999/xlink" width="18px" height="18px" viewBox="0 0 18 18" version="1.1">
<g id="surface1">
<path style=" stroke:none;fill-rule:nonzero;fill:rgb(0%,0%,0%);fill-opacity:1;" d="M 11.25 9.75 L 11.25 14.25 C 11.25 15.078125 10.578125 15.75 9.75 15.75 L 8.25 15.75 C 7.421875 15.75 6.75 15.078125 6.75 14.25 L 6.75 9.75 C 6.75 8.921875 7.421875 8.25 8.25 8.25 L 9.75 8.25 C 10.578125 8.25 11.25 8.921875 11.25 9.75 Z M 3.75 4.5 L 2.25 4.5 C 1.421875 4.5 0.75 5.171875 0.75 6 L 0.75 14.25 C 0.75 15.078125 1.421875 15.75 2.25 15.75 L 3.75 15.75 C 4.578125 15.75 5.25 15.078125 5.25 14.25 L 5.25 6 C 5.25 5.171875 4.578125 4.5 3.75 4.5 Z M 15.75 2.25 L 14.25 2.25 C 13.421875 2.25 12.75 2.921875 12.75 3.75 L 12.75 14.25 C 12.75 15.078125 13.421875 15.75 14.25 15.75 L 15.75 15.75 C 16.578125 15.75 17.25 15.078125 17.25 14.25 L 17.25 3.75 C 17.25 2.921875 16.578125 2.25 15.75 2.25 Z M 15.75 2.25 "/>
</g>
</svg>
