<?xml version="1.0" encoding="UTF-8"?>
<!DOCTYPE svg PUBLIC "-//W3C//DTD SVG 1.1//EN" "http://www.w3.org/Graphics/SVG/1.1/DTD/svg11.dtd">
<svg xmlns="http://www.w3.org/2000/svg" version="1.1" width="114px" height="116px" style="shape-rendering: geometricprecision; text-rendering: geometricprecision; image-rendering: optimizequality; fill-rule: evenodd; clip-rule: evenodd" xmlns:xlink="http://www.w3.org/1999/xlink">
<g><path style="opacity: .929" fill="#b8ae75" d="M 57.5,-0.5 C 58.1667,-0.5 58.8333,-0.5 59.5,-0.5C 59.7471,2.93869 59.4137,6.27203 58.5,9.5C 57.5206,6.37518 57.1872,3.04185 57.5,-0.5 Z"></path></g>
<g><path style="opacity: .216" fill="#fdfad3" d="M 59.5,-0.5 C 59.8333,-0.5 60.1667,-0.5 60.5,-0.5C 60.6653,3.18174 60.4986,6.84841 60,10.5C 59.6174,11.056 59.1174,11.3893 58.5,11.5C 58.5,10.8333 58.5,10.1667 58.5,9.5C 59.4137,6.27203 59.7471,2.93869 59.5,-0.5 Z"></path></g>
<g><path style="opacity: .38" fill="#f4f0d3" d="M 68.5,14.5 C 69.3764,14.6309 70.0431,14.2975 70.5,13.5C 71.9765,10.5851 72.8098,7.58509 73,4.5C 71.955,5.37344 71.1217,6.37344 70.5,7.5C 70.1667,7.5 69.8333,7.5 69.5,7.5C 69.9666,4.70256 71.6333,3.36922 74.5,3.5C 74.7372,7.41023 73.9039,11.0769 72,14.5C 70.7083,15.7911 69.5417,15.7911 68.5,14.5 Z"></path></g>
<g><path style="opacity: .537" fill="#f2edd2" d="M 56.5,-0.5 C 56.8333,-0.5 57.1667,-0.5 57.5,-0.5C 57.1872,3.04185 57.5206,6.37518 58.5,9.5C 58.5,10.1667 58.5,10.8333 58.5,11.5C 57.5041,11.5858 56.6708,11.2524 56,10.5C 55.7208,6.82968 55.8875,3.16301 56.5,-0.5 Z"></path></g>
<g><path style="opacity: .878" fill="#b2a97c" d="M 35.5,12.5 C 33.8342,11.3148 32.5008,9.31478 31.5,6.5C 31.8459,4.29511 32.5126,4.12845 33.5,6C 34.6094,8.04661 35.2761,10.2133 35.5,12.5 Z"></path></g>
<g><path style="opacity: .231" fill="#f7f3d5" d="M 36.5,13.5 C 36.5,12.8333 36.1667,12.5 35.5,12.5C 35.2761,10.2133 34.6094,8.04661 33.5,6C 32.5126,4.12845 31.8459,4.29511 31.5,6.5C 30.596,5.79105 30.2627,4.79105 30.5,3.5C 32.1439,3.28649 33.6439,3.61983 35,4.5C 35.8344,7.17236 36.6677,9.83903 37.5,12.5C 37.3764,13.1067 37.0431,13.44 36.5,13.5 Z"></path></g>
<g><path style="opacity: .306" fill="#f6f2d6" d="M 42.5,-0.5 C 43.1667,-0.5 43.8333,-0.5 44.5,-0.5C 44.5133,3.40692 45.3466,7.07359 47,10.5C 47.0621,6.85168 46.8954,3.18501 46.5,-0.5C 46.8333,-0.5 47.1667,-0.5 47.5,-0.5C 47.9728,2.69655 48.6394,5.86321 49.5,9C 47.5237,12.3573 45.6903,12.1906 44,8.5C 43.7411,5.41328 43.2411,2.41328 42.5,-0.5 Z"></path></g>
<g><path style="opacity: .875" fill="#b6ad7f" d="M 44.5,-0.5 C 45.1667,-0.5 45.8333,-0.5 46.5,-0.5C 46.8954,3.18501 47.0621,6.85168 47,10.5C 45.3466,7.07359 44.5133,3.40692 44.5,-0.5 Z"></path></g>
<g><path style="opacity: .855" fill="#f9f5ce" d="M 69.5,7.5 C 69.8333,7.5 70.1667,7.5 70.5,7.5C 69.8333,9.83333 69.1667,12.1667 68.5,14.5C 67.8529,13.7261 67.5195,12.7261 67.5,11.5C 67.3402,9.64545 68.0069,8.31212 69.5,7.5 Z"></path></g>
<g><path style="opacity: 1" fill="#b6b180" d="M 68.5,14.5 C 69.1667,12.1667 69.8333,9.83333 70.5,7.5C 71.1217,6.37344 71.955,5.37344 73,4.5C 72.8098,7.58509 71.9765,10.5851 70.5,13.5C 70.0431,14.2975 69.3764,14.6309 68.5,14.5 Z"></path></g>
<g><path style="opacity: .541" fill="#e4dcc2" d="M 31.5,6.5 C 32.5008,9.31478 33.8342,11.3148 35.5,12.5C 36.1667,12.5 36.5,12.8333 36.5,13.5C 36.0517,15.4646 35.0517,15.7979 33.5,14.5C 32.2147,11.9795 31.5481,9.31282 31.5,6.5 Z"></path></g>
<g><path style="opacity: .016" fill="#ebe9ea" d="M 49.5,16.5 C 47.5487,15.3586 45.5487,15.3586 43.5,16.5C 44.1342,15.0532 45.3009,14.3866 47,14.5C 48.3756,14.6842 49.2089,15.3509 49.5,16.5 Z"></path></g>
<g><path style="opacity: .71" fill="#f1eccf" d="M 82.5,15.5 C 83.2916,14.0331 83.2916,12.6998 82.5,11.5C 80.9178,13.0147 79.5845,14.6814 78.5,16.5C 78.5,15.5 78.5,14.5 78.5,13.5C 80.3981,10.0012 82.7314,9.33456 85.5,11.5C 84.9649,13.261 83.9649,14.5943 82.5,15.5 Z"></path></g>
<g><path style="opacity: .459" fill="#bbb7b8" d="M 55.5,15.5 C 54.5,16.1667 53.5,16.8333 52.5,17.5C 51.8333,17.5 51.1667,17.5 50.5,17.5C 50.5,17.1667 50.5,16.8333 50.5,16.5C 51.7978,16.7196 53.1312,16.0529 54.5,14.5C 55.1067,14.6236 55.44,14.9569 55.5,15.5 Z"></path></g>
<g><path style="opacity: .635" fill="#a9a8a5" d="M 56.5,15.5 C 57.9794,14.852 59.4794,14.5186 61,14.5C 61.7172,15.0442 62.2172,15.7109 62.5,16.5C 61.5,16.5 60.5,16.5 59.5,16.5C 58.609,15.8902 57.609,15.5569 56.5,15.5 Z"></path></g>
<g><path style="opacity: .882" fill="#d3cbab" d="M 20.5,9.5 C 24.7597,12.081 27.4264,15.7477 28.5,20.5C 27.0222,20.762 25.6888,20.4287 24.5,19.5C 22.0487,16.5997 20.7153,13.2663 20.5,9.5 Z"></path></g>
<g><path style="opacity: .918" fill="#544539" d="M 49.5,16.5 C 49.8333,16.5 50.1667,16.5 50.5,16.5C 50.5,16.8333 50.5,17.1667 50.5,17.5C 49.8333,17.5 49.5,17.8333 49.5,18.5C 47.8333,18.5 46.1667,18.5 44.5,18.5C 43.3684,17.6457 42.035,17.6457 40.5,18.5C 40.9731,17.0937 41.9731,16.427 43.5,16.5C 45.5487,15.3586 47.5487,15.3586 49.5,16.5 Z"></path></g>
<g><path style="opacity: 1" fill="#1f1a16" d="M 55.5,15.5 C 55.8333,15.5 56.1667,15.5 56.5,15.5C 57.609,15.5569 58.609,15.8902 59.5,16.5C 59.5,16.8333 59.5,17.1667 59.5,17.5C 57.5853,17.2155 55.9187,17.5489 54.5,18.5C 54.1667,18.5 53.8333,18.5 53.5,18.5C 52.8333,18.5 52.5,18.1667 52.5,17.5C 53.5,16.8333 54.5,16.1667 55.5,15.5 Z"></path></g>
<g><path style="opacity: .949" fill="#41362d" d="M 59.5,17.5 C 59.5,17.1667 59.5,16.8333 59.5,16.5C 60.5,16.5 61.5,16.5 62.5,16.5C 64.099,16.2322 65.4324,16.5655 66.5,17.5C 66.5,18.1667 66.5,18.8333 66.5,19.5C 65.8333,19.5 65.1667,19.5 64.5,19.5C 62.9724,18.6908 61.3057,18.0241 59.5,17.5 Z"></path></g>
<g><path style="opacity: .953" fill="#b7a980" d="M 82.5,15.5 C 80.8546,16.4787 79.5213,17.812 78.5,19.5C 77.4376,18.5754 77.4376,17.5754 78.5,16.5C 79.5845,14.6814 80.9178,13.0147 82.5,11.5C 83.2916,12.6998 83.2916,14.0331 82.5,15.5 Z"></path></g>
<g><path style="opacity: .063" fill="#f6f2d6" d="M 78.5,13.5 C 78.5,14.5 78.5,15.5 78.5,16.5C 77.4376,17.5754 77.4376,18.5754 78.5,19.5C 79.5213,17.812 80.8546,16.4787 82.5,15.5C 82.3103,19.3574 80.3103,21.024 76.5,20.5C 76.1706,17.7718 76.8372,15.4385 78.5,13.5 Z"></path></g>
<g><path style="opacity: 1" fill="#dfb36f" d="M 44.5,18.5 C 46.1667,18.5 47.8333,18.5 49.5,18.5C 49.5,18.8333 49.5,19.1667 49.5,19.5C 46.1124,18.9694 44.1124,20.3027 43.5,23.5C 42.596,22.791 42.2627,21.791 42.5,20.5C 42.8333,19.5 43.5,18.8333 44.5,18.5 Z"></path></g>
<g><path style="opacity: 1" fill="#d3bca1" d="M 54.5,18.5 C 55.9187,17.5489 57.5853,17.2155 59.5,17.5C 61.3057,18.0241 62.9724,18.6908 64.5,19.5C 61.1401,19.3841 57.8067,19.0508 54.5,18.5 Z"></path></g>
<g><path style="opacity: .018" fill="#dad8d9" d="M 69.5,18.5 C 71.9726,18.0882 73.3059,19.0882 73.5,21.5C 72.1283,20.4884 70.795,19.4884 69.5,18.5 Z"></path></g>
<g><path style="opacity: .996" fill="#4c3f30" d="M 44.5,18.5 C 43.5,18.8333 42.8333,19.5 42.5,20.5C 41.391,20.5569 40.391,20.8902 39.5,21.5C 37.9382,21.7329 36.6049,22.3995 35.5,23.5C 35.0623,22.4937 34.3957,22.4937 33.5,23.5C 33.0618,23.5654 32.7284,23.3988 32.5,23C 33.7014,22.0975 34.5348,20.9308 35,19.5C 36.016,20.6341 36.6827,20.3008 37,18.5C 37.9862,19.1712 39.1529,19.1712 40.5,18.5C 42.035,17.6457 43.3684,17.6457 44.5,18.5 Z"></path></g>
<g><path style="opacity: 1" fill="#eecd9b" d="M 53.5,18.5 C 53.8333,18.5 54.1667,18.5 54.5,18.5C 57.8067,19.0508 61.1401,19.3841 64.5,19.5C 65.1667,19.5 65.8333,19.5 66.5,19.5C 66.5569,20.609 66.8902,21.609 67.5,22.5C 66.8333,22.5 66.1667,22.5 65.5,22.5C 64.3064,21.2227 62.6397,20.5561 60.5,20.5C 58.6307,20.5068 56.964,20.8401 55.5,21.5C 54.8333,21.5 54.1667,21.5 53.5,21.5C 53.5,20.5 53.5,19.5 53.5,18.5 Z"></path></g>
<g><path style="opacity: .086" fill="#f3eed6" d="M 91.5,23.5 C 91.719,22.325 91.3857,21.325 90.5,20.5C 87.8684,22.2913 85.5351,24.2913 83.5,26.5C 83.0618,26.5654 82.7284,26.3988 82.5,26C 85.0118,22.9946 88.0118,20.4946 91.5,18.5C 93.8954,20.0839 93.8954,21.7505 91.5,23.5 Z"></path></g>
<g><path style="opacity: 1" fill="#562a11" d="M 42.5,20.5 C 42.2627,21.791 42.596,22.791 43.5,23.5C 43.5,24.1667 43.5,24.8333 43.5,25.5C 42.391,25.4431 41.391,25.1098 40.5,24.5C 39.8902,23.609 39.5569,22.609 39.5,21.5C 40.391,20.8902 41.391,20.5569 42.5,20.5 Z"></path></g>
<g><path style="opacity: 1" fill="#fccc82" d="M 55.5,21.5 C 56.964,20.8401 58.6307,20.5068 60.5,20.5C 62.6397,20.5561 64.3064,21.2227 65.5,22.5C 64.1667,22.5 62.8333,22.5 61.5,22.5C 59.7354,21.5386 57.7354,21.2053 55.5,21.5 Z"></path></g>
<g><path style="opacity: .682" fill="#d3cba8" d="M 11.5,19.5 C 14.2234,20.3519 16.89,21.5186 19.5,23C 21.0368,24.1096 21.7035,25.6096 21.5,27.5C 19.8008,27.6602 18.1341,27.4935 16.5,27C 15.6667,24.8333 14.1667,23.3333 12,22.5C 11.5172,21.552 11.3505,20.552 11.5,19.5 Z"></path></g>
<g><path style="opacity: 1" fill="#dbbd9f" d="M 66.5,19.5 C 69.1667,21.1667 71.8333,22.8333 74.5,24.5C 74.5,24.8333 74.5,25.1667 74.5,25.5C 74.1667,25.5 73.8333,25.5 73.5,25.5C 71.7837,23.9752 69.7837,22.9752 67.5,22.5C 66.8902,21.609 66.5569,20.609 66.5,19.5 Z"></path></g>
<g><path style="opacity: 1" fill="#463b35" d="M 69.5,18.5 C 70.795,19.4884 72.1283,20.4884 73.5,21.5C 75.0269,21.427 76.0269,22.0937 76.5,23.5C 75.5084,23.3284 74.8417,23.6618 74.5,24.5C 71.8333,22.8333 69.1667,21.1667 66.5,19.5C 66.5,18.8333 66.5,18.1667 66.5,17.5C 67.8946,16.1854 68.8946,16.5188 69.5,18.5 Z"></path></g>
<g><path style="opacity: 1" fill="#b88f5b" d="M 39.5,21.5 C 39.5569,22.609 39.8902,23.609 40.5,24.5C 40.0954,25.5498 39.4288,25.5498 38.5,24.5C 37.7025,24.9569 37.3691,25.6236 37.5,26.5C 36.0937,26.0269 35.427,25.0269 35.5,23.5C 36.6049,22.3995 37.9382,21.7329 39.5,21.5 Z"></path></g>
<g><path style="opacity: 1" fill="#cb9751" d="M 50.5,19.5 C 50.8333,19.5 51.1667,19.5 51.5,19.5C 51.5,24.1667 51.5,28.8333 51.5,33.5C 50.8826,33.6107 50.3826,33.944 50,34.5C 49.5017,31.1832 49.335,27.8499 49.5,24.5C 50.4511,23.0813 50.7845,21.4147 50.5,19.5 Z"></path></g>
<g><path style="opacity: 1" fill="#dd9f2c" d="M 61.5,23.5 C 61.5,23.1667 61.5,22.8333 61.5,22.5C 62.8333,22.5 64.1667,22.5 65.5,22.5C 68.5244,24.0134 71.1911,26.0134 73.5,28.5C 71.5,27.8333 69.5,27.1667 67.5,26.5C 65.7496,25.1302 63.7496,24.1302 61.5,23.5 Z"></path></g>
<g><path style="opacity: .933" fill="#c2b688" d="M 91.5,23.5 C 89.1838,24.8056 86.8505,26.1389 84.5,27.5C 83.8333,27.5 83.5,27.1667 83.5,26.5C 85.5351,24.2913 87.8684,22.2913 90.5,20.5C 91.3857,21.325 91.719,22.325 91.5,23.5 Z"></path></g>
<g><path style="opacity: .918" fill="#331608" d="M 35.5,23.5 C 35.427,25.0269 36.0937,26.0269 37.5,26.5C 37.5,26.8333 37.5,27.1667 37.5,27.5C 36.1667,27.5 34.8333,27.5 33.5,27.5C 33.1583,26.6618 32.4916,26.3284 31.5,26.5C 32.1667,25.8333 32.8333,25.1667 33.5,24.5C 33.5,24.1667 33.5,23.8333 33.5,23.5C 34.3957,22.4937 35.0623,22.4937 35.5,23.5 Z"></path></g>
<g><path style="opacity: 1" fill="#d1912e" d="M 49.5,19.5 C 49.8333,19.5 50.1667,19.5 50.5,19.5C 50.7845,21.4147 50.4511,23.0813 49.5,24.5C 49.1667,24.5 48.8333,24.5 48.5,24.5C 47.8333,24.5 47.1667,24.5 46.5,24.5C 45.609,25.1098 44.609,25.4431 43.5,25.5C 43.5,24.8333 43.5,24.1667 43.5,23.5C 44.1124,20.3027 46.1124,18.9694 49.5,19.5 Z"></path></g>
<g><path style="opacity: 1" fill="#4e2100" d="M 51.5,19.5 C 52.1667,23.5 52.8333,27.5 53.5,31.5C 53.5,31.8333 53.5,32.1667 53.5,32.5C 52.8333,33.1667 52.1667,33.8333 51.5,34.5C 51.5,34.1667 51.5,33.8333 51.5,33.5C 51.5,28.8333 51.5,24.1667 51.5,19.5 Z"></path></g>
<g><path style="opacity: 1" fill="#f09502" d="M 61.5,24.5 C 61.5,26.1667 61.5,27.8333 61.5,29.5C 61.5,30.1667 61.5,30.8333 61.5,31.5C 57.748,30.6943 56.748,28.5277 58.5,25C 59.448,24.5172 60.448,24.3505 61.5,24.5 Z"></path></g>
<g><path style="opacity: .976" fill="#5b4d42" d="M 76.5,23.5 C 78.914,24.9108 80.5806,26.9108 81.5,29.5C 80.0755,27.9689 79.4088,28.3023 79.5,30.5C 78.194,28.5273 76.5273,26.8606 74.5,25.5C 74.5,25.1667 74.5,24.8333 74.5,24.5C 74.8417,23.6618 75.5084,23.3284 76.5,23.5 Z"></path></g>
<g><path style="opacity: 1" fill="#f5c679" d="M 65.5,22.5 C 66.1667,22.5 66.8333,22.5 67.5,22.5C 69.7837,22.9752 71.7837,23.9752 73.5,25.5C 74.925,26.922 75.925,28.5887 76.5,30.5C 75.5,29.8333 74.5,29.1667 73.5,28.5C 71.1911,26.0134 68.5244,24.0134 65.5,22.5 Z"></path></g>
<g><path style="opacity: .996" fill="#4c3b2d" d="M 33.5,24.5 C 32.8333,25.1667 32.1667,25.8333 31.5,26.5C 30.5,27.1667 29.5,27.8333 28.5,28.5C 28.1583,27.6618 27.4916,27.3284 26.5,27.5C 28.1757,25.1663 30.509,24.1663 33.5,24.5 Z"></path></g>
<g><path style="opacity: 1" fill="#dc9c35" d="M 55.5,21.5 C 57.7354,21.2053 59.7354,21.5386 61.5,22.5C 59.5328,22.2606 57.6995,22.5939 56,23.5C 55.5014,27.1516 55.3347,30.8183 55.5,34.5C 57.099,34.2322 58.4324,34.5655 59.5,35.5C 57.8333,35.5 56.1667,35.5 54.5,35.5C 54.2256,30.737 54.559,26.0704 55.5,21.5 Z"></path></g>
<g><path style="opacity: 1" fill="#e49a06" d="M 61.5,23.5 C 63.7496,24.1302 65.7496,25.1302 67.5,26.5C 65.5168,26.1568 64.1834,26.8235 63.5,28.5C 63.1583,29.3382 62.4916,29.6716 61.5,29.5C 61.5,27.8333 61.5,26.1667 61.5,24.5C 61.5,24.1667 61.5,23.8333 61.5,23.5 Z"></path></g>
<g><path style="opacity: 1" fill="#e99a0e" d="M 67.5,26.5 C 69.5,27.1667 71.5,27.8333 73.5,28.5C 74.5,29.1667 75.5,29.8333 76.5,30.5C 76.5,31.8333 76.5,33.1667 76.5,34.5C 76.1667,34.5 75.8333,34.5 75.5,34.5C 75.1667,33.8333 74.8333,33.1667 74.5,32.5C 72.9478,29.8881 70.6145,28.5548 67.5,28.5C 66.1667,28.5 64.8333,28.5 63.5,28.5C 64.1834,26.8235 65.5168,26.1568 67.5,26.5 Z"></path></g>
<g><path style="opacity: .086" fill="#fbf8d5" d="M 91.5,23.5 C 89.9139,26.861 87.5806,28.1944 84.5,27.5C 86.8505,26.1389 89.1838,24.8056 91.5,23.5 Z"></path></g>
<g><path style="opacity: 1" fill="#ce8937" d="M 40.5,24.5 C 41.391,25.1098 42.391,25.4431 43.5,25.5C 43.4729,27.1993 42.8062,28.5326 41.5,29.5C 40.8333,29.5 40.1667,29.5 39.5,29.5C 38.5,29.1667 37.8333,28.5 37.5,27.5C 37.5,27.1667 37.5,26.8333 37.5,26.5C 37.3691,25.6236 37.7025,24.9569 38.5,24.5C 39.4288,25.5498 40.0954,25.5498 40.5,24.5 Z"></path></g>
<g><path style="opacity: 1" fill="#d29749" d="M 46.5,24.5 C 46.634,26.2915 46.3007,27.9582 45.5,29.5C 44.1667,29.5 42.8333,29.5 41.5,29.5C 42.8062,28.5326 43.4729,27.1993 43.5,25.5C 44.609,25.4431 45.609,25.1098 46.5,24.5 Z"></path></g>
<g><path style="opacity: 1" fill="#3c1605" d="M 50.5,17.5 C 51.1667,17.5 51.8333,17.5 52.5,17.5C 52.5,18.1667 52.8333,18.5 53.5,18.5C 53.5,19.5 53.5,20.5 53.5,21.5C 53.5,24.8333 53.5,28.1667 53.5,31.5C 52.8333,27.5 52.1667,23.5 51.5,19.5C 51.1667,19.5 50.8333,19.5 50.5,19.5C 50.1667,19.5 49.8333,19.5 49.5,19.5C 49.5,19.1667 49.5,18.8333 49.5,18.5C 49.5,17.8333 49.8333,17.5 50.5,17.5 Z"></path></g>
<g><path style="opacity: 1" fill="#bb863b" d="M 53.5,21.5 C 54.1667,21.5 54.8333,21.5 55.5,21.5C 54.559,26.0704 54.2256,30.737 54.5,35.5C 56.1667,35.5 57.8333,35.5 59.5,35.5C 59.8333,35.5 60.1667,35.5 60.5,35.5C 60.5,35.8333 60.5,36.1667 60.5,36.5C 58.7085,36.366 57.0418,36.6993 55.5,37.5C 55.1583,36.6618 54.4916,36.3284 53.5,36.5C 53.5,35.1667 53.5,33.8333 53.5,32.5C 53.5,32.1667 53.5,31.8333 53.5,31.5C 53.5,28.1667 53.5,24.8333 53.5,21.5 Z"></path></g>
<g><path style="opacity: 1" fill="#5a2605" d="M 46.5,24.5 C 47.1667,24.5 47.8333,24.5 48.5,24.5C 48.9465,27.0101 48.2798,29.0101 46.5,30.5C 46.5,29.8333 46.1667,29.5 45.5,29.5C 46.3007,27.9582 46.634,26.2915 46.5,24.5 Z"></path></g>
<g><path style="opacity: 1" fill="#e3961a" d="M 61.5,22.5 C 61.5,22.8333 61.5,23.1667 61.5,23.5C 57.7597,22.7415 56.093,24.2415 56.5,28C 56.1142,31.1108 57.4475,32.9442 60.5,33.5C 60.8417,34.3382 61.5084,34.6716 62.5,34.5C 62.8333,34.5 63.1667,34.5 63.5,34.5C 63.5,35.1667 63.5,35.8333 63.5,36.5C 62.609,35.8902 61.609,35.5569 60.5,35.5C 60.1667,35.5 59.8333,35.5 59.5,35.5C 58.4324,34.5655 57.099,34.2322 55.5,34.5C 55.3347,30.8183 55.5014,27.1516 56,23.5C 57.6995,22.5939 59.5328,22.2606 61.5,22.5 Z"></path></g>
<g><path style="opacity: .322" fill="#c1bfb5" d="M 26.5,27.5 C 26.0679,28.7095 25.4013,29.7095 24.5,30.5C 24.0618,30.5654 23.7284,30.3988 23.5,30C 24.0779,28.583 25.0779,27.7496 26.5,27.5 Z"></path></g>
<g><path style="opacity: 1" fill="#4d1e05" d="M 39.5,30.5 C 39.5,30.1667 39.5,29.8333 39.5,29.5C 40.1667,29.5 40.8333,29.5 41.5,29.5C 42.8333,29.5 44.1667,29.5 45.5,29.5C 46.1667,29.5 46.5,29.8333 46.5,30.5C 45.0813,31.4511 43.4147,31.7845 41.5,31.5C 40.8333,31.1667 40.1667,30.8333 39.5,30.5 Z"></path></g>
<g><path style="opacity: 1" fill="#e9c68f" d="M 73.5,25.5 C 73.8333,25.5 74.1667,25.5 74.5,25.5C 76.5273,26.8606 78.194,28.5273 79.5,30.5C 81.0745,32.5475 82.0745,34.8808 82.5,37.5C 81.8333,37.1667 81.1667,36.8333 80.5,36.5C 80.1551,33.8021 78.8218,31.8021 76.5,30.5C 75.925,28.5887 74.925,26.922 73.5,25.5 Z"></path></g>
<g><path style="opacity: 1" fill="#cba97e" d="M 31.5,26.5 C 32.4916,26.3284 33.1583,26.6618 33.5,27.5C 32.4097,28.8571 31.0764,29.8571 29.5,30.5C 29.5,30.8333 29.5,31.1667 29.5,31.5C 28.8333,31.5 28.1667,31.5 27.5,31.5C 27.1667,31.5 26.8333,31.5 26.5,31.5C 26.427,29.9731 27.0937,28.9731 28.5,28.5C 29.5,27.8333 30.5,27.1667 31.5,26.5 Z"></path></g>
<g><path style="opacity: 1" fill="#bc8a4b" d="M 33.5,27.5 C 34.8333,27.5 36.1667,27.5 37.5,27.5C 37.8333,28.5 38.5,29.1667 39.5,29.5C 39.5,29.8333 39.5,30.1667 39.5,30.5C 38.8333,30.8333 38.1667,31.1667 37.5,31.5C 37.6309,30.6236 37.2975,29.9569 36.5,29.5C 35.6143,30.325 35.281,31.325 35.5,32.5C 33.2821,32.3862 31.2821,31.7196 29.5,30.5C 31.0764,29.8571 32.4097,28.8571 33.5,27.5 Z"></path></g>
<g><path style="opacity: 1" fill="#b37f49" d="M 48.5,24.5 C 48.8333,24.5 49.1667,24.5 49.5,24.5C 49.335,27.8499 49.5017,31.1832 50,34.5C 50.3826,33.944 50.8826,33.6107 51.5,33.5C 51.5,33.8333 51.5,34.1667 51.5,34.5C 51.7678,36.099 51.4345,37.4324 50.5,38.5C 48.87,36.9739 48.0367,34.9739 48,32.5C 47.5065,34.1341 47.3398,35.8008 47.5,37.5C 47.1667,37.5 46.8333,37.5 46.5,37.5C 46.5,35.8333 46.5,34.1667 46.5,32.5C 44.5853,32.7845 42.9187,32.4511 41.5,31.5C 43.4147,31.7845 45.0813,31.4511 46.5,30.5C 48.2798,29.0101 48.9465,27.0101 48.5,24.5 Z"></path></g>
<g><path style="opacity: 1" fill="#ed9506" d="M 63.5,28.5 C 64.8333,28.5 66.1667,28.5 67.5,28.5C 67.0269,29.9063 66.0269,30.573 64.5,30.5C 63.3263,31.5137 62.6596,32.847 62.5,34.5C 61.5084,34.6716 60.8417,34.3382 60.5,33.5C 61.3382,33.1583 61.6716,32.4916 61.5,31.5C 61.5,30.8333 61.5,30.1667 61.5,29.5C 62.4916,29.6716 63.1583,29.3382 63.5,28.5 Z"></path></g>
<g><path style="opacity: 1" fill="#f09404" d="M 67.5,28.5 C 70.6145,28.5548 72.9478,29.8881 74.5,32.5C 71.9407,32.1984 69.6074,32.5318 67.5,33.5C 67.1667,33.5 66.8333,33.5 66.5,33.5C 66.2178,32.2223 65.5511,31.2223 64.5,30.5C 66.0269,30.573 67.0269,29.9063 67.5,28.5 Z"></path></g>
<g><path style="opacity: .055" fill="#f8f6dc" d="M 16.5,36.5 C 16.6309,35.6236 16.2975,34.9569 15.5,34.5C 13.4595,33.7643 11.4595,32.9309 9.5,32C 8.25057,31.2599 7.25057,31.4265 6.5,32.5C 5.95691,32.44 5.62358,32.1067 5.5,31.5C 9.38659,30.4498 13.0533,31.1164 16.5,33.5C 17.7759,34.6136 17.7759,35.6136 16.5,36.5 Z"></path></g>
<g><path style="opacity: .831" fill="#cac094" d="M 16.5,36.5 C 12.4854,37.3755 9.15202,36.0422 6.5,32.5C 7.25057,31.4265 8.25057,31.2599 9.5,32C 11.4595,32.9309 13.4595,33.7643 15.5,34.5C 16.2975,34.9569 16.6309,35.6236 16.5,36.5 Z"></path></g>
<g><path style="opacity: .914" fill="#382f20" d="M 26.5,27.5 C 27.4916,27.3284 28.1583,27.6618 28.5,28.5C 27.0937,28.9731 26.427,29.9731 26.5,31.5C 25.596,32.209 25.2627,33.209 25.5,34.5C 24.8333,34.5 24.1667,34.5 23.5,34.5C 23.4326,33.0413 23.7659,31.7079 24.5,30.5C 25.4013,29.7095 26.0679,28.7095 26.5,27.5 Z"></path></g>
<g><path style="opacity: 1" fill="#ec980f" d="M 61.5,23.5 C 61.5,23.8333 61.5,24.1667 61.5,24.5C 60.448,24.3505 59.448,24.5172 58.5,25C 56.748,28.5277 57.748,30.6943 61.5,31.5C 61.6716,32.4916 61.3382,33.1583 60.5,33.5C 57.4475,32.9442 56.1142,31.1108 56.5,28C 56.093,24.2415 57.7597,22.7415 61.5,23.5 Z"></path></g>
<g><path style="opacity: 1" fill="#f4970a" d="M 64.5,30.5 C 65.5511,31.2223 66.2178,32.2223 66.5,33.5C 65.791,34.404 64.791,34.7373 63.5,34.5C 63.1667,34.5 62.8333,34.5 62.5,34.5C 62.6596,32.847 63.3263,31.5137 64.5,30.5 Z"></path></g>
<g><path style="opacity: 1" fill="#f09906" d="M 67.5,33.5 C 69.6074,32.5318 71.9407,32.1984 74.5,32.5C 74.8333,33.1667 75.1667,33.8333 75.5,34.5C 74.5354,35.7211 74.702,37.0544 76,38.5C 76.7697,39.5981 77.603,39.5981 78.5,38.5C 78.5,39.1667 78.5,39.8333 78.5,40.5C 77.8571,42.0764 76.8571,43.4097 75.5,44.5C 74.5318,42.3926 74.1984,40.0593 74.5,37.5C 73.5,37.5 72.5,37.5 71.5,37.5C 71.5,37.1667 71.5,36.8333 71.5,36.5C 70.7377,34.7376 69.4044,33.7376 67.5,33.5 Z"></path></g>
<g><path style="opacity: .969" fill="#35261b" d="M 81.5,29.5 C 81.5,29.8333 81.5,30.1667 81.5,30.5C 82.472,33.1316 83.8053,35.4649 85.5,37.5C 85.5,38.1667 85.5,38.8333 85.5,39.5C 84.6618,39.8417 84.3284,40.5084 84.5,41.5C 83.8333,40.1667 83.1667,38.8333 82.5,37.5C 82.0745,34.8808 81.0745,32.5475 79.5,30.5C 79.4088,28.3023 80.0755,27.9689 81.5,29.5 Z"></path></g>
<g><path style="opacity: .753" fill="#dad3b3" d="M 94.5,30.5 C 96.1667,30.5 97.8333,30.5 99.5,30.5C 99.719,31.675 99.3857,32.675 98.5,33.5C 96.0554,35.278 93.3888,36.6113 90.5,37.5C 88.2956,37.4731 87.4622,36.4731 88,34.5C 90.0129,32.7518 92.1795,31.4185 94.5,30.5 Z"></path></g>
<g><path style="opacity: 1" fill="#501f03" d="M 37.5,31.5 C 37.5,31.8333 37.5,32.1667 37.5,32.5C 35.1216,34.7567 32.4549,35.09 29.5,33.5C 29.5,32.8333 29.5,32.1667 29.5,31.5C 29.5,31.1667 29.5,30.8333 29.5,30.5C 31.2821,31.7196 33.2821,32.3862 35.5,32.5C 35.281,31.325 35.6143,30.325 36.5,29.5C 37.2975,29.9569 37.6309,30.6236 37.5,31.5 Z"></path></g>
<g><path style="opacity: 1" fill="#ce913d" d="M 39.5,30.5 C 40.1667,30.8333 40.8333,31.1667 41.5,31.5C 42.9187,32.4511 44.5853,32.7845 46.5,32.5C 46.5,34.1667 46.5,35.8333 46.5,37.5C 46.7947,39.7354 46.4614,41.7354 45.5,43.5C 41.5445,42.1708 40.5445,39.5042 42.5,35.5C 42.1667,35.1667 41.8333,34.8333 41.5,34.5C 40.8182,35.2427 40.1515,35.9094 39.5,36.5C 39.33,35.1779 39.6634,34.0113 40.5,33C 39.9056,32.5357 39.2389,32.369 38.5,32.5C 38.1667,32.5 37.8333,32.5 37.5,32.5C 37.5,32.1667 37.5,31.8333 37.5,31.5C 38.1667,31.1667 38.8333,30.8333 39.5,30.5 Z"></path></g>
<g><path style="opacity: 1" fill="#e4b266" d="M 27.5,31.5 C 28.1667,31.5 28.8333,31.5 29.5,31.5C 29.5,32.1667 29.5,32.8333 29.5,33.5C 29.4677,35.6188 30.4677,36.9522 32.5,37.5C 32.5,38.1667 32.1667,38.5 31.5,38.5C 28.3787,37.2642 27.0454,34.9308 27.5,31.5 Z"></path></g>
<g><path style="opacity: 1" fill="#ea9817" d="M 66.5,33.5 C 66.8333,33.5 67.1667,33.5 67.5,33.5C 69.4044,33.7376 70.7377,34.7376 71.5,36.5C 68.6183,36.9861 65.9517,36.9861 63.5,36.5C 63.5,35.8333 63.5,35.1667 63.5,34.5C 64.791,34.7373 65.791,34.404 66.5,33.5 Z"></path></g>
<g><path style="opacity: 1" fill="#de9932" d="M 76.5,30.5 C 78.8218,31.8021 80.1551,33.8021 80.5,36.5C 79.391,36.4431 78.391,36.1098 77.5,35.5C 77.5,34.8333 77.1667,34.5 76.5,34.5C 76.5,33.1667 76.5,31.8333 76.5,30.5 Z"></path></g>
<g><path style="opacity: 1" fill="#1d1209" d="M 23.5,34.5 C 24.1667,34.5 24.8333,34.5 25.5,34.5C 25.2178,35.7777 24.5511,36.7777 23.5,37.5C 22.0687,38.7804 21.4021,40.4471 21.5,42.5C 21.5,43.1667 21.1667,43.5 20.5,43.5C 19.9238,39.8875 20.9238,36.8875 23.5,34.5 Z"></path></g>
<g><path style="opacity: 1" fill="#d59048" d="M 37.5,32.5 C 37.8333,32.5 38.1667,32.5 38.5,32.5C 37.4728,34.184 36.4728,35.8506 35.5,37.5C 34.5,37.5 33.5,37.5 32.5,37.5C 30.4677,36.9522 29.4677,35.6188 29.5,33.5C 32.4549,35.09 35.1216,34.7567 37.5,32.5 Z"></path></g>
<g><path style="opacity: 1" fill="#dc9243" d="M 38.5,32.5 C 39.2389,32.369 39.9056,32.5357 40.5,33C 39.6634,34.0113 39.33,35.1779 39.5,36.5C 39.5,36.8333 39.5,37.1667 39.5,37.5C 38.1667,37.5 36.8333,37.5 35.5,37.5C 36.4728,35.8506 37.4728,34.184 38.5,32.5 Z"></path></g>
<g><path style="opacity: 1" fill="#d1903d" d="M 60.5,36.5 C 60.5,36.1667 60.5,35.8333 60.5,35.5C 61.609,35.5569 62.609,35.8902 63.5,36.5C 65.9517,36.9861 68.6183,36.9861 71.5,36.5C 71.5,36.8333 71.5,37.1667 71.5,37.5C 71.8333,38.1667 72.1667,38.8333 72.5,39.5C 72.1667,39.5 71.8333,39.5 71.5,39.5C 68.9165,38.0623 66.5832,38.3956 64.5,40.5C 63.8333,40.1667 63.1667,39.8333 62.5,39.5C 62.573,37.9731 61.9063,36.9731 60.5,36.5 Z"></path></g>
<g><path style="opacity: .776" fill="#b0a9a4" d="M 81.5,30.5 C 84.0827,31.985 85.416,34.3183 85.5,37.5C 83.8053,35.4649 82.472,33.1316 81.5,30.5 Z"></path></g>
<g><path style="opacity: 1" fill="#ef9408" d="M 75.5,34.5 C 75.8333,34.5 76.1667,34.5 76.5,34.5C 77.1667,34.5 77.5,34.8333 77.5,35.5C 77.5569,36.609 77.8902,37.609 78.5,38.5C 77.603,39.5981 76.7697,39.5981 76,38.5C 74.702,37.0544 74.5354,35.7211 75.5,34.5 Z"></path></g>
<g><path style="opacity: 1" fill="#b88f54" d="M 26.5,31.5 C 26.8333,31.5 27.1667,31.5 27.5,31.5C 27.0454,34.9308 28.3787,37.2642 31.5,38.5C 31.5,38.8333 31.5,39.1667 31.5,39.5C 27.0086,38.7759 25.342,36.1093 26.5,31.5 Z"></path></g>
<g><path style="opacity: 1" fill="#c4874c" d="M 32.5,37.5 C 33.5,37.5 34.5,37.5 35.5,37.5C 36.8333,37.5 38.1667,37.5 39.5,37.5C 39.5,37.8333 39.5,38.1667 39.5,38.5C 37.1944,38.9926 34.861,39.3259 32.5,39.5C 32.1667,39.5 31.8333,39.5 31.5,39.5C 31.5,39.1667 31.5,38.8333 31.5,38.5C 32.1667,38.5 32.5,38.1667 32.5,37.5 Z"></path></g>
<g><path style="opacity: 1" fill="#e6970e" d="M 77.5,35.5 C 78.391,36.1098 79.391,36.4431 80.5,36.5C 80.5,38.8333 80.5,41.1667 80.5,43.5C 80.5,44.1667 80.5,44.8333 80.5,45.5C 78.7868,44.3646 78.1201,42.698 78.5,40.5C 78.5,39.8333 78.5,39.1667 78.5,38.5C 77.8902,37.609 77.5569,36.609 77.5,35.5 Z"></path></g>
<g><path style="opacity: 1" fill="#4f290c" d="M 26.5,31.5 C 25.342,36.1093 27.0086,38.7759 31.5,39.5C 31.8333,39.5 32.1667,39.5 32.5,39.5C 31.8333,40.1667 31.1667,40.8333 30.5,41.5C 30.1667,41.5 29.8333,41.5 29.5,41.5C 28.5,40.8333 27.5,40.1667 26.5,39.5C 26.0269,38.0937 25.0269,37.427 23.5,37.5C 24.5511,36.7777 25.2178,35.7777 25.5,34.5C 25.2627,33.209 25.596,32.209 26.5,31.5 Z"></path></g>
<g><path style="opacity: 1" fill="#491c05" d="M 45.5,43.5 C 43.6666,45.0634 41.9999,46.73 40.5,48.5C 40.8016,45.9407 40.4682,43.6074 39.5,41.5C 39.5,40.5 39.5,39.5 39.5,38.5C 39.5,38.1667 39.5,37.8333 39.5,37.5C 39.5,37.1667 39.5,36.8333 39.5,36.5C 40.1515,35.9094 40.8182,35.2427 41.5,34.5C 41.8333,34.8333 42.1667,35.1667 42.5,35.5C 40.5445,39.5042 41.5445,42.1708 45.5,43.5 Z"></path></g>
<g><path style="opacity: 1" fill="#451a05" d="M 50.5,38.5 C 50.5,39.5 50.5,40.5 50.5,41.5C 50.7845,43.4147 50.4511,45.0813 49.5,46.5C 48.8333,43.5 48.1667,40.5 47.5,37.5C 47.3398,35.8008 47.5065,34.1341 48,32.5C 48.0367,34.9739 48.87,36.9739 50.5,38.5 Z"></path></g>
<g><path style="opacity: 1" fill="#381c09" d="M 53.5,32.5 C 53.5,33.8333 53.5,35.1667 53.5,36.5C 53.5,39.5 53.5,42.5 53.5,45.5C 52.8333,46.5 52.1667,47.5 51.5,48.5C 51.8016,45.9407 51.4682,43.6074 50.5,41.5C 50.5,40.5 50.5,39.5 50.5,38.5C 51.4345,37.4324 51.7678,36.099 51.5,34.5C 52.1667,33.8333 52.8333,33.1667 53.5,32.5 Z"></path></g>
<g><path style="opacity: 1" fill="#481b03" d="M 39.5,38.5 C 39.5,39.5 39.5,40.5 39.5,41.5C 36.6463,41.1179 33.6463,41.1179 30.5,41.5C 31.1667,40.8333 31.8333,40.1667 32.5,39.5C 34.861,39.3259 37.1944,38.9926 39.5,38.5 Z"></path></g>
<g><path style="opacity: 1" fill="#da9e33" d="M 80.5,36.5 C 81.1667,36.8333 81.8333,37.1667 82.5,37.5C 82.5,39.5 82.5,41.5 82.5,43.5C 81.8333,43.5 81.1667,43.5 80.5,43.5C 80.5,41.1667 80.5,38.8333 80.5,36.5 Z"></path></g>
<g><path style="opacity: 1" fill="#c49c6b" d="M 23.5,37.5 C 25.0269,37.427 26.0269,38.0937 26.5,39.5C 23.4969,40.17 22.8303,41.8367 24.5,44.5C 23.2223,44.2178 22.2223,43.5511 21.5,42.5C 21.4021,40.4471 22.0687,38.7804 23.5,37.5 Z"></path></g>
<g><path style="opacity: 1" fill="#4c1e08" d="M 60.5,36.5 C 61.9063,36.9731 62.573,37.9731 62.5,39.5C 62.7373,40.791 62.404,41.791 61.5,42.5C 61.5,41.8333 61.1667,41.5 60.5,41.5C 60.7778,39.6536 60.1112,38.3202 58.5,37.5C 57.3336,39.1673 57.3336,40.834 58.5,42.5C 57.8333,42.5 57.5,42.8333 57.5,43.5C 55.7202,42.0101 55.0535,40.0101 55.5,37.5C 57.0418,36.6993 58.7085,36.366 60.5,36.5 Z"></path></g>
<g><path style="opacity: 1" fill="#b8916d" d="M 60.5,41.5 C 60.5,41.8333 60.5,42.1667 60.5,42.5C 59.8333,42.5 59.1667,42.5 58.5,42.5C 57.3336,40.834 57.3336,39.1673 58.5,37.5C 60.1112,38.3202 60.7778,39.6536 60.5,41.5 Z"></path></g>
<g><path style="opacity: 1" fill="#be864f" d="M 39.5,41.5 C 40.4682,43.6074 40.8016,45.9407 40.5,48.5C 39.5655,47.4324 39.2322,46.099 39.5,44.5C 36.6627,42.5977 33.3293,41.931 29.5,42.5C 29.5,42.1667 29.5,41.8333 29.5,41.5C 29.8333,41.5 30.1667,41.5 30.5,41.5C 33.6463,41.1179 36.6463,41.1179 39.5,41.5 Z"></path></g>
<g><path style="opacity: .714" fill="#b9b6ae" d="M 85.5,37.5 C 86.339,38.6412 87.0057,39.9745 87.5,41.5C 87.3764,42.1067 87.0431,42.44 86.5,42.5C 85.596,41.791 85.2627,40.791 85.5,39.5C 85.5,38.8333 85.5,38.1667 85.5,37.5 Z"></path></g>
<g><path style="opacity: .137" fill="#f8f4db" d="M 3.5,43.5 C 6.63995,42.3592 9.97328,42.1925 13.5,43C 14.056,43.3826 14.3893,43.8826 14.5,44.5C 10.8815,43.7564 7.21481,43.423 3.5,43.5 Z"></path></g>
<g><path style="opacity: 1" fill="#a58374" d="M 62.5,39.5 C 63.1667,39.8333 63.8333,40.1667 64.5,40.5C 64.5,41.1667 64.5,41.8333 64.5,42.5C 63.5,45.1667 62.5,45.1667 61.5,42.5C 62.404,41.791 62.7373,40.791 62.5,39.5 Z"></path></g>
<g><path style="opacity: 1" fill="#4d220d" d="M 71.5,39.5 C 71.7406,41.8984 71.0739,43.8984 69.5,45.5C 69.1583,44.6618 68.4916,44.3284 67.5,44.5C 68.8062,43.5326 69.4729,42.1993 69.5,40.5C 68.5,40.5 67.5,40.5 66.5,40.5C 66.5,41.8333 66.5,43.1667 66.5,44.5C 65.8333,43.8333 65.1667,43.1667 64.5,42.5C 64.5,41.8333 64.5,41.1667 64.5,40.5C 66.5832,38.3956 68.9165,38.0623 71.5,39.5 Z"></path></g>
<g><path style="opacity: 1" fill="#aa8b75" d="M 67.5,44.5 C 67.1667,44.5 66.8333,44.5 66.5,44.5C 66.5,43.1667 66.5,41.8333 66.5,40.5C 67.5,40.5 68.5,40.5 69.5,40.5C 69.4729,42.1993 68.8062,43.5326 67.5,44.5 Z"></path></g>
<g><path style="opacity: 1" fill="#e29722" d="M 71.5,37.5 C 72.5,37.5 73.5,37.5 74.5,37.5C 74.1984,40.0593 74.5318,42.3926 75.5,44.5C 75.3893,45.1174 75.056,45.6174 74.5,46C 76.0629,46.7589 77.0629,47.9256 77.5,49.5C 76.609,48.8902 75.609,48.5569 74.5,48.5C 72.7319,45.8375 72.0653,42.8375 72.5,39.5C 72.1667,38.8333 71.8333,38.1667 71.5,37.5 Z"></path></g>
<g><path style="opacity: .204" fill="#f9f3d8" d="M 100.5,45.5 C 100.611,44.8826 100.944,44.3826 101.5,44C 97.7789,43.3219 94.1122,43.4886 90.5,44.5C 90.6107,43.8826 90.944,43.3826 91.5,43C 95.1516,42.5014 98.8183,42.3347 102.5,42.5C 102.715,44.1788 102.048,45.1788 100.5,45.5 Z"></path></g>
<g><path style="opacity: 1" fill="#d99546" d="M 29.5,42.5 C 33.3293,41.931 36.6627,42.5977 39.5,44.5C 38.0387,43.3143 36.7054,43.3143 35.5,44.5C 34.5084,44.3284 33.8417,44.6618 33.5,45.5C 32.1667,45.5 30.8333,45.5 29.5,45.5C 29.5,44.5 29.5,43.5 29.5,42.5 Z"></path></g>
<g><path style="opacity: 1" fill="#b5925f" d="M 53.5,36.5 C 54.4916,36.3284 55.1583,36.6618 55.5,37.5C 55.0535,40.0101 55.7202,42.0101 57.5,43.5C 57.1667,45.8333 55.8333,47.1667 53.5,47.5C 53.5,46.8333 53.5,46.1667 53.5,45.5C 53.5,42.5 53.5,39.5 53.5,36.5 Z"></path></g>
<g><path style="opacity: .792" fill="#beb787" d="M 3.5,43.5 C 7.21481,43.423 10.8815,43.7564 14.5,44.5C 15.8333,45.1667 15.8333,45.8333 14.5,46.5C 11.2139,45.7929 7.88055,45.4595 4.5,45.5C 3.66175,45.1583 3.32842,44.4916 3.5,43.5 Z"></path></g>
<g><path style="opacity: .078" fill="#cbc7c4" d="M 23.5,34.5 C 20.9238,36.8875 19.9238,39.8875 20.5,43.5C 19.8333,44.8333 19.1667,46.1667 18.5,47.5C 18.1667,47.5 17.8333,47.5 17.5,47.5C 17.5,47.1667 17.5,46.8333 17.5,46.5C 19.0208,43.3909 19.8541,40.0575 20,36.5C 20.8159,35.1772 21.9826,34.5106 23.5,34.5 Z"></path></g>
<g><path style="opacity: 1" fill="#e0983b" d="M 26.5,39.5 C 27.5,40.1667 28.5,40.8333 29.5,41.5C 29.5,41.8333 29.5,42.1667 29.5,42.5C 29.5,43.5 29.5,44.5 29.5,45.5C 28.5,45.5 27.5,45.5 26.5,45.5C 25.5084,45.6716 24.8417,45.3382 24.5,44.5C 22.8303,41.8367 23.4969,40.17 26.5,39.5 Z"></path></g>
<g><path style="opacity: 1" fill="#dc9430" d="M 39.5,44.5 C 39.2322,46.099 39.5655,47.4324 40.5,48.5C 40.5,48.8333 40.5,49.1667 40.5,49.5C 37.6643,49.8373 36.9976,51.1707 38.5,53.5C 35.9162,52.9517 34.9162,51.285 35.5,48.5C 35.5,47.1667 35.5,45.8333 35.5,44.5C 36.7054,43.3143 38.0387,43.3143 39.5,44.5 Z"></path></g>
<g><path style="opacity: 1" fill="#cb9347" d="M 46.5,37.5 C 46.8333,37.5 47.1667,37.5 47.5,37.5C 48.1667,40.5 48.8333,43.5 49.5,46.5C 48.5,47.1667 47.5,47.8333 46.5,48.5C 44.8333,49.8333 43.1667,51.1667 41.5,52.5C 41.7373,51.209 41.404,50.209 40.5,49.5C 40.5,49.1667 40.5,48.8333 40.5,48.5C 41.9999,46.73 43.6666,45.0634 45.5,43.5C 46.4614,41.7354 46.7947,39.7354 46.5,37.5 Z"></path></g>
<g><path style="opacity: 1" fill="#311405" d="M 60.5,41.5 C 61.1667,41.5 61.5,41.8333 61.5,42.5C 62.5,45.1667 63.5,45.1667 64.5,42.5C 65.1667,43.1667 65.8333,43.8333 66.5,44.5C 66.8333,44.5 67.1667,44.5 67.5,44.5C 68.4916,44.3284 69.1583,44.6618 69.5,45.5C 68.0047,45.4148 67.0047,46.0815 66.5,47.5C 67.6998,48.2916 69.0331,48.2916 70.5,47.5C 70.1667,48.1667 69.8333,48.8333 69.5,49.5C 68.596,50.209 68.2627,51.209 68.5,52.5C 67.209,52.7373 66.209,52.404 65.5,51.5C 65.3416,47.5823 63.3416,45.5823 59.5,45.5C 58.9569,45.44 58.6236,45.1067 58.5,44.5C 59.2427,43.8182 59.9094,43.1515 60.5,42.5C 60.5,42.1667 60.5,41.8333 60.5,41.5 Z"></path></g>
<g><path style="opacity: 1" fill="#b9b080" d="M 100.5,45.5 C 97.1667,45.8333 93.8333,46.1667 90.5,46.5C 90.5,45.8333 90.5,45.1667 90.5,44.5C 94.1122,43.4886 97.7789,43.3219 101.5,44C 100.944,44.3826 100.611,44.8826 100.5,45.5 Z"></path></g>
<g><path style="opacity: .961" fill="#331b0a" d="M 21.5,42.5 C 22.2223,43.5511 23.2223,44.2178 24.5,44.5C 24.8417,45.3382 25.5084,45.6716 26.5,45.5C 26.1788,47.0481 25.1788,47.7148 23.5,47.5C 23.2172,46.7109 22.7172,46.0442 22,45.5C 20.5187,46.4709 19.6854,47.8042 19.5,49.5C 18.6618,49.1583 18.3284,48.4916 18.5,47.5C 19.1667,46.1667 19.8333,44.8333 20.5,43.5C 21.1667,43.5 21.5,43.1667 21.5,42.5 Z"></path></g>
<g><path style="opacity: 1" fill="#bc894d" d="M 71.5,39.5 C 71.8333,39.5 72.1667,39.5 72.5,39.5C 72.0653,42.8375 72.7319,45.8375 74.5,48.5C 73.1667,48.1667 71.8333,47.8333 70.5,47.5C 69.0331,48.2916 67.6998,48.2916 66.5,47.5C 67.0047,46.0815 68.0047,45.4148 69.5,45.5C 71.0739,43.8984 71.7406,41.8984 71.5,39.5 Z"></path></g>
<g><path style="opacity: 1" fill="#ee950f" d="M 78.5,40.5 C 78.1201,42.698 78.7868,44.3646 80.5,45.5C 81.388,48.0545 81.7214,50.7212 81.5,53.5C 81.7678,55.099 81.4345,56.4324 80.5,57.5C 80.8795,54.4331 79.8795,53.4331 77.5,54.5C 77.5,52.8333 77.5,51.1667 77.5,49.5C 77.0629,47.9256 76.0629,46.7589 74.5,46C 75.056,45.6174 75.3893,45.1174 75.5,44.5C 76.8571,43.4097 77.8571,42.0764 78.5,40.5 Z"></path></g>
<g><path style="opacity: 1" fill="#e59c1b" d="M 80.5,43.5 C 81.1667,43.5 81.8333,43.5 82.5,43.5C 82.5,44.1667 82.5,44.8333 82.5,45.5C 82.8064,48.3854 82.4731,51.0521 81.5,53.5C 81.7214,50.7212 81.388,48.0545 80.5,45.5C 80.5,44.8333 80.5,44.1667 80.5,43.5 Z"></path></g>
<g><path style="opacity: .114" fill="#f9efd0" d="M 4.5,45.5 C 7.88055,45.4595 11.2139,45.7929 14.5,46.5C 11.0702,47.7097 7.73688,47.3764 4.5,45.5 Z"></path></g>
<g><path style="opacity: 1" fill="#48240a" d="M 58.5,42.5 C 59.1667,42.5 59.8333,42.5 60.5,42.5C 59.9094,43.1515 59.2427,43.8182 58.5,44.5C 58.6236,45.1067 58.9569,45.44 59.5,45.5C 59.1667,46.1667 58.8333,46.8333 58.5,47.5C 57.8333,47.5 57.5,47.8333 57.5,48.5C 56.1667,49.1667 54.8333,49.8333 53.5,50.5C 53.5,49.5 53.5,48.5 53.5,47.5C 55.8333,47.1667 57.1667,45.8333 57.5,43.5C 57.5,42.8333 57.8333,42.5 58.5,42.5 Z"></path></g>
<g><path style="opacity: 1" fill="#271605" d="M 85.5,39.5 C 85.2627,40.791 85.596,41.791 86.5,42.5C 86.5,42.8333 86.5,43.1667 86.5,43.5C 86.6625,48.547 86.3292,53.547 85.5,58.5C 84.8333,58.5 84.1667,58.5 83.5,58.5C 85.4102,52.899 85.7435,47.2324 84.5,41.5C 84.3284,40.5084 84.6618,39.8417 85.5,39.5 Z"></path></g>
<g><path style="opacity: .188" fill="#fcf8db" d="M 100.5,45.5 C 98.3498,46.6701 96.0164,47.6701 93.5,48.5C 92.2613,48.0576 91.2613,47.3909 90.5,46.5C 93.8333,46.1667 97.1667,45.8333 100.5,45.5 Z"></path></g>
<g><path style="opacity: .02" fill="#f5f5f1" d="M 17.5,46.5 C 17.5,46.8333 17.5,47.1667 17.5,47.5C 17.155,51.1151 17.8217,54.4484 19.5,57.5C 18.2954,55.8624 16.9621,55.5291 15.5,56.5C 15.5,55.8333 15.5,55.1667 15.5,54.5C 15.5,54.1667 15.5,53.8333 15.5,53.5C 15.3379,51.4727 15.5045,49.4727 16,47.5C 16.3826,46.944 16.8826,46.6107 17.5,46.5 Z"></path></g>
<g><path style="opacity: 1" fill="#c1966a" d="M 50.5,41.5 C 51.4682,43.6074 51.8016,45.9407 51.5,48.5C 49.8333,48.5 48.1667,48.5 46.5,48.5C 47.5,47.8333 48.5,47.1667 49.5,46.5C 50.4511,45.0813 50.7845,43.4147 50.5,41.5 Z"></path></g>
<g><path style="opacity: 1" fill="#d4963a" d="M 58.5,47.5 C 62.5,46.8333 64.1667,48.5 63.5,52.5C 63.1667,53.1667 62.8333,53.8333 62.5,54.5C 62.5,55.1667 62.1667,55.5 61.5,55.5C 61.5,53.1667 61.5,50.8333 61.5,48.5C 60.5,48.5 59.5,48.5 58.5,48.5C 58.5,49.8333 58.5,51.1667 58.5,52.5C 58.1667,52.5 57.8333,52.5 57.5,52.5C 57.5,51.1667 57.5,49.8333 57.5,48.5C 57.5,47.8333 57.8333,47.5 58.5,47.5 Z"></path></g>
<g><path style="opacity: 1" fill="#d69a2f" d="M 82.5,45.5 C 83.5715,49.6776 83.5715,54.0109 82.5,58.5C 82.5,59.1667 82.5,59.8333 82.5,60.5C 81.2223,60.7822 80.2223,61.4489 79.5,62.5C 79.5,61.5 79.5,60.5 79.5,59.5C 79.3284,58.5084 79.6618,57.8417 80.5,57.5C 81.4345,56.4324 81.7678,55.099 81.5,53.5C 82.4731,51.0521 82.8064,48.3854 82.5,45.5 Z"></path></g>
<g><path style="opacity: 1" fill="#c39953" d="M 82.5,37.5 C 83.1667,38.8333 83.8333,40.1667 84.5,41.5C 85.7435,47.2324 85.4102,52.899 83.5,58.5C 83.1667,58.5 82.8333,58.5 82.5,58.5C 83.5715,54.0109 83.5715,49.6776 82.5,45.5C 82.5,44.8333 82.5,44.1667 82.5,43.5C 82.5,41.5 82.5,39.5 82.5,37.5 Z"></path></g>
<g><path style="opacity: 1" fill="#c48d46" d="M 26.5,45.5 C 27.5,45.5 28.5,45.5 29.5,45.5C 30.8333,45.5 32.1667,45.5 33.5,45.5C 33.5299,46.4972 33.0299,47.1639 32,47.5C 26.5834,46.0724 26.25,46.7391 31,49.5C 31.49,50.7932 31.6567,52.1266 31.5,53.5C 30.8333,53.5 30.1667,53.5 29.5,53.5C 29.7725,51.0418 28.7725,49.3751 26.5,48.5C 25.6143,49.325 25.281,50.325 25.5,51.5C 24.1667,51.5 23.5,52.1667 23.5,53.5C 22.3065,53.0296 21.6399,52.0296 21.5,50.5C 21.6399,48.9704 22.3065,47.9704 23.5,47.5C 25.1788,47.7148 26.1788,47.0481 26.5,45.5 Z"></path></g>
<g><path style="opacity: 1" fill="#c08f59" d="M 59.5,45.5 C 63.3416,45.5823 65.3416,47.5823 65.5,51.5C 64.8333,51.8333 64.1667,52.1667 63.5,52.5C 64.1667,48.5 62.5,46.8333 58.5,47.5C 58.8333,46.8333 59.1667,46.1667 59.5,45.5 Z"></path></g>
<g><path style="opacity: .945" fill="#2a2719" d="M 17.5,47.5 C 17.8333,47.5 18.1667,47.5 18.5,47.5C 18.3284,48.4916 18.6618,49.1583 19.5,49.5C 19.3939,52.0786 20.0605,54.412 21.5,56.5C 20.8333,56.5 20.5,56.8333 20.5,57.5C 20.1667,57.5 19.8333,57.5 19.5,57.5C 17.8217,54.4484 17.155,51.1151 17.5,47.5 Z"></path></g>
<g><path style="opacity: 1" fill="#c3a170" d="M 23.5,47.5 C 22.3065,47.9704 21.6399,48.9704 21.5,50.5C 21.6399,52.0296 22.3065,53.0296 23.5,53.5C 23.573,55.0269 22.9063,56.0269 21.5,56.5C 20.0605,54.412 19.3939,52.0786 19.5,49.5C 19.6854,47.8042 20.5187,46.4709 22,45.5C 22.7172,46.0442 23.2172,46.7109 23.5,47.5 Z"></path></g>
<g><path style="opacity: 1" fill="#dd9435" d="M 29.5,53.5 C 27.8007,53.4729 26.4674,52.8062 25.5,51.5C 25.281,50.325 25.6143,49.325 26.5,48.5C 28.7725,49.3751 29.7725,51.0418 29.5,53.5 Z"></path></g>
<g><path style="opacity: 1" fill="#451a04" d="M 35.5,44.5 C 35.5,45.8333 35.5,47.1667 35.5,48.5C 34.0532,49.1342 33.3866,50.3009 33.5,52C 33.6842,53.3756 34.3509,54.2089 35.5,54.5C 36.2625,55.2679 37.2625,55.7679 38.5,56C 37.9056,56.4643 37.2389,56.631 36.5,56.5C 35.0695,56.5792 33.7362,56.2458 32.5,55.5C 31.4777,55.8555 30.811,56.5222 30.5,57.5C 30.1667,57.5 29.8333,57.5 29.5,57.5C 28.8333,57.5 28.5,57.1667 28.5,56.5C 29.8333,55.8333 30.8333,54.8333 31.5,53.5C 31.6567,52.1266 31.49,50.7932 31,49.5C 26.25,46.7391 26.5834,46.0724 32,47.5C 33.0299,47.1639 33.5299,46.4972 33.5,45.5C 33.8417,44.6618 34.5084,44.3284 35.5,44.5 Z"></path></g>
<g><path style="opacity: 1" fill="#d79f30" d="M 40.5,49.5 C 41.404,50.209 41.7373,51.209 41.5,52.5C 40.391,52.5569 39.391,52.8902 38.5,53.5C 36.9976,51.1707 37.6643,49.8373 40.5,49.5 Z"></path></g>
<g><path style="opacity: 1" fill="#b18955" d="M 69.5,49.5 C 71.7144,49.2907 73.381,50.124 74.5,52C 74.2517,53.7491 73.2517,54.5824 71.5,54.5C 70.7095,53.5987 69.7095,52.9321 68.5,52.5C 68.2627,51.209 68.596,50.209 69.5,49.5 Z"></path></g>
<g><path style="opacity: 1" fill="#cc8b2b" d="M 74.5,48.5 C 75.609,48.5569 76.609,48.8902 77.5,49.5C 77.5,51.1667 77.5,52.8333 77.5,54.5C 77.5,54.8333 77.5,55.1667 77.5,55.5C 74.9658,57.5923 72.2992,57.9256 69.5,56.5C 71.4147,56.7845 73.0813,56.4511 74.5,55.5C 75.8333,53.1667 75.8333,50.8333 74.5,48.5 Z"></path></g>
<g><path style="opacity: 1" fill="#492005" d="M 46.5,48.5 C 48.1667,48.5 49.8333,48.5 51.5,48.5C 51.5,49.1667 51.5,49.8333 51.5,50.5C 49.5853,50.2155 47.9187,50.5489 46.5,51.5C 44.9731,51.427 43.9731,52.0937 43.5,53.5C 42.8333,53.5 42.1667,53.5 41.5,53.5C 41.5,53.1667 41.5,52.8333 41.5,52.5C 43.1667,51.1667 44.8333,49.8333 46.5,48.5 Z"></path></g>
<g><path style="opacity: 1" fill="#461400" d="M 70.5,47.5 C 71.8333,47.8333 73.1667,48.1667 74.5,48.5C 75.8333,50.8333 75.8333,53.1667 74.5,55.5C 73.1667,55.5 71.8333,55.5 70.5,55.5C 70.5,54.8333 70.8333,54.5 71.5,54.5C 73.2517,54.5824 74.2517,53.7491 74.5,52C 73.381,50.124 71.7144,49.2907 69.5,49.5C 69.8333,48.8333 70.1667,48.1667 70.5,47.5 Z"></path></g>
<g><path style="opacity: 1" fill="#b38759" d="M 46.5,51.5 C 47.9187,50.5489 49.5853,50.2155 51.5,50.5C 51.5,52.1667 51.5,53.8333 51.5,55.5C 50.8333,55.1667 50.1667,54.8333 49.5,54.5C 49.5,53.5 49.5,52.5 49.5,51.5C 48.5,51.5 47.5,51.5 46.5,51.5 Z"></path></g>
<g><path style="opacity: 1" fill="#381000" d="M 57.5,52.5 C 57.5,53.1667 57.5,53.8333 57.5,54.5C 56.5093,60.979 56.176,67.6457 56.5,74.5C 56.1667,74.5 55.8333,74.5 55.5,74.5C 55.824,67.6457 55.4907,60.979 54.5,54.5C 54.6322,51.9931 55.6322,51.3264 57.5,52.5 Z"></path></g>
<g><path style="opacity: .323" fill="#fef5d5" d="M 15.5,53.5 C 15.5,53.8333 15.5,54.1667 15.5,54.5C 11.8019,54.5524 8.13523,54.8857 4.5,55.5C 4.91753,54.7784 5.5842,54.2784 6.5,54C 9.48162,53.502 12.4816,53.3354 15.5,53.5 Z"></path></g>
<g><path style="opacity: 1" fill="#c98c4e" d="M 35.5,48.5 C 34.9162,51.285 35.9162,52.9517 38.5,53.5C 39.391,52.8902 40.391,52.5569 41.5,52.5C 41.5,52.8333 41.5,53.1667 41.5,53.5C 39.6208,54.3414 37.6208,54.6747 35.5,54.5C 34.3509,54.2089 33.6842,53.3756 33.5,52C 33.3866,50.3009 34.0532,49.1342 35.5,48.5 Z"></path></g>
<g><path style="opacity: 1" fill="#c8934b" d="M 46.5,51.5 C 47.5,51.5 48.5,51.5 49.5,51.5C 49.5,52.5 49.5,53.5 49.5,54.5C 47.9382,54.7329 46.6049,55.3995 45.5,56.5C 44.1667,56.5 42.8333,56.5 41.5,56.5C 42.1667,55.5 42.8333,54.5 43.5,53.5C 43.9731,52.0937 44.9731,51.427 46.5,51.5 Z"></path></g>
<g><path style="opacity: 1" fill="#2d1305" d="M 53.5,45.5 C 53.5,46.1667 53.5,46.8333 53.5,47.5C 53.5,48.5 53.5,49.5 53.5,50.5C 53.5,54.1667 53.5,57.8333 53.5,61.5C 52.7777,60.4489 51.7777,59.7822 50.5,59.5C 50.5,58.8333 50.5,58.1667 50.5,57.5C 50.8333,56.8333 51.1667,56.1667 51.5,55.5C 51.5,53.8333 51.5,52.1667 51.5,50.5C 51.5,49.8333 51.5,49.1667 51.5,48.5C 52.1667,47.5 52.8333,46.5 53.5,45.5 Z"></path></g>
<g><path style="opacity: 1" fill="#532609" d="M 65.5,51.5 C 66.209,52.404 67.209,52.7373 68.5,52.5C 69.7095,52.9321 70.7095,53.5987 71.5,54.5C 70.8333,54.5 70.5,54.8333 70.5,55.5C 68.0596,53.0778 65.7263,53.0778 63.5,55.5C 63.5,54.8333 63.1667,54.5 62.5,54.5C 62.8333,53.8333 63.1667,53.1667 63.5,52.5C 64.1667,52.1667 64.8333,51.8333 65.5,51.5 Z"></path></g>
<g><path style="opacity: 1" fill="#f09211" d="M 80.5,57.5 C 79.6618,57.8417 79.3284,58.5084 79.5,59.5C 78.5,59.1667 77.8333,58.5 77.5,57.5C 77.5,56.8333 77.5,56.1667 77.5,55.5C 77.5,55.1667 77.5,54.8333 77.5,54.5C 79.8795,53.4331 80.8795,54.4331 80.5,57.5 Z"></path></g>
<g><path style="opacity: .008" fill="#dbd6d1" d="M 86.5,43.5 C 87.647,47.6463 87.8136,51.9796 87,56.5C 86.7216,57.4158 86.2216,58.0825 85.5,58.5C 86.3292,53.547 86.6625,48.547 86.5,43.5 Z"></path></g>
<g><path style="opacity: .453" fill="#f6eecd" d="M 100.5,57.5 C 97.3157,55.5864 93.649,54.9197 89.5,55.5C 92.7857,52.2965 96.4524,51.9631 100.5,54.5C 102.656,56.1282 102.656,57.1282 100.5,57.5 Z"></path></g>
<g><path style="opacity: 1" fill="#bc844d" d="M 25.5,51.5 C 26.4674,52.8062 27.8007,53.4729 29.5,53.5C 30.1667,53.5 30.8333,53.5 31.5,53.5C 30.8333,54.8333 29.8333,55.8333 28.5,56.5C 27.5,55.8333 26.5,55.1667 25.5,54.5C 25.5,53.5 25.5,52.5 25.5,51.5 Z"></path></g>
<g><path style="opacity: 1" fill="#dd9a2a" d="M 61.5,55.5 C 60.5,55.5 59.5,55.5 58.5,55.5C 58.5,54.5 58.5,53.5 58.5,52.5C 58.5,51.1667 58.5,49.8333 58.5,48.5C 59.5,48.5 60.5,48.5 61.5,48.5C 61.5,50.8333 61.5,53.1667 61.5,55.5 Z"></path></g>
<g><path style="opacity: .996" fill="#c3b388" d="M 15.5,54.5 C 15.5,55.1667 15.5,55.8333 15.5,56.5C 11.8648,57.1143 8.1981,57.4476 4.5,57.5C 3.16667,56.8333 3.16667,56.1667 4.5,55.5C 8.13523,54.8857 11.8019,54.5524 15.5,54.5 Z"></path></g>
<g><path style="opacity: 1" fill="#a6723f" d="M 25.5,54.5 C 26.5,55.1667 27.5,55.8333 28.5,56.5C 28.5,57.1667 28.8333,57.5 29.5,57.5C 28.8106,58.7736 27.9772,58.7736 27,57.5C 26.5357,58.0944 26.369,58.7611 26.5,59.5C 26.1667,59.5 25.8333,59.5 25.5,59.5C 24.1667,57.8333 24.1667,56.1667 25.5,54.5 Z"></path></g>
<g><path style="opacity: 1" fill="#622b0a" d="M 41.5,53.5 C 42.1667,53.5 42.8333,53.5 43.5,53.5C 42.8333,54.5 42.1667,55.5 41.5,56.5C 40.5084,56.3284 39.8417,56.6618 39.5,57.5C 38.209,57.7373 37.209,57.404 36.5,56.5C 37.2389,56.631 37.9056,56.4643 38.5,56C 37.2625,55.7679 36.2625,55.2679 35.5,54.5C 37.6208,54.6747 39.6208,54.3414 41.5,53.5 Z"></path></g>
<g><path style="opacity: 1" fill="#562d12" d="M 49.5,54.5 C 50.1667,54.8333 50.8333,55.1667 51.5,55.5C 51.1667,56.1667 50.8333,56.8333 50.5,57.5C 49.1667,57.5 47.8333,57.5 46.5,57.5C 45.8333,57.5 45.5,57.1667 45.5,56.5C 46.6049,55.3995 47.9382,54.7329 49.5,54.5 Z"></path></g>
<g><path style="opacity: 1" fill="#d3943f" d="M 57.5,52.5 C 57.8333,52.5 58.1667,52.5 58.5,52.5C 58.5,53.5 58.5,54.5 58.5,55.5C 59.5,55.5 60.5,55.5 61.5,55.5C 61.4431,56.609 61.1098,57.609 60.5,58.5C 59.391,58.4431 58.391,58.1098 57.5,57.5C 57.5,56.5 57.5,55.5 57.5,54.5C 57.5,53.8333 57.5,53.1667 57.5,52.5 Z"></path></g>
<g><path style="opacity: 1" fill="#a88e6e" d="M 57.5,48.5 C 57.5,49.8333 57.5,51.1667 57.5,52.5C 55.6322,51.3264 54.6322,51.9931 54.5,54.5C 54.8274,64.6806 54.494,74.6806 53.5,84.5C 53.5,76.8333 53.5,69.1667 53.5,61.5C 53.5,57.8333 53.5,54.1667 53.5,50.5C 54.8333,49.8333 56.1667,49.1667 57.5,48.5 Z"></path></g>
<g><path style="opacity: 1" fill="#c6873f" d="M 70.5,55.5 C 71.8333,55.5 73.1667,55.5 74.5,55.5C 73.0813,56.4511 71.4147,56.7845 69.5,56.5C 67.901,56.2322 66.5676,56.5655 65.5,57.5C 64.8689,59.9344 63.8689,62.2677 62.5,64.5C 61.8333,65.5 61.1667,66.5 60.5,67.5C 61.0949,63.3852 62.0949,59.3852 63.5,55.5C 65.7263,53.0778 68.0596,53.0778 70.5,55.5 Z"></path></g>
<g><path style="opacity: .737" fill="#ccc4a0" d="M 89.5,55.5 C 93.649,54.9197 97.3157,55.5864 100.5,57.5C 97.3601,58.6408 94.0267,58.8075 90.5,58C 89.7476,57.3292 89.4142,56.4959 89.5,55.5 Z"></path></g>
<g><path style="opacity: .025" fill="#fbf7e9" d="M 15.5,56.5 C 15.3893,57.1174 15.056,57.6174 14.5,58C 10.9733,58.8075 7.63995,58.6408 4.5,57.5C 8.1981,57.4476 11.8648,57.1143 15.5,56.5 Z"></path></g>
<g><path style="opacity: 1" fill="#30180b" d="M 25.5,51.5 C 25.5,52.5 25.5,53.5 25.5,54.5C 24.1667,56.1667 24.1667,57.8333 25.5,59.5C 25.1667,59.5 24.8333,59.5 24.5,59.5C 23.1667,59.5 22.5,60.1667 22.5,61.5C 21.8333,60.1667 21.1667,58.8333 20.5,57.5C 20.5,56.8333 20.8333,56.5 21.5,56.5C 22.9063,56.0269 23.573,55.0269 23.5,53.5C 23.5,52.1667 24.1667,51.5 25.5,51.5 Z"></path></g>
<g><path style="opacity: 1" fill="#e49718" d="M 77.5,55.5 C 77.5,56.1667 77.5,56.8333 77.5,57.5C 75.8333,58.1667 74.1667,58.8333 72.5,59.5C 72.1667,59.5 71.8333,59.5 71.5,59.5C 69.7354,58.5386 67.7354,58.2053 65.5,58.5C 65.5,58.1667 65.5,57.8333 65.5,57.5C 66.5676,56.5655 67.901,56.2322 69.5,56.5C 72.2992,57.9256 74.9658,57.5923 77.5,55.5 Z"></path></g>
<g><path style="opacity: 1" fill="#d9963e" d="M 29.5,57.5 C 29.8333,57.5 30.1667,57.5 30.5,57.5C 32.3084,57.4914 33.9751,57.9914 35.5,59C 34.5842,59.2784 33.9175,59.7784 33.5,60.5C 31.0504,60.702 28.717,60.3686 26.5,59.5C 26.369,58.7611 26.5357,58.0944 27,57.5C 27.9772,58.7736 28.8106,58.7736 29.5,57.5 Z"></path></g>
<g><path style="opacity: 1" fill="#cc8f42" d="M 36.5,56.5 C 37.209,57.404 38.209,57.7373 39.5,57.5C 38.9002,58.8999 37.9002,59.8999 36.5,60.5C 35.5,60.5 34.5,60.5 33.5,60.5C 33.9175,59.7784 34.5842,59.2784 35.5,59C 33.9751,57.9914 32.3084,57.4914 30.5,57.5C 30.811,56.5222 31.4777,55.8555 32.5,55.5C 33.7362,56.2458 35.0695,56.5792 36.5,56.5 Z"></path></g>
<g><path style="opacity: 1" fill="#ba9460" d="M 46.5,57.5 C 47.8333,57.5 49.1667,57.5 50.5,57.5C 50.5,58.1667 50.5,58.8333 50.5,59.5C 50.0269,60.9063 49.0269,61.573 47.5,61.5C 47.4431,60.391 47.1098,59.391 46.5,58.5C 46.5,58.1667 46.5,57.8333 46.5,57.5 Z"></path></g>
<g><path style="opacity: 1" fill="#e09829" d="M 46.5,58.5 C 47.1098,59.391 47.4431,60.391 47.5,61.5C 46.7777,62.5511 45.7777,63.2178 44.5,63.5C 43.5,63.1667 42.8333,62.5 42.5,61.5C 41.9094,60.8485 41.2427,60.1818 40.5,59.5C 40.7093,58.914 41.0426,58.414 41.5,58C 43.1966,57.6155 44.8632,57.7822 46.5,58.5 Z"></path></g>
<g><path style="opacity: 1" fill="#ed990e" d="M 77.5,57.5 C 77.8333,58.5 78.5,59.1667 79.5,59.5C 79.5,60.5 79.5,61.5 79.5,62.5C 78.5,63.1667 77.5,63.8333 76.5,64.5C 76.5,63.1667 76.5,61.8333 76.5,60.5C 74.901,60.7678 73.5676,60.4345 72.5,59.5C 74.1667,58.8333 75.8333,58.1667 77.5,57.5 Z"></path></g>
<g><path style="opacity: .038" fill="#f8f7f5" d="M 19.5,57.5 C 19.8333,57.5 20.1667,57.5 20.5,57.5C 20.448,59.9029 20.7814,62.2362 21.5,64.5C 20.8826,64.3893 20.3826,64.056 20,63.5C 19.5045,61.5273 19.3379,59.5273 19.5,57.5 Z"></path></g>
<g><path style="opacity: 1" fill="#c28a3c" d="M 24.5,59.5 C 24.8333,59.5 25.1667,59.5 25.5,59.5C 25.8333,59.5 26.1667,59.5 26.5,59.5C 28.717,60.3686 31.0504,60.702 33.5,60.5C 34.5,60.5 35.5,60.5 36.5,60.5C 37.1667,60.5 37.5,60.8333 37.5,61.5C 33.5251,60.8578 30.1918,61.8578 27.5,64.5C 25.31,63.6255 24.31,61.9589 24.5,59.5 Z"></path></g>
<g><path style="opacity: 1" fill="#d68e31" d="M 41.5,56.5 C 42.8333,56.5 44.1667,56.5 45.5,56.5C 45.5,57.1667 45.8333,57.5 46.5,57.5C 46.5,57.8333 46.5,58.1667 46.5,58.5C 44.8632,57.7822 43.1966,57.6155 41.5,58C 41.0426,58.414 40.7093,58.914 40.5,59.5C 41.2427,60.1818 41.9094,60.8485 42.5,61.5C 41.8333,61.5 41.1667,61.5 40.5,61.5C 39.5,61.5 38.5,61.5 37.5,61.5C 37.5,60.8333 37.1667,60.5 36.5,60.5C 37.9002,59.8999 38.9002,58.8999 39.5,57.5C 39.8417,56.6618 40.5084,56.3284 41.5,56.5 Z"></path></g>
<g><path style="opacity: 1" fill="#572307" d="M 62.5,54.5 C 63.1667,54.5 63.5,54.8333 63.5,55.5C 62.0949,59.3852 61.0949,63.3852 60.5,67.5C 60.5,68.8333 60.5,70.1667 60.5,71.5C 60.1667,71.5 59.8333,71.5 59.5,71.5C 59.7678,69.901 59.4345,68.5676 58.5,67.5C 58.6997,64.3704 59.3664,61.3704 60.5,58.5C 61.1098,57.609 61.4431,56.609 61.5,55.5C 62.1667,55.5 62.5,55.1667 62.5,54.5 Z"></path></g>
<g><path style="opacity: 1" fill="#f09508" d="M 71.5,59.5 C 71.8333,59.5 72.1667,59.5 72.5,59.5C 73.5676,60.4345 74.901,60.7678 76.5,60.5C 76.5,61.8333 76.5,63.1667 76.5,64.5C 76.5,64.8333 76.5,65.1667 76.5,65.5C 76.1667,65.5 75.8333,65.5 75.5,65.5C 75.5,64.5 75.5,63.5 75.5,62.5C 72.9899,62.0535 70.9899,62.7202 69.5,64.5C 67.7868,63.3646 67.1201,61.698 67.5,59.5C 68.8333,59.5 70.1667,59.5 71.5,59.5 Z"></path></g>
<g><path style="opacity: .792" fill="#594332" d="M 82.5,58.5 C 82.8333,58.5 83.1667,58.5 83.5,58.5C 84.1667,58.5 84.8333,58.5 85.5,58.5C 85.0075,60.8185 84.0075,62.8185 82.5,64.5C 82.5,63.8333 82.1667,63.5 81.5,63.5C 81.5569,62.391 81.8902,61.391 82.5,60.5C 82.5,59.8333 82.5,59.1667 82.5,58.5 Z"></path></g>
<g><path style="opacity: .961" fill="#3c3327" d="M 20.5,57.5 C 21.1667,58.8333 21.8333,60.1667 22.5,61.5C 23.5,63.1667 24.8333,64.5 26.5,65.5C 26.5,65.8333 26.5,66.1667 26.5,66.5C 26.5,66.8333 26.5,67.1667 26.5,67.5C 26.1667,67.5 25.8333,67.5 25.5,67.5C 24.5084,67.6716 23.8417,67.3382 23.5,66.5C 23.1667,65.5 22.5,64.8333 21.5,64.5C 20.7814,62.2362 20.448,59.9029 20.5,57.5 Z"></path></g>
<g><path style="opacity: 1" fill="#bfa679" d="M 24.5,59.5 C 24.31,61.9589 25.31,63.6255 27.5,64.5C 27.5,65.1667 27.1667,65.5 26.5,65.5C 24.8333,64.5 23.5,63.1667 22.5,61.5C 22.5,60.1667 23.1667,59.5 24.5,59.5 Z"></path></g>
<g><path style="opacity: 1" fill="#4c2209" d="M 37.5,61.5 C 37.5,62.1667 37.5,62.8333 37.5,63.5C 36.5,63.5 35.5,63.5 34.5,63.5C 32.8561,63.2865 31.3561,63.6198 30,64.5C 29.5045,66.4727 29.3379,68.4727 29.5,70.5C 28.9779,68.7809 27.9779,67.4475 26.5,66.5C 26.5,66.1667 26.5,65.8333 26.5,65.5C 27.1667,65.5 27.5,65.1667 27.5,64.5C 30.1918,61.8578 33.5251,60.8578 37.5,61.5 Z"></path></g>
<g><path style="opacity: 1" fill="#c88c3e" d="M 37.5,61.5 C 38.5,61.5 39.5,61.5 40.5,61.5C 41.0798,63.7488 42.4131,65.4154 44.5,66.5C 44.719,67.675 44.3857,68.675 43.5,69.5C 42.5832,68.8728 41.5832,68.5394 40.5,68.5C 39.8333,68.5 39.1667,68.5 38.5,68.5C 38.5,68.1667 38.5,67.8333 38.5,67.5C 42.1947,66.1051 41.8613,64.7718 37.5,63.5C 37.5,62.8333 37.5,62.1667 37.5,61.5 Z"></path></g>
<g><path style="opacity: 1" fill="#2d1702" d="M 50.5,59.5 C 51.7777,59.7822 52.7777,60.4489 53.5,61.5C 53.5,69.1667 53.5,76.8333 53.5,84.5C 52.8333,79.5 52.1667,74.5 51.5,69.5C 51.5,68.8333 51.5,68.1667 51.5,67.5C 51.7852,65.712 51.4519,64.0453 50.5,62.5C 49.0783,63.7768 48.0783,63.4435 47.5,61.5C 49.0269,61.573 50.0269,60.9063 50.5,59.5 Z"></path></g>
<g><path style="opacity: 1" fill="#ec9608" d="M 65.5,58.5 C 67.7354,58.2053 69.7354,58.5386 71.5,59.5C 70.1667,59.5 68.8333,59.5 67.5,59.5C 67.1201,61.698 67.7868,63.3646 69.5,64.5C 68.713,66.1042 67.3797,66.7709 65.5,66.5C 65.5,65.5 65.5,64.5 65.5,63.5C 65.5,61.8333 65.5,60.1667 65.5,58.5 Z"></path></g>
<g><path style="opacity: 1" fill="#f49304" d="M 75.5,65.5 C 73.8333,65.5 72.1667,65.5 70.5,65.5C 70.5,64.8333 70.1667,64.5 69.5,64.5C 70.9899,62.7202 72.9899,62.0535 75.5,62.5C 75.5,63.5 75.5,64.5 75.5,65.5 Z"></path></g>
<g><path style="opacity: 1" fill="#c79347" d="M 82.5,60.5 C 81.8902,61.391 81.5569,62.391 81.5,63.5C 79.8333,64.8333 78.1667,66.1667 76.5,67.5C 76.5,66.8333 76.5,66.1667 76.5,65.5C 76.5,65.1667 76.5,64.8333 76.5,64.5C 77.5,63.8333 78.5,63.1667 79.5,62.5C 80.2223,61.4489 81.2223,60.7822 82.5,60.5 Z"></path></g>
<g><path style="opacity: .553" fill="#f7f1d3" d="M 18.5,64.5 C 15.0369,65.0991 11.7036,66.0991 8.5,67.5C 10.9724,65.3804 13.8057,63.7137 17,62.5C 17.7172,63.0442 18.2172,63.7109 18.5,64.5 Z"></path></g>
<g><path style="opacity: 1" fill="#5c2904" d="M 40.5,61.5 C 41.1667,61.5 41.8333,61.5 42.5,61.5C 42.8333,62.5 43.5,63.1667 44.5,63.5C 45.1667,64.1667 45.8333,64.8333 46.5,65.5C 45.5084,65.3284 44.8417,65.6618 44.5,66.5C 42.4131,65.4154 41.0798,63.7488 40.5,61.5 Z"></path></g>
<g><path style="opacity: 1" fill="#bf915e" d="M 47.5,61.5 C 48.0783,63.4435 49.0783,63.7768 50.5,62.5C 51.4519,64.0453 51.7852,65.712 51.5,67.5C 49.4862,67.6085 47.8195,66.9418 46.5,65.5C 45.8333,64.8333 45.1667,64.1667 44.5,63.5C 45.7777,63.2178 46.7777,62.5511 47.5,61.5 Z"></path></g>
<g><path style="opacity: 1" fill="#bd966e" d="M 57.5,57.5 C 58.391,58.1098 59.391,58.4431 60.5,58.5C 59.3664,61.3704 58.6997,64.3704 58.5,67.5C 58.5,68.1667 58.5,68.8333 58.5,69.5C 57.5166,65.7016 57.1832,61.7016 57.5,57.5 Z"></path></g>
<g><path style="opacity: 1" fill="#e79824" d="M 65.5,57.5 C 65.5,57.8333 65.5,58.1667 65.5,58.5C 65.5,60.1667 65.5,61.8333 65.5,63.5C 64.6618,63.8417 64.3284,64.5084 64.5,65.5C 63.8333,66.8333 63.1667,68.1667 62.5,69.5C 62.5,67.8333 62.5,66.1667 62.5,64.5C 63.8689,62.2677 64.8689,59.9344 65.5,57.5 Z"></path></g>
<g><path style="opacity: .78" fill="#3e2911" d="M 81.5,63.5 C 82.1667,63.5 82.5,63.8333 82.5,64.5C 81.1667,66.1667 79.8333,67.8333 78.5,69.5C 77.5,69.5 76.5,69.5 75.5,69.5C 75.8333,68.8333 76.1667,68.1667 76.5,67.5C 78.1667,66.1667 79.8333,64.8333 81.5,63.5 Z"></path></g>
<g><path style="opacity: .004" fill="#e7e7e2" d="M 21.5,64.5 C 22.5,64.8333 23.1667,65.5 23.5,66.5C 22.1667,66.5 21.5,65.8333 21.5,64.5 Z"></path></g>
<g><path style="opacity: 1" fill="#c3975e" d="M 34.5,63.5 C 34.5,63.8333 34.5,64.1667 34.5,64.5C 33.5,64.8333 32.8333,65.5 32.5,66.5C 33.038,68.1172 33.3713,69.7839 33.5,71.5C 32.0413,71.5674 30.7079,71.2341 29.5,70.5C 29.3379,68.4727 29.5045,66.4727 30,64.5C 31.3561,63.6198 32.8561,63.2865 34.5,63.5 Z"></path></g>
<g><path style="opacity: 1" fill="#e09831" d="M 34.5,64.5 C 34.5,64.1667 34.5,63.8333 34.5,63.5C 35.5,63.5 36.5,63.5 37.5,63.5C 41.8613,64.7718 42.1947,66.1051 38.5,67.5C 36.5695,67.2294 35.2362,66.2294 34.5,64.5 Z"></path></g>
<g><path style="opacity: 1" fill="#f09403" d="M 65.5,63.5 C 65.5,64.5 65.5,65.5 65.5,66.5C 67.3797,66.7709 68.713,66.1042 69.5,64.5C 70.1667,64.5 70.5,64.8333 70.5,65.5C 71.0715,66.9733 71.0715,68.64 70.5,70.5C 68.3792,70.6747 66.3792,70.3414 64.5,69.5C 64.5,68.1667 64.5,66.8333 64.5,65.5C 64.3284,64.5084 64.6618,63.8417 65.5,63.5 Z"></path></g>
<g><path style="opacity: .89" fill="#ccc08f" d="M 94.5,66.5 C 94.6107,67.1174 94.944,67.6174 95.5,68C 94.2068,68.49 92.8734,68.6567 91.5,68.5C 88.0022,68.5216 86.6689,67.0216 87.5,64C 90.2417,63.7048 92.575,64.5381 94.5,66.5 Z"></path></g>
<g><path style="opacity: .924" fill="#c4bd90" d="M 18.5,64.5 C 19.5498,64.9046 19.5498,65.5712 18.5,66.5C 15.2418,69.3941 11.5751,70.0608 7.5,68.5C 7.62358,67.8933 7.95691,67.56 8.5,67.5C 11.7036,66.0991 15.0369,65.0991 18.5,64.5 Z"></path></g>
<g><path style="opacity: 1" fill="#3a2b24" d="M 26.5,67.5 C 26.5,67.1667 26.5,66.8333 26.5,66.5C 27.9779,67.4475 28.9779,68.7809 29.5,70.5C 30.7079,71.2341 32.0413,71.5674 33.5,71.5C 33.3284,72.4916 33.6618,73.1583 34.5,73.5C 34.5,73.8333 34.5,74.1667 34.5,74.5C 34.5,75.1667 34.5,75.8333 34.5,76.5C 32.305,74.5756 29.9717,72.9089 27.5,71.5C 27.7678,69.901 27.4345,68.5676 26.5,67.5 Z"></path></g>
<g><path style="opacity: .667" fill="#b6a9ac" d="M 25.5,67.5 C 25.8333,67.5 26.1667,67.5 26.5,67.5C 27.4345,68.5676 27.7678,69.901 27.5,71.5C 26.6554,70.3285 25.9887,68.9952 25.5,67.5 Z"></path></g>
<g><path style="opacity: 1" fill="#481d03" d="M 44.5,66.5 C 44.8417,65.6618 45.5084,65.3284 46.5,65.5C 47.8195,66.9418 49.4862,67.6085 51.5,67.5C 51.5,68.1667 51.5,68.8333 51.5,69.5C 50.5,69.5 49.5,69.5 48.5,69.5C 47.7638,67.7706 46.4305,66.7706 44.5,66.5 Z"></path></g>
<g><path style="opacity: 1" fill="#d69b31" d="M 75.5,65.5 C 75.8333,65.5 76.1667,65.5 76.5,65.5C 76.5,66.1667 76.5,66.8333 76.5,67.5C 76.1667,68.1667 75.8333,68.8333 75.5,69.5C 74.2223,69.7822 73.2223,70.4489 72.5,71.5C 72.1667,71.5 71.8333,71.5 71.5,71.5C 71.6574,68.6824 72.9908,66.6824 75.5,65.5 Z"></path></g>
<g><path style="opacity: 1" fill="#4f1c0c" d="M 32.5,66.5 C 33.4959,66.4142 34.3292,66.7476 35,67.5C 35.6776,69.5976 35.5109,71.5976 34.5,73.5C 33.6618,73.1583 33.3284,72.4916 33.5,71.5C 33.3713,69.7839 33.038,68.1172 32.5,66.5 Z"></path></g>
<g><path style="opacity: .545" fill="#ddd7b6" d="M 94.5,66.5 C 97.1731,66.6845 97.8398,67.8511 96.5,70C 94.6092,70.2027 92.9425,69.7027 91.5,68.5C 92.8734,68.6567 94.2068,68.49 95.5,68C 94.944,67.6174 94.6107,67.1174 94.5,66.5 Z"></path></g>
<g><path style="opacity: 1" fill="#cc9046" d="M 44.5,66.5 C 46.4305,66.7706 47.7638,67.7706 48.5,69.5C 49.2778,70.1556 49.9444,70.9889 50.5,72C 50.1667,72.5 49.8333,73 49.5,73.5C 48.8182,72.7573 48.1515,72.0906 47.5,71.5C 44.3695,72.0922 42.0361,71.0922 40.5,68.5C 41.5832,68.5394 42.5832,68.8728 43.5,69.5C 44.3857,68.675 44.719,67.675 44.5,66.5 Z"></path></g>
<g><path style="opacity: 1" fill="#8c6756" d="M 57.5,54.5 C 57.5,55.5 57.5,56.5 57.5,57.5C 57.1832,61.7016 57.5166,65.7016 58.5,69.5C 58.8254,74.5988 58.3254,79.5988 57,84.5C 56.5017,81.1832 56.335,77.8499 56.5,74.5C 56.176,67.6457 56.5093,60.979 57.5,54.5 Z"></path></g>
<g><path style="opacity: 1" fill="#e9940a" d="M 70.5,65.5 C 72.1667,65.5 73.8333,65.5 75.5,65.5C 72.9908,66.6824 71.6574,68.6824 71.5,71.5C 70.8333,71.8333 70.1667,72.1667 69.5,72.5C 68.1667,72.5 66.8333,72.5 65.5,72.5C 64.596,71.791 64.2627,70.791 64.5,69.5C 66.3792,70.3414 68.3792,70.6747 70.5,70.5C 71.0715,68.64 71.0715,66.9733 70.5,65.5 Z"></path></g>
<g><path style="opacity: 1" fill="#c48d40" d="M 34.5,64.5 C 35.2362,66.2294 36.5695,67.2294 38.5,67.5C 38.5,67.8333 38.5,68.1667 38.5,68.5C 39.1112,70.7746 40.4446,72.4412 42.5,73.5C 40.8212,73.2852 39.8212,73.9519 39.5,75.5C 37.7085,75.634 36.0418,75.3007 34.5,74.5C 34.5,74.1667 34.5,73.8333 34.5,73.5C 35.5109,71.5976 35.6776,69.5976 35,67.5C 34.3292,66.7476 33.4959,66.4142 32.5,66.5C 32.8333,65.5 33.5,64.8333 34.5,64.5 Z"></path></g>
<g><path style="opacity: 1" fill="#521d02" d="M 38.5,68.5 C 39.1667,68.5 39.8333,68.5 40.5,68.5C 42.0361,71.0922 44.3695,72.0922 47.5,71.5C 47.6716,72.4916 47.3382,73.1583 46.5,73.5C 45.1667,73.5 43.8333,73.5 42.5,73.5C 40.4446,72.4412 39.1112,70.7746 38.5,68.5 Z"></path></g>
<g><path style="opacity: 1" fill="#e8950f" d="M 64.5,65.5 C 64.5,66.8333 64.5,68.1667 64.5,69.5C 64.2627,70.791 64.596,71.791 65.5,72.5C 64.6314,74.717 64.298,77.0504 64.5,79.5C 62.5977,76.6627 61.931,73.3293 62.5,69.5C 63.1667,68.1667 63.8333,66.8333 64.5,65.5 Z"></path></g>
<g><path style="opacity: .69" fill="#c5bb9d" d="M 23.5,75.5 C 21.9064,75.9195 20.4064,76.5862 19,77.5C 18.5,77.3333 18,77.1667 17.5,77C 18.3805,76.2917 19.0472,75.4584 19.5,74.5C 20.6354,72.7868 22.302,72.1201 24.5,72.5C 24.7373,73.791 24.404,74.791 23.5,75.5 Z"></path></g>
<g><path style="opacity: 1" fill="#bf884f" d="M 48.5,69.5 C 49.5,69.5 50.5,69.5 51.5,69.5C 51.5,71.8333 51.5,74.1667 51.5,76.5C 50.1667,76.5 48.8333,76.5 47.5,76.5C 47.4431,75.391 47.1098,74.391 46.5,73.5C 47.3382,73.1583 47.6716,72.4916 47.5,71.5C 48.1515,72.0906 48.8182,72.7573 49.5,73.5C 49.8333,73 50.1667,72.5 50.5,72C 49.9444,70.9889 49.2778,70.1556 48.5,69.5 Z"></path></g>
<g><path style="opacity: .941" fill="#62432e" d="M 72.5,72.5 C 72.5,73.5 72.5,74.5 72.5,75.5C 72.573,77.0269 71.9063,78.0269 70.5,78.5C 70.1583,77.6618 69.4916,77.3284 68.5,77.5C 69.604,75.6115 70.9373,73.9448 72.5,72.5 Z"></path></g>
<g><path style="opacity: .714" fill="#6b4e45" d="M 75.5,69.5 C 76.5,69.5 77.5,69.5 78.5,69.5C 76.8333,71.8333 74.8333,73.8333 72.5,75.5C 72.5,74.5 72.5,73.5 72.5,72.5C 72.5,72.1667 72.5,71.8333 72.5,71.5C 73.2223,70.4489 74.2223,69.7822 75.5,69.5 Z"></path></g>
<g><path style="opacity: 1" fill="#e39818" d="M 65.5,72.5 C 66.8333,72.5 68.1667,72.5 69.5,72.5C 68.032,73.7791 67.3653,75.4458 67.5,77.5C 66.8333,78.1667 66.1667,78.8333 65.5,79.5C 65.1667,79.5 64.8333,79.5 64.5,79.5C 64.298,77.0504 64.6314,74.717 65.5,72.5 Z"></path></g>
<g><path style="opacity: 1" fill="#ce983b" d="M 71.5,71.5 C 71.8333,71.5 72.1667,71.5 72.5,71.5C 72.5,71.8333 72.5,72.1667 72.5,72.5C 70.9373,73.9448 69.604,75.6115 68.5,77.5C 68.1667,77.5 67.8333,77.5 67.5,77.5C 67.3653,75.4458 68.032,73.7791 69.5,72.5C 70.1667,72.1667 70.8333,71.8333 71.5,71.5 Z"></path></g>
<g><path style="opacity: .984" fill="#c9bf94" d="M 82.5,72.5 C 84.0938,73.983 85.7605,75.483 87.5,77C 86.2068,77.49 84.8734,77.6567 83.5,77.5C 81.5159,77.516 80.5159,76.516 80.5,74.5C 80.7472,73.2867 81.4138,72.62 82.5,72.5 Z"></path></g>
<g><path style="opacity: 1" fill="#d49333" d="M 42.5,73.5 C 43.8333,73.5 45.1667,73.5 46.5,73.5C 47.1098,74.391 47.4431,75.391 47.5,76.5C 46.8333,76.8333 46.1667,77.1667 45.5,77.5C 45.1575,75.7748 44.1575,75.2748 42.5,76C 41.0267,76.7096 40.3601,77.8762 40.5,79.5C 39.6618,79.1583 39.3284,78.4916 39.5,77.5C 39.5,76.8333 39.5,76.1667 39.5,75.5C 39.8212,73.9519 40.8212,73.2852 42.5,73.5 Z"></path></g>
<g><path style="opacity: 1" fill="#e19422" d="M 62.5,69.5 C 61.931,73.3293 62.5977,76.6627 64.5,79.5C 64.8333,79.5 65.1667,79.5 65.5,79.5C 65.5,79.8333 65.5,80.1667 65.5,80.5C 64.1667,80.5 62.8333,80.5 61.5,80.5C 61.185,76.6286 61.5184,72.9619 62.5,69.5 Z"></path></g>
<g><path style="opacity: 1" fill="#301606" d="M 58.5,67.5 C 59.4345,68.5676 59.7678,69.901 59.5,71.5C 59.5,75.5 59.5,79.5 59.5,83.5C 61.8333,83.5 64.1667,83.5 66.5,83.5C 65.8333,84.1667 65.1667,84.8333 64.5,85.5C 62.5,85.5 60.5,85.5 58.5,85.5C 57.5,85.5 56.5,85.5 55.5,85.5C 55.5,81.8333 55.5,78.1667 55.5,74.5C 55.8333,74.5 56.1667,74.5 56.5,74.5C 56.335,77.8499 56.5017,81.1832 57,84.5C 58.3254,79.5988 58.8254,74.5988 58.5,69.5C 58.5,68.8333 58.5,68.1667 58.5,67.5 Z"></path></g>
<g><path style="opacity: 1" fill="#d6983c" d="M 62.5,64.5 C 62.5,66.1667 62.5,67.8333 62.5,69.5C 61.5184,72.9619 61.185,76.6286 61.5,80.5C 62.8333,80.5 64.1667,80.5 65.5,80.5C 64.4479,82.256 62.7812,82.9227 60.5,82.5C 60.5,78.8333 60.5,75.1667 60.5,71.5C 60.5,70.1667 60.5,68.8333 60.5,67.5C 61.1667,66.5 61.8333,65.5 62.5,64.5 Z"></path></g>
<g><path style="opacity: 1" fill="#d9992b" d="M 45.5,77.5 C 45.2671,79.0618 44.6005,80.3951 43.5,81.5C 41.8212,81.7148 40.8212,81.0481 40.5,79.5C 40.3601,77.8762 41.0267,76.7096 42.5,76C 44.1575,75.2748 45.1575,75.7748 45.5,77.5 Z"></path></g>
<g><path style="opacity: .902" fill="#dcd8b8" d="M 82.5,72.5 C 86.8696,73.5362 89.5363,76.2029 90.5,80.5C 87.7594,80.2927 85.4261,79.2927 83.5,77.5C 84.8734,77.6567 86.2068,77.49 87.5,77C 85.7605,75.483 84.0938,73.983 82.5,72.5 Z"></path></g>
<g><path style="opacity: .251" fill="#e5dac0" d="M 19.5,74.5 C 19.0472,75.4584 18.3805,76.2917 17.5,77C 18,77.1667 18.5,77.3333 19,77.5C 20.4064,76.5862 21.9064,75.9195 23.5,75.5C 23.5858,76.4959 23.2524,77.3292 22.5,78C 20.3853,78.5573 18.3853,79.3906 16.5,80.5C 15.5,80.1667 14.8333,79.5 14.5,78.5C 15.6046,76.3886 17.2712,75.0553 19.5,74.5 Z"></path></g>
<g><path style="opacity: 1" fill="#56260e" d="M 47.5,76.5 C 48.8333,76.5 50.1667,76.5 51.5,76.5C 51.5,77.1667 51.5,77.8333 51.5,78.5C 47.0917,78.062 45.4251,80.062 46.5,84.5C 45.609,83.8902 44.609,83.5569 43.5,83.5C 43.5,82.8333 43.5,82.1667 43.5,81.5C 44.6005,80.3951 45.2671,79.0618 45.5,77.5C 46.1667,77.1667 46.8333,76.8333 47.5,76.5 Z"></path></g>
<g><path style="opacity: .976" fill="#2e1f16" d="M 34.5,74.5 C 36.0418,75.3007 37.7085,75.634 39.5,75.5C 39.5,76.1667 39.5,76.8333 39.5,77.5C 38.1919,79.6381 38.5252,81.6381 40.5,83.5C 40.8333,84.1667 41.1667,84.8333 41.5,85.5C 39.9976,87.8293 40.6643,89.1627 43.5,89.5C 43.5,89.8333 43.5,90.1667 43.5,90.5C 43.5,91.1667 43.8333,91.5 44.5,91.5C 44.5,92.1667 44.5,92.8333 44.5,93.5C 42.901,93.2322 41.5676,93.5655 40.5,94.5C 39.8333,94.5 39.5,94.1667 39.5,93.5C 40.8146,92.1054 40.4812,91.1054 38.5,90.5C 38.3573,88.7376 38.6906,87.0709 39.5,85.5C 38.2064,83.1195 37.2064,80.6195 36.5,78C 36.1639,76.9701 35.4972,76.4701 34.5,76.5C 34.5,75.8333 34.5,75.1667 34.5,74.5 Z"></path></g>
<g><path style="opacity: 1" fill="#c0985c" d="M 39.5,77.5 C 39.3284,78.4916 39.6618,79.1583 40.5,79.5C 40.8212,81.0481 41.8212,81.7148 43.5,81.5C 43.5,82.1667 43.5,82.8333 43.5,83.5C 42.5,83.5 41.5,83.5 40.5,83.5C 38.5252,81.6381 38.1919,79.6381 39.5,77.5 Z"></path></g>
<g><path style="opacity: 1" fill="#af8348" d="M 59.5,71.5 C 59.8333,71.5 60.1667,71.5 60.5,71.5C 60.5,75.1667 60.5,78.8333 60.5,82.5C 62.7812,82.9227 64.4479,82.256 65.5,80.5C 65.5,80.1667 65.5,79.8333 65.5,79.5C 66.1667,78.8333 66.8333,78.1667 67.5,77.5C 67.8333,77.5 68.1667,77.5 68.5,77.5C 67.2702,79.2972 66.6036,81.2972 66.5,83.5C 64.1667,83.5 61.8333,83.5 59.5,83.5C 59.5,79.5 59.5,75.5 59.5,71.5 Z"></path></g>
<g><path style="opacity: .025" fill="#ded9d7" d="M 34.5,76.5 C 35.4972,76.4701 36.1639,76.9701 36.5,78C 37.2064,80.6195 38.2064,83.1195 39.5,85.5C 38.6906,87.0709 38.3573,88.7376 38.5,90.5C 37.8084,85.7473 36.475,81.0806 34.5,76.5 Z"></path></g>
<g><path style="opacity: 1" fill="#c2965a" d="M 51.5,78.5 C 51.5,80.5 51.5,82.5 51.5,84.5C 49.8333,84.5 48.1667,84.5 46.5,84.5C 45.4251,80.062 47.0917,78.062 51.5,78.5 Z"></path></g>
<g><path style="opacity: 1" fill="#3f230e" d="M 54.5,54.5 C 55.4907,60.979 55.824,67.6457 55.5,74.5C 55.5,78.1667 55.5,81.8333 55.5,85.5C 56.5,85.5 57.5,85.5 58.5,85.5C 58.5,85.8333 58.5,86.1667 58.5,86.5C 56.8333,86.5 55.1667,86.5 53.5,86.5C 52.5,86.5 51.5,86.5 50.5,86.5C 50.8333,85.8333 51.1667,85.1667 51.5,84.5C 51.5,82.5 51.5,80.5 51.5,78.5C 51.5,77.8333 51.5,77.1667 51.5,76.5C 51.5,74.1667 51.5,71.8333 51.5,69.5C 52.1667,74.5 52.8333,79.5 53.5,84.5C 54.494,74.6806 54.8274,64.6806 54.5,54.5 Z"></path></g>
<g><path style="opacity: 1" fill="#44210c" d="M 40.5,83.5 C 41.5,83.5 42.5,83.5 43.5,83.5C 44.609,83.5569 45.609,83.8902 46.5,84.5C 48.1667,84.5 49.8333,84.5 51.5,84.5C 51.1667,85.1667 50.8333,85.8333 50.5,86.5C 47.4299,86.6323 44.4299,86.299 41.5,85.5C 41.1667,84.8333 40.8333,84.1667 40.5,83.5 Z"></path></g>
<g><path style="opacity: 1" fill="#c3985b" d="M 53.5,87.5 C 53.5,87.1667 53.5,86.8333 53.5,86.5C 55.1667,86.5 56.8333,86.5 58.5,86.5C 60.7957,86.8041 61.129,87.8041 59.5,89.5C 58.8333,89.5 58.1667,89.5 57.5,89.5C 56.8166,87.8235 55.4832,87.1568 53.5,87.5 Z"></path></g>
<g><path style="opacity: .984" fill="#574e4c" d="M 68.5,77.5 C 69.4916,77.3284 70.1583,77.6618 70.5,78.5C 68.1797,85.7395 67.1797,93.0728 67.5,100.5C 66.8333,99.5 66.1667,98.5 65.5,97.5C 66.0838,94.715 65.0838,93.0483 62.5,92.5C 61.8333,92.5 61.5,92.1667 61.5,91.5C 63.2191,90.9779 64.5525,89.9779 65.5,88.5C 65.7373,87.209 65.404,86.209 64.5,85.5C 65.1667,84.8333 65.8333,84.1667 66.5,83.5C 66.6036,81.2972 67.2702,79.2972 68.5,77.5 Z"></path></g>
<g><path style="opacity: 1" fill="#bb9469" d="M 41.5,85.5 C 44.4299,86.299 47.4299,86.6323 50.5,86.5C 51.5,86.5 52.5,86.5 53.5,86.5C 53.5,86.8333 53.5,87.1667 53.5,87.5C 49.8215,87.0604 46.4882,87.727 43.5,89.5C 40.6643,89.1627 39.9976,87.8293 41.5,85.5 Z"></path></g>
<g><path style="opacity: 1" fill="#c79044" d="M 53.5,87.5 C 55.4832,87.1568 56.8166,87.8235 57.5,89.5C 53.03,90.4861 48.3633,90.8195 43.5,90.5C 43.5,90.1667 43.5,89.8333 43.5,89.5C 46.4882,87.727 49.8215,87.0604 53.5,87.5 Z"></path></g>
<g><path style="opacity: 1" fill="#7f6a3c" d="M 58.5,86.5 C 58.5,86.1667 58.5,85.8333 58.5,85.5C 60.5,85.5 62.5,85.5 64.5,85.5C 65.404,86.209 65.7373,87.209 65.5,88.5C 63.5648,89.1495 61.5648,89.4828 59.5,89.5C 61.129,87.8041 60.7957,86.8041 58.5,86.5 Z"></path></g>
<g><path style="opacity: 1" fill="#624823" d="M 65.5,88.5 C 64.5525,89.9779 63.2191,90.9779 61.5,91.5C 59.5,91.5 57.5,91.5 55.5,91.5C 51.8333,91.5 48.1667,91.5 44.5,91.5C 43.8333,91.5 43.5,91.1667 43.5,90.5C 48.3633,90.8195 53.03,90.4861 57.5,89.5C 58.1667,89.5 58.8333,89.5 59.5,89.5C 61.5648,89.4828 63.5648,89.1495 65.5,88.5 Z"></path></g>
<g><path style="opacity: .114" fill="#e2e3e3" d="M 38.5,90.5 C 40.4812,91.1054 40.8146,92.1054 39.5,93.5C 39.1667,93.5 38.8333,93.5 38.5,93.5C 38.5,92.5 38.5,91.5 38.5,90.5 Z"></path></g>
<g><path style="opacity: 1" fill="#2c1100" d="M 44.5,91.5 C 48.1667,91.5 51.8333,91.5 55.5,91.5C 55.1667,92.1667 54.8333,92.8333 54.5,93.5C 52.1667,93.5 49.8333,93.5 47.5,93.5C 46.5,93.5 45.5,93.5 44.5,93.5C 44.5,92.8333 44.5,92.1667 44.5,91.5 Z"></path></g>
<g><path style="opacity: 1" fill="#2e0f01" d="M 55.5,91.5 C 57.5,91.5 59.5,91.5 61.5,91.5C 61.5,92.1667 61.8333,92.5 62.5,92.5C 60.0521,93.4731 57.3854,93.8064 54.5,93.5C 54.8333,92.8333 55.1667,92.1667 55.5,91.5 Z"></path></g>
<g><path style="opacity: 1" fill="#c59850" d="M 49.5,94.5 C 53.1817,94.3347 56.8484,94.5014 60.5,95C 59.7476,95.6708 59.4142,96.5041 59.5,97.5C 58.8333,97.5 58.1667,97.5 57.5,97.5C 55.1667,97.5 52.8333,97.5 50.5,97.5C 52.9686,96.6829 55.6353,96.1829 58.5,96C 55.3054,95.8195 52.3054,95.3195 49.5,94.5 Z"></path></g>
<g><path style="opacity: 1" fill="#cca474" d="M 44.5,93.5 C 45.5,93.5 46.5,93.5 47.5,93.5C 47.5,93.8333 47.5,94.1667 47.5,94.5C 47.0269,95.9063 46.0269,96.573 44.5,96.5C 43.1667,96.5 41.8333,96.5 40.5,96.5C 40.5,95.8333 40.5,95.1667 40.5,94.5C 41.5676,93.5655 42.901,93.2322 44.5,93.5 Z"></path></g>
<g><path style="opacity: 1" fill="#ca9346" d="M 47.5,94.5 C 48.1667,94.5 48.8333,94.5 49.5,94.5C 52.3054,95.3195 55.3054,95.8195 58.5,96C 55.6353,96.1829 52.9686,96.6829 50.5,97.5C 48.2646,97.7947 46.2646,97.4614 44.5,96.5C 46.0269,96.573 47.0269,95.9063 47.5,94.5 Z"></path></g>
<g><path style="opacity: 1" fill="#836b3f" d="M 62.5,92.5 C 65.0838,93.0483 66.0838,94.715 65.5,97.5C 65.1667,97.5 64.8333,97.5 64.5,97.5C 62.8333,97.5 61.1667,97.5 59.5,97.5C 59.4142,96.5041 59.7476,95.6708 60.5,95C 56.8484,94.5014 53.1817,94.3347 49.5,94.5C 48.8333,94.5 48.1667,94.5 47.5,94.5C 47.5,94.1667 47.5,93.8333 47.5,93.5C 49.8333,93.5 52.1667,93.5 54.5,93.5C 57.3854,93.8064 60.0521,93.4731 62.5,92.5 Z"></path></g>
<g><path style="opacity: .298" fill="#cac8c9" d="M 38.5,94.5 C 39.6227,96.9787 39.6227,99.312 38.5,101.5C 37.8968,98.9591 37.8968,96.6257 38.5,94.5 Z"></path></g>
<g><path style="opacity: 1" fill="#7e5d32" d="M 40.5,96.5 C 41.8333,96.5 43.1667,96.5 44.5,96.5C 46.2646,97.4614 48.2646,97.7947 50.5,97.5C 52.8333,97.5 55.1667,97.5 57.5,97.5C 57.5,97.8333 57.5,98.1667 57.5,98.5C 56.8333,98.5 56.1667,98.5 55.5,98.5C 50.737,98.7744 46.0704,98.441 41.5,97.5C 40.8333,97.5 40.5,97.1667 40.5,96.5 Z"></path></g>
<g><path style="opacity: 1" fill="#52504a" d="M 38.5,93.5 C 38.8333,93.5 39.1667,93.5 39.5,93.5C 39.5,94.1667 39.8333,94.5 40.5,94.5C 40.5,95.1667 40.5,95.8333 40.5,96.5C 40.5,97.1667 40.8333,97.5 41.5,97.5C 41.5,98.5 41.5,99.5 41.5,100.5C 40.8902,101.391 40.5569,102.391 40.5,103.5C 40.5,103.833 40.5,104.167 40.5,104.5C 41.0998,105.9 42.0998,106.9 43.5,107.5C 40.2337,108.325 38.2337,106.825 37.5,103C 37.5699,102.235 37.9033,101.735 38.5,101.5C 39.6227,99.312 39.6227,96.9787 38.5,94.5C 38.5,94.1667 38.5,93.8333 38.5,93.5 Z"></path></g>
<g><path style="opacity: 1" fill="#3d1c07" d="M 55.5,99.5 C 55.5,99.1667 55.5,98.8333 55.5,98.5C 56.1667,98.5 56.8333,98.5 57.5,98.5C 59.153,98.6596 60.4863,99.3263 61.5,100.5C 60.209,100.263 59.209,100.596 58.5,101.5C 57.1667,101.5 55.8333,101.5 54.5,101.5C 53.8333,101.5 53.1667,101.5 52.5,101.5C 54.246,100.999 55.246,100.332 55.5,99.5 Z"></path></g>
<g><path style="opacity: 1" fill="#3f2011" d="M 57.5,98.5 C 57.5,98.1667 57.5,97.8333 57.5,97.5C 58.1667,97.5 58.8333,97.5 59.5,97.5C 61.1667,97.5 62.8333,97.5 64.5,97.5C 64.0825,98.2216 63.4158,98.7216 62.5,99C 63.4158,99.2784 64.0825,99.7784 64.5,100.5C 63.5,100.5 62.5,100.5 61.5,100.5C 60.4863,99.3263 59.153,98.6596 57.5,98.5 Z"></path></g>
<g><path style="opacity: 1" fill="#40352d" d="M 64.5,97.5 C 64.8333,97.5 65.1667,97.5 65.5,97.5C 66.1667,98.5 66.8333,99.5 67.5,100.5C 68.9869,102.842 68.6536,104.842 66.5,106.5C 66.7373,105.209 66.404,104.209 65.5,103.5C 65.7373,102.209 65.404,101.209 64.5,100.5C 64.0825,99.7784 63.4158,99.2784 62.5,99C 63.4158,98.7216 64.0825,98.2216 64.5,97.5 Z"></path></g>
<g><path style="opacity: 1" fill="#331d06" d="M 41.5,97.5 C 46.0704,98.441 50.737,98.7744 55.5,98.5C 55.5,98.8333 55.5,99.1667 55.5,99.5C 52.4816,99.3354 49.4816,99.502 46.5,100C 47.7375,100.232 48.7375,100.732 49.5,101.5C 48.1667,101.5 46.8333,101.5 45.5,101.5C 44.4324,100.566 43.099,100.232 41.5,100.5C 41.5,99.5 41.5,98.5 41.5,97.5 Z"></path></g>
<g><path style="opacity: 1" fill="#2a1000" d="M 55.5,99.5 C 55.246,100.332 54.246,100.999 52.5,101.5C 51.5,101.5 50.5,101.5 49.5,101.5C 48.7375,100.732 47.7375,100.232 46.5,100C 49.4816,99.502 52.4816,99.3354 55.5,99.5 Z"></path></g>
<g><path style="opacity: 1" fill="#c9965b" d="M 45.5,101.5 C 46.8333,101.5 48.1667,101.5 49.5,101.5C 50.5,101.5 51.5,101.5 52.5,101.5C 53.1667,101.5 53.8333,101.5 54.5,101.5C 54.5,101.833 54.5,102.167 54.5,102.5C 51.3019,101.964 48.6353,102.631 46.5,104.5C 45.8333,104.5 45.1667,104.5 44.5,104.5C 44.5569,103.391 44.8902,102.391 45.5,101.5 Z"></path></g>
<g><path style="opacity: 1" fill="#c0a682" d="M 41.5,100.5 C 43.099,100.232 44.4324,100.566 45.5,101.5C 44.8902,102.391 44.5569,103.391 44.5,104.5C 43.1667,104.167 41.8333,103.833 40.5,103.5C 40.5569,102.391 40.8902,101.391 41.5,100.5 Z"></path></g>
<g><path style="opacity: 1" fill="#cc9c45" d="M 54.5,102.5 C 54.5,102.167 54.5,101.833 54.5,101.5C 55.8333,101.5 57.1667,101.5 58.5,101.5C 63.2745,101.67 63.6078,102.67 59.5,104.5C 58.5,104.5 57.5,104.5 56.5,104.5C 56.1667,103.5 55.5,102.833 54.5,102.5 Z"></path></g>
<g><path style="opacity: 1" fill="#cf974b" d="M 54.5,102.5 C 55.5,102.833 56.1667,103.5 56.5,104.5C 53.1667,104.5 49.8333,104.5 46.5,104.5C 48.6353,102.631 51.3019,101.964 54.5,102.5 Z"></path></g>
<g><path style="opacity: 1" fill="#ab8958" d="M 58.5,101.5 C 59.209,100.596 60.209,100.263 61.5,100.5C 62.5,100.5 63.5,100.5 64.5,100.5C 65.404,101.209 65.7373,102.209 65.5,103.5C 63.5648,104.15 61.5648,104.483 59.5,104.5C 63.6078,102.67 63.2745,101.67 58.5,101.5 Z"></path></g>
<g><path style="opacity: 1" fill="#7f5e30" d="M 40.5,104.5 C 40.5,104.167 40.5,103.833 40.5,103.5C 41.8333,103.833 43.1667,104.167 44.5,104.5C 45.1667,104.5 45.8333,104.5 46.5,104.5C 49.8333,104.5 53.1667,104.5 56.5,104.5C 57.5,104.5 58.5,104.5 59.5,104.5C 61.5648,104.483 63.5648,104.15 65.5,103.5C 65.3893,104.117 65.056,104.617 64.5,105C 61.9644,105.186 59.631,105.686 57.5,106.5C 51.6898,106.686 46.0231,106.02 40.5,104.5 Z"></path></g>
<g><path style="opacity: .859" fill="#271712" d="M 65.5,103.5 C 66.404,104.209 66.7373,105.209 66.5,106.5C 64.5,106.5 62.5,106.5 60.5,106.5C 59.5,106.5 58.5,106.5 57.5,106.5C 59.631,105.686 61.9644,105.186 64.5,105C 65.056,104.617 65.3893,104.117 65.5,103.5 Z"></path></g>
<g><path style="opacity: 1" fill="#1c150d" d="M 40.5,104.5 C 46.0231,106.02 51.6898,106.686 57.5,106.5C 58.5,106.5 59.5,106.5 60.5,106.5C 60.5,106.833 60.5,107.167 60.5,107.5C 59.8333,107.5 59.1667,107.5 58.5,107.5C 53.8333,107.5 49.1667,107.5 44.5,107.5C 44.1667,107.5 43.8333,107.5 43.5,107.5C 42.0998,106.9 41.0998,105.9 40.5,104.5 Z"></path></g>
<g><path style="opacity: 1" fill="#0b1331" d="M 58.5,107.5 C 59.1667,107.5 59.8333,107.5 60.5,107.5C 59.467,109.085 58.1336,110.419 56.5,111.5C 54.5,111.5 52.5,111.5 50.5,111.5C 50.5,110.5 50.5,109.5 50.5,108.5C 53.3854,108.806 56.0521,108.473 58.5,107.5 Z"></path></g>
<g><path style="opacity: 1" fill="#1e2337" d="M 44.5,107.5 C 49.1667,107.5 53.8333,107.5 58.5,107.5C 56.0521,108.473 53.3854,108.806 50.5,108.5C 50.5,109.5 50.5,110.5 50.5,111.5C 52.5,111.5 54.5,111.5 56.5,111.5C 56.5,111.833 56.5,112.167 56.5,112.5C 53.4816,112.665 50.4816,112.498 47.5,112C 45.5614,111.092 44.5614,109.592 44.5,107.5 Z"></path></g>
<g><path style="opacity: .959" fill="#575a69" d="M 60.5,106.5 C 62.5,106.5 64.5,106.5 66.5,106.5C 65.4797,107.954 64.313,108.287 63,107.5C 61.8088,110.534 59.6421,112.201 56.5,112.5C 56.5,112.167 56.5,111.833 56.5,111.5C 58.1336,110.419 59.467,109.085 60.5,107.5C 60.5,107.167 60.5,106.833 60.5,106.5 Z"></path></g>
</svg>
