<?xml version="1.0" encoding="UTF-8"?>
<!DOCTYPE svg PUBLIC "-//W3C//DTD SVG 1.1//EN" "http://www.w3.org/Graphics/SVG/1.1/DTD/svg11.dtd">
<svg xmlns="http://www.w3.org/2000/svg" version="1.1" width="169px" height="72px" style="shape-rendering: geometricprecision; text-rendering: geometricprecision; image-rendering: optimizequality; fill-rule: evenodd; clip-rule: evenodd" xmlns:xlink="http://www.w3.org/1999/xlink">
<g><path style="opacity: 1" fill="#f9fafb" d="M -0.5,-0.5 C 55.8333,-0.5 112.167,-0.5 168.5,-0.5C 168.5,23.5 168.5,47.5 168.5,71.5C 112.167,71.5 55.8333,71.5 -0.5,71.5C -0.5,47.5 -0.5,23.5 -0.5,-0.5 Z"></path></g>
<g><path style="opacity: 1" fill="#f1fcfa" d="M 155.5,17.5 C 156.167,17.5 156.5,17.8333 156.5,18.5C 159.156,23.7788 159.156,29.1121 156.5,34.5C 155.022,34.762 153.689,34.4287 152.5,33.5C 153.325,32.6143 154.325,32.281 155.5,32.5C 156.08,28.351 155.414,24.6843 153.5,21.5C 152.5,21.5 151.5,21.5 150.5,21.5C 150.5,24.8333 150.5,28.1667 150.5,31.5C 150.5,33.1667 150.5,34.8333 150.5,36.5C 150.5,38.5 150.5,40.5 150.5,42.5C 149.167,42.5 147.833,42.5 146.5,42.5C 146.5,34.1667 146.5,25.8333 146.5,17.5C 149.5,17.5 152.5,17.5 155.5,17.5 Z"></path></g>
<g><path style="opacity: 1" fill="#8bc3e1" d="M 7.5,34.5 C 9.09903,34.2322 10.4324,34.5655 11.5,35.5C 10.1667,35.5 8.83333,35.5 7.5,35.5C 7.5,36.8333 7.5,38.1667 7.5,39.5C 6.16667,37.8333 6.16667,36.1667 7.5,34.5 Z"></path></g>
<g><path style="opacity: 1" fill="#2274bd" d="M 73.5,17.5 C 74.3019,18.9516 74.8019,20.6183 75,22.5C 75.8928,21.2888 76.7261,21.2888 77.5,22.5C 75.2128,26.6527 75.0461,30.9861 77,35.5C 77.6667,36.8333 78.3333,36.8333 79,35.5C 79.9888,33.0302 81.1554,30.6968 82.5,28.5C 83.1667,28.8333 83.8333,29.1667 84.5,29.5C 85.8717,30.5116 87.205,31.5116 88.5,32.5C 88.6716,33.4916 88.3382,34.1583 87.5,34.5C 85.8333,34.5 84.1667,34.5 82.5,34.5C 82.2155,36.4147 82.5489,38.0813 83.5,39.5C 87.4934,44.7298 91.6601,44.7298 96,39.5C 97.1176,35.0767 95.9509,31.41 92.5,28.5C 93.0998,27.1001 94.0998,26.1001 95.5,25.5C 96.8333,24.1667 96.8333,22.8333 95.5,21.5C 95.2671,19.9382 94.6005,18.6049 93.5,17.5C 95.9975,17.7268 97.6641,19.0602 98.5,21.5C 99.1719,20.0508 99.8386,18.7175 100.5,17.5C 100.5,24.8333 100.5,32.1667 100.5,39.5C 98.0947,40.6871 95.7613,42.1871 93.5,44C 89.9013,44.9566 86.568,44.4566 83.5,42.5C 81.6242,44.3061 79.4576,45.6394 77,46.5C 73.7627,45.293 70.596,44.293 67.5,43.5C 71.7016,43.8168 75.7016,43.4834 79.5,42.5C 79.5,41.1667 79.5,39.8333 79.5,38.5C 77.7354,37.5386 75.7354,37.2053 73.5,37.5C 73.5,30.8333 73.5,24.1667 73.5,17.5 Z"></path></g>
<g><path style="opacity: 1" fill="#2e74ae" d="M 9.5,30.5 C 13.4383,31.765 15.4383,34.4316 15.5,38.5C 13.0274,38.9118 11.6941,37.9118 11.5,35.5C 10.4324,34.5655 9.09903,34.2322 7.5,34.5C 8.60853,33.71 9.94186,33.21 11.5,33C 10.244,32.5831 9.57735,31.7498 9.5,30.5 Z"></path></g>
<g><path style="opacity: 1" fill="#94c3da" d="M 67.5,17.5 C 67.8333,17.5 68.1667,17.5 68.5,17.5C 68.5,25.8333 68.5,34.1667 68.5,42.5C 72.1667,42.5 75.8333,42.5 79.5,42.5C 75.7016,43.4834 71.7016,43.8168 67.5,43.5C 67.5,34.8333 67.5,26.1667 67.5,17.5 Z"></path></g>
<g><path style="opacity: 1" fill="#9acae1" d="M 155.5,16.5 C 155.5,16.8333 155.5,17.1667 155.5,17.5C 152.5,17.5 149.5,17.5 146.5,17.5C 146.5,25.8333 146.5,34.1667 146.5,42.5C 147.833,42.5 149.167,42.5 150.5,42.5C 150.5,42.8333 150.5,43.1667 150.5,43.5C 148.833,43.5 147.167,43.5 145.5,43.5C 145.5,36.8333 145.5,30.1667 145.5,23.5C 145.5,21.1667 145.5,18.8333 145.5,16.5C 148.833,16.5 152.167,16.5 155.5,16.5 Z"></path></g>
<g><path style="opacity: 1" fill="#a4d0e0" d="M 42.5,17.5 C 42.8333,17.5 43.1667,17.5 43.5,17.5C 43.5,25.8333 43.5,34.1667 43.5,42.5C 44.8333,42.5 46.1667,42.5 47.5,42.5C 45.8333,43.8333 44.1667,43.8333 42.5,42.5C 42.5,34.1667 42.5,25.8333 42.5,17.5 Z"></path></g>
<g><path style="opacity: 1" fill="#407eaa" d="M 153.5,21.5 C 153.5,21.8333 153.5,22.1667 153.5,22.5C 154.477,25.2869 154.81,28.2869 154.5,31.5C 153.167,31.5 151.833,31.5 150.5,31.5C 150.5,28.1667 150.5,24.8333 150.5,21.5C 151.5,21.5 152.5,21.5 153.5,21.5 Z"></path></g>
<g><path style="opacity: 1" fill="#136cb6" d="M 153.5,22.5 C 153.808,24.924 153.474,27.2573 152.5,29.5C 152.167,28.3333 151.833,27.1667 151.5,26C 151.608,24.3189 152.275,23.1522 153.5,22.5 Z"></path></g>
<g><path style="opacity: 1" fill="#eefcfd" d="M 43.5,17.5 C 44.8333,17.5 46.1667,17.5 47.5,17.5C 47.5,25.8333 47.5,34.1667 47.5,42.5C 46.1667,42.5 44.8333,42.5 43.5,42.5C 43.5,34.1667 43.5,25.8333 43.5,17.5 Z"></path></g>
<g><path style="opacity: 1" fill="#2473b2" d="M 38.5,16.5 C 39.8333,16.5 41.1667,16.5 42.5,16.5C 42.5,16.8333 42.5,17.1667 42.5,17.5C 42.5,25.8333 42.5,34.1667 42.5,42.5C 41.8334,36.3208 41.1668,29.9875 40.5,23.5C 39.9432,25.3316 38.9432,26.6649 37.5,27.5C 37.5,26.8333 37.5,26.1667 37.5,25.5C 38.4767,22.7131 38.81,19.7131 38.5,16.5 Z"></path></g>
<g><path style="opacity: 1" fill="#4587b4" d="M 155.5,17.5 C 155.5,17.1667 155.5,16.8333 155.5,16.5C 159.328,17.2068 160.995,19.5401 160.5,23.5C 160.806,26.3854 160.473,29.0521 159.5,31.5C 159.665,27.8183 159.499,24.1516 159,20.5C 158.292,19.6195 157.458,18.9528 156.5,18.5C 156.5,17.8333 156.167,17.5 155.5,17.5 Z"></path></g>
<g><path style="opacity: 1" fill="#d0edf3" d="M 156.5,18.5 C 157.458,18.9528 158.292,19.6195 159,20.5C 159.499,24.1516 159.665,27.8183 159.5,31.5C 158.699,34.5717 156.699,36.2384 153.5,36.5C 152.5,36.5 151.5,36.5 150.5,36.5C 150.5,34.8333 150.5,33.1667 150.5,31.5C 151.833,31.5 153.167,31.5 154.5,31.5C 154.81,28.2869 154.477,25.2869 153.5,22.5C 153.5,22.1667 153.5,21.8333 153.5,21.5C 155.414,24.6843 156.08,28.351 155.5,32.5C 154.325,32.281 153.325,32.6143 152.5,33.5C 153.689,34.4287 155.022,34.762 156.5,34.5C 159.156,29.1121 159.156,23.7788 156.5,18.5 Z"></path></g>
<g><path style="opacity: 1" fill="#e4f7f8" d="M 100.5,17.5 C 101.833,17.5 103.167,17.5 104.5,17.5C 104.176,24.3543 104.509,31.021 105.5,37.5C 106.5,38.8333 107.5,38.8333 108.5,37.5C 109.491,31.021 109.824,24.3543 109.5,17.5C 110.833,17.5 112.167,17.5 113.5,17.5C 113.176,24.3543 113.509,31.021 114.5,37.5C 115.542,38.7911 116.708,38.7911 118,37.5C 118.5,30.8417 118.666,24.175 118.5,17.5C 120.167,17.5 121.833,17.5 123.5,17.5C 123.5,24.8333 123.5,32.1667 123.5,39.5C 122.5,39.8333 121.833,40.5 121.5,41.5C 118.127,44.0476 114.793,44.0476 111.5,41.5C 107.04,44.5915 103.374,43.9248 100.5,39.5C 100.5,32.1667 100.5,24.8333 100.5,17.5 Z"></path></g>
<g><path style="opacity: 1" fill="#3277ad" d="M 15.5,24.5 C 16.9187,25.4511 18.5853,25.7845 20.5,25.5C 19.6016,26.1577 18.6016,26.8243 17.5,27.5C 18.1272,28.4168 18.4606,29.4168 18.5,30.5C 14.241,28.9172 11.9077,25.9172 11.5,21.5C 12.8333,21.5 14.1667,21.5 15.5,21.5C 15.5,22.5 15.5,23.5 15.5,24.5 Z"></path></g>
<g><path style="opacity: 1" fill="#2d76bf" d="M 159.5,7.5 C 157.523,6.85053 155.69,6.85053 154,7.5C 152.941,7.36992 152.108,6.86992 151.5,6C 128.833,5.83333 106.167,5.66667 83.5,5.5C 60.3524,5.51014 37.3524,6.1768 14.5,7.5C 11.1521,4.5871 8.81874,5.25377 7.5,9.5C 8.82144,11.3318 9.82144,13.3318 10.5,15.5C 12.4147,15.2155 14.0813,15.5489 15.5,16.5C 10.008,15.7366 7.00795,18.0699 6.5,23.5C 6.93009,26.138 7.93009,28.4713 9.5,30.5C 9.57735,31.7498 10.244,32.5831 11.5,33C 9.94186,33.21 8.60853,33.71 7.5,34.5C 6.16667,36.1667 6.16667,37.8333 7.5,39.5C 8.16667,40.5 8.83333,41.5 9.5,42.5C 8.41683,42.4606 7.41683,42.1272 6.5,41.5C 4.97412,44.6538 4.30746,47.9872 4.5,51.5C 4.16667,51.5 3.83333,51.5 3.5,51.5C 3.29142,50.0783 2.79142,48.745 2,47.5C 1.33333,36.1667 1.33333,24.8333 2,13.5C 3.77857,9.38817 6.6119,6.22151 10.5,4C 58.1667,3.33333 105.833,3.33333 153.5,4C 156.025,4.42381 158.025,5.59047 159.5,7.5 Z"></path></g>
<g><path style="opacity: 1" fill="#1770b9" d="M 159.5,7.5 C 161.822,8.80214 163.155,10.8021 163.5,13.5C 164.153,31.5316 163.486,49.1983 161.5,66.5C 160.167,65.8333 159.167,64.8333 158.5,63.5C 160.017,63.5106 161.184,64.1772 162,65.5C 162.667,53.8333 162.667,42.1667 162,30.5C 160.68,35.9205 157.18,38.5872 151.5,38.5C 152.167,37.8333 152.833,37.1667 153.5,36.5C 156.699,36.2384 158.699,34.5717 159.5,31.5C 160.473,29.0521 160.806,26.3854 160.5,23.5C 161.748,22.6661 162.415,21.3328 162.5,19.5C 162.25,15.2329 161.25,11.2329 159.5,7.5 Z"></path></g>
<g><path style="opacity: 1" fill="#85c0df" d="M 19.5,19.5 C 20.4614,21.2646 20.7947,23.2646 20.5,25.5C 18.5853,25.7845 16.9187,25.4511 15.5,24.5C 16.8333,24.5 18.1667,24.5 19.5,24.5C 19.5,22.8333 19.5,21.1667 19.5,19.5 Z"></path></g>
<g><path style="opacity: 1" fill="#effcfc" d="M 68.5,17.5 C 69.8333,17.5 71.1667,17.5 72.5,17.5C 72.5,24.5 72.5,31.5 72.5,38.5C 74.8333,38.5 77.1667,38.5 79.5,38.5C 79.5,39.8333 79.5,41.1667 79.5,42.5C 75.8333,42.5 72.1667,42.5 68.5,42.5C 68.5,34.1667 68.5,25.8333 68.5,17.5 Z"></path></g>
<g><path style="opacity: 1" fill="#5094bc" d="M 42.5,17.5 C 42.5,17.1667 42.5,16.8333 42.5,16.5C 44.5,16.5 46.5,16.5 48.5,16.5C 48.5,25.1667 48.5,33.8333 48.5,42.5C 48.1667,42.5 47.8333,42.5 47.5,42.5C 47.5,34.1667 47.5,25.8333 47.5,17.5C 46.1667,17.5 44.8333,17.5 43.5,17.5C 43.1667,17.5 42.8333,17.5 42.5,17.5 Z"></path></g>
<g><path style="opacity: 1" fill="#ecfafa" d="M 24.5,17.5 C 25.8333,17.5 27.1667,17.5 28.5,17.5C 28.1872,21.0419 28.5206,24.3752 29.5,27.5C 31.0174,27.4894 32.1841,26.8228 33,25.5C 33.4974,22.854 33.6641,20.1873 33.5,17.5C 34.8333,17.5 36.1667,17.5 37.5,17.5C 37.5,20.1667 37.5,22.8333 37.5,25.5C 37.5,26.1667 37.5,26.8333 37.5,27.5C 36.5222,27.811 35.8555,28.4777 35.5,29.5C 38.1608,33.3822 39.1608,37.7155 38.5,42.5C 36.8333,42.5 35.1667,42.5 33.5,42.5C 33.8064,39.6146 33.4731,36.9479 32.5,34.5C 32.0269,33.0937 31.0269,32.427 29.5,32.5C 28.5206,35.6248 28.1872,38.9581 28.5,42.5C 27.1667,42.5 25.8333,42.5 24.5,42.5C 24.5,34.1667 24.5,25.8333 24.5,17.5 Z"></path></g>
<g><path style="opacity: 1" fill="#e6f6f9" d="M 136.5,16.5 C 138.475,17.6464 139.975,19.313 141,21.5C 141.5,28.4921 141.666,35.4921 141.5,42.5C 139.833,42.5 138.167,42.5 136.5,42.5C 136.5,40.5 136.5,38.5 136.5,36.5C 134.901,36.2322 133.568,36.5655 132.5,37.5C 132.5,39.1667 132.5,40.8333 132.5,42.5C 130.833,42.5 129.167,42.5 127.5,42.5C 127.5,35.1667 127.5,27.8333 127.5,20.5C 127.833,19.8333 128.167,19.1667 128.5,18.5C 130.913,16.9493 133.579,16.2826 136.5,16.5 Z"></path></g>
<g><path style="opacity: 1" fill="#94c8e7" d="M 33.5,17.5 C 33.5,17.1667 33.5,16.8333 33.5,16.5C 35.1667,16.5 36.8333,16.5 38.5,16.5C 38.81,19.7131 38.4767,22.7131 37.5,25.5C 37.5,22.8333 37.5,20.1667 37.5,17.5C 36.1667,17.5 34.8333,17.5 33.5,17.5 Z"></path></g>
<g><path style="opacity: 1" fill="#9dcae1" d="M 24.5,17.5 C 25.9187,16.5489 27.5853,16.2155 29.5,16.5C 29.5,20.1667 29.5,23.8333 29.5,27.5C 28.5206,24.3752 28.1872,21.0419 28.5,17.5C 27.1667,17.5 25.8333,17.5 24.5,17.5 Z"></path></g>
<g><path style="opacity: 1" fill="#3578b8" d="M 29.5,16.5 C 30.8333,16.5 32.1667,16.5 33.5,16.5C 33.5,16.8333 33.5,17.1667 33.5,17.5C 33.6641,20.1873 33.4974,22.854 33,25.5C 32.1841,26.8228 31.0174,27.4894 29.5,27.5C 29.5,23.8333 29.5,20.1667 29.5,16.5 Z"></path></g>
<g><path style="opacity: 1" fill="#0772c9" d="M 159.5,7.5 C 161.25,11.2329 162.25,15.2329 162.5,19.5C 162.415,21.3328 161.748,22.6661 160.5,23.5C 160.995,19.5401 159.328,17.2068 155.5,16.5C 152.167,16.5 148.833,16.5 145.5,16.5C 145.5,18.8333 145.5,21.1667 145.5,23.5C 144.833,28.6813 144.167,34.0147 143.5,39.5C 142.669,32.8581 142.169,26.1915 142,19.5C 141.072,16.9648 139.238,15.9648 136.5,16.5C 130.787,15.2644 124.787,15.2644 118.5,16.5C 116.035,15.5349 113.535,14.5349 111,13.5C 109.251,13.7483 108.418,14.7483 108.5,16.5C 107.672,22.9874 107.172,29.654 107,36.5C 106.828,29.654 106.328,22.9874 105.5,16.5C 103.585,16.2155 101.919,16.5489 100.5,17.5C 99.8386,18.7175 99.1719,20.0508 98.5,21.5C 97.6641,19.0602 95.9975,17.7268 93.5,17.5C 90.6627,15.5977 87.3293,14.931 83.5,15.5C 82.373,17.9977 81.7063,20.6644 81.5,23.5C 81.5916,25.2578 81.925,26.9245 82.5,28.5C 81.1554,30.6968 79.9888,33.0302 79,35.5C 78.3333,36.8333 77.6667,36.8333 77,35.5C 75.0461,30.9861 75.2128,26.6527 77.5,22.5C 76.7261,21.2888 75.8928,21.2888 75,22.5C 74.8019,20.6183 74.3019,18.9516 73.5,17.5C 71.7354,16.5386 69.7354,16.2053 67.5,16.5C 66.8334,23.3447 66.1667,30.3447 65.5,37.5C 63.2534,36.6258 60.9201,36.2924 58.5,36.5C 58.8235,29.9779 58.4902,23.6446 57.5,17.5C 55.8333,16.1667 54.1667,16.1667 52.5,17.5C 51.5073,25.6499 51.1739,33.9832 51.5,42.5C 50.5,42.5 49.5,42.5 48.5,42.5C 48.5,33.8333 48.5,25.1667 48.5,16.5C 46.5,16.5 44.5,16.5 42.5,16.5C 41.1667,16.5 39.8333,16.5 38.5,16.5C 36.8333,16.5 35.1667,16.5 33.5,16.5C 32.1667,16.5 30.8333,16.5 29.5,16.5C 27.5853,16.2155 25.9187,16.5489 24.5,17.5C 23.8485,18.0906 23.1818,18.7573 22.5,19.5C 20.5017,17.6663 18.1684,16.6663 15.5,16.5C 14.0813,15.5489 12.4147,15.2155 10.5,15.5C 9.82144,13.3318 8.82144,11.3318 7.5,9.5C 8.81874,5.25377 11.1521,4.5871 14.5,7.5C 37.3524,6.1768 60.3524,5.51014 83.5,5.5C 106.167,5.66667 128.833,5.83333 151.5,6C 152.108,6.86992 152.941,7.36992 154,7.5C 155.69,6.85053 157.523,6.85053 159.5,7.5 Z"></path></g>
<g><path style="opacity: 1" fill="#4281ac" d="M 118.5,17.5 C 118.666,24.175 118.5,30.8417 118,37.5C 116.708,38.7911 115.542,38.7911 114.5,37.5C 114.5,31.8333 114.5,26.1667 114.5,20.5C 115.167,25.6813 115.833,31.0147 116.5,36.5C 117.167,30.0125 117.833,23.6792 118.5,17.5 Z"></path></g>
<g><path style="opacity: 1" fill="#1c6eb1" d="M 105.5,16.5 C 106.328,22.9874 106.828,29.654 107,36.5C 107.172,29.654 107.672,22.9874 108.5,16.5C 108.5,23.5 108.5,30.5 108.5,37.5C 107.5,38.8333 106.5,38.8333 105.5,37.5C 105.5,30.5 105.5,23.5 105.5,16.5 Z"></path></g>
<g><path style="opacity: 1" fill="#4d88b2" d="M 135.5,22.5 C 136.479,25.6248 136.813,28.9581 136.5,32.5C 135.167,32.5 133.833,32.5 132.5,32.5C 132.5,28.8333 132.5,25.1667 132.5,21.5C 133.791,21.2627 134.791,21.596 135.5,22.5 Z"></path></g>
<g><path style="opacity: 1" fill="#76b0cb" d="M 108.5,16.5 C 110.5,16.5 112.5,16.5 114.5,16.5C 114.5,17.8333 114.5,19.1667 114.5,20.5C 114.5,26.1667 114.5,31.8333 114.5,37.5C 113.509,31.021 113.176,24.3543 113.5,17.5C 112.167,17.5 110.833,17.5 109.5,17.5C 109.824,24.3543 109.491,31.021 108.5,37.5C 108.5,30.5 108.5,23.5 108.5,16.5 Z"></path></g>
<g><path style="opacity: 1" fill="#a2cfdd" d="M 52.5,17.5 C 54.1667,16.1667 55.8333,16.1667 57.5,17.5C 57.5,24.5 57.5,31.5 57.5,38.5C 56.5088,31.6866 56.1755,24.6866 56.5,17.5C 55.1667,17.5 53.8333,17.5 52.5,17.5 Z"></path></g>
<g><path style="opacity: 1" fill="#146db7" d="M 135.5,22.5 C 135.817,25.5719 135.484,28.5719 134.5,31.5C 134.167,30 133.833,28.5 133.5,27C 133.569,25.0145 134.235,23.5145 135.5,22.5 Z"></path></g>
<g><path style="opacity: 1" fill="#86c3e0" d="M 95.5,21.5 C 96.8333,22.8333 96.8333,24.1667 95.5,25.5C 93.901,25.7678 92.5676,25.4345 91.5,24.5C 92.8333,24.5 94.1667,24.5 95.5,24.5C 95.5,23.5 95.5,22.5 95.5,21.5 Z"></path></g>
<g><path style="opacity: 1" fill="#2c74b0" d="M 136.5,16.5 C 133.579,16.2826 130.913,16.9493 128.5,18.5C 127.458,17.2089 126.292,17.2089 125,18.5C 124.829,25.6787 124.329,32.6787 123.5,39.5C 123.5,32.1667 123.5,24.8333 123.5,17.5C 121.833,17.5 120.167,17.5 118.5,17.5C 118.5,17.1667 118.5,16.8333 118.5,16.5C 124.787,15.2644 130.787,15.2644 136.5,16.5 Z"></path></g>
<g><path style="opacity: 1" fill="#91c5de" d="M 100.5,17.5 C 101.919,16.5489 103.585,16.2155 105.5,16.5C 105.5,23.5 105.5,30.5 105.5,37.5C 104.509,31.021 104.176,24.3543 104.5,17.5C 103.167,17.5 101.833,17.5 100.5,17.5 Z"></path></g>
<g><path style="opacity: 1" fill="#5d9cbf" d="M 67.5,17.5 C 67.5,17.1667 67.5,16.8333 67.5,16.5C 69.7354,16.2053 71.7354,16.5386 73.5,17.5C 73.5,24.1667 73.5,30.8333 73.5,37.5C 75.7354,37.2053 77.7354,37.5386 79.5,38.5C 77.1667,38.5 74.8333,38.5 72.5,38.5C 72.5,31.5 72.5,24.5 72.5,17.5C 71.1667,17.5 69.8333,17.5 68.5,17.5C 68.1667,17.5 67.8333,17.5 67.5,17.5 Z"></path></g>
<g><path style="opacity: 1" fill="#126eb6" d="M 118.5,16.5 C 118.5,16.8333 118.5,17.1667 118.5,17.5C 117.833,23.6792 117.167,30.0125 116.5,36.5C 115.833,31.0147 115.167,25.6813 114.5,20.5C 114.5,19.1667 114.5,17.8333 114.5,16.5C 112.5,16.5 110.5,16.5 108.5,16.5C 108.418,14.7483 109.251,13.7483 111,13.5C 113.535,14.5349 116.035,15.5349 118.5,16.5 Z"></path></g>
<g><path style="opacity: 1" fill="#397aac" d="M 91.5,24.5 C 92.5676,25.4345 93.901,25.7678 95.5,25.5C 94.0998,26.1001 93.0998,27.1001 92.5,28.5C 88.9074,27.5702 87.2407,25.2368 87.5,21.5C 88.8333,21.5 90.1667,21.5 91.5,21.5C 91.5,22.5 91.5,23.5 91.5,24.5 Z"></path></g>
<g><path style="opacity: 1" fill="#2875b0" d="M 93.5,17.5 C 87.0843,14.714 83.4176,16.714 82.5,23.5C 82.7186,25.6931 83.3852,27.6931 84.5,29.5C 83.8333,29.1667 83.1667,28.8333 82.5,28.5C 81.925,26.9245 81.5916,25.2578 81.5,23.5C 81.7063,20.6644 82.373,17.9977 83.5,15.5C 87.3293,14.931 90.6627,15.5977 93.5,17.5 Z"></path></g>
<g><path style="opacity: 1" fill="#387ead" d="M 37.5,27.5 C 38.934,30.5939 39.6007,33.9272 39.5,37.5C 39.4954,39.6965 39.162,41.6965 38.5,43.5C 36.5,43.5 34.5,43.5 32.5,43.5C 32.5,40.5 32.5,37.5 32.5,34.5C 33.4731,36.9479 33.8064,39.6146 33.5,42.5C 35.1667,42.5 36.8333,42.5 38.5,42.5C 39.1608,37.7155 38.1608,33.3822 35.5,29.5C 35.8555,28.4777 36.5222,27.811 37.5,27.5 Z"></path></g>
<g><path style="opacity: 1" fill="#0a72c9" d="M 128.5,18.5 C 128.167,19.1667 127.833,19.8333 127.5,20.5C 125.853,27.7894 124.853,35.456 124.5,43.5C 122.646,44.1756 122.313,45.1756 123.5,46.5C 124.478,46.0233 125.311,45.3567 126,44.5C 126.333,45.5 126.667,46.5 127,47.5C 129.669,45.8616 132.502,44.5283 135.5,43.5C 135.833,43.5 136.167,43.5 136.5,43.5C 140.339,44.293 144.339,44.9597 148.5,45.5C 149.713,45.2528 150.38,44.5862 150.5,43.5C 150.5,43.1667 150.5,42.8333 150.5,42.5C 151.434,41.4324 151.768,40.099 151.5,38.5C 157.18,38.5872 160.68,35.9205 162,30.5C 162.667,42.1667 162.667,53.8333 162,65.5C 161.184,64.1772 160.017,63.5106 158.5,63.5C 156.114,62.6267 154.114,61.1267 152.5,59C 105.167,58.6667 57.8333,58.3333 10.5,58C 9.30665,56.9054 7.97332,56.072 6.5,55.5C 6.26714,53.9382 5.60048,52.6049 4.5,51.5C 4.30746,47.9872 4.97412,44.6538 6.5,41.5C 7.41683,42.1272 8.41683,42.4606 9.5,42.5C 9.5,42.8333 9.5,43.1667 9.5,43.5C 11.6674,44.2685 13.834,45.2685 16,46.5C 17.0793,44.6063 18.4126,44.273 20,45.5C 20.744,39.1502 21.9107,38.9836 23.5,45C 28.7254,45.5524 33.7254,45.0524 38.5,43.5C 39.162,41.6965 39.4954,39.6965 39.5,37.5C 39.6007,33.9272 38.934,30.5939 37.5,27.5C 38.9432,26.6649 39.9432,25.3316 40.5,23.5C 41.1668,29.9875 41.8334,36.3208 42.5,42.5C 44.1667,43.8333 45.8333,43.8333 47.5,42.5C 47.8333,42.5 48.1667,42.5 48.5,42.5C 49.5,42.5 50.5,42.5 51.5,42.5C 53.223,43.8001 55.3897,44.4668 58,44.5C 61.2001,44.344 64.3668,44.0107 67.5,43.5C 70.596,44.293 73.7627,45.293 77,46.5C 79.4576,45.6394 81.6242,44.3061 83.5,42.5C 86.568,44.4566 89.9013,44.9566 93.5,44C 95.7613,42.1871 98.0947,40.6871 100.5,39.5C 99.9245,42.5715 101.091,44.5715 104,45.5C 109.462,44.7355 114.962,44.2355 120.5,44C 121.252,43.3292 121.586,42.4959 121.5,41.5C 121.833,40.5 122.5,39.8333 123.5,39.5C 124.329,32.6787 124.829,25.6787 125,18.5C 126.292,17.2089 127.458,17.2089 128.5,18.5 Z"></path></g>
<g><path style="opacity: 1" fill="#5591b5" d="M 150.5,36.5 C 151.5,36.5 152.5,36.5 153.5,36.5C 152.833,37.1667 152.167,37.8333 151.5,38.5C 151.768,40.099 151.434,41.4324 150.5,42.5C 150.5,40.5 150.5,38.5 150.5,36.5 Z"></path></g>
<g><path style="opacity: 1" fill="#9acee7" d="M 87.5,34.5 C 87.5,34.8333 87.5,35.1667 87.5,35.5C 86.1667,35.5 84.8333,35.5 83.5,35.5C 83.5,36.8333 83.5,38.1667 83.5,39.5C 82.5489,38.0813 82.2155,36.4147 82.5,34.5C 84.1667,34.5 85.8333,34.5 87.5,34.5 Z"></path></g>
<g><path style="opacity: 1" fill="#3477ac" d="M 88.5,32.5 C 90.9754,33.6874 91.9754,35.6874 91.5,38.5C 90.1667,38.5 88.8333,38.5 87.5,38.5C 87.5,37.5 87.5,36.5 87.5,35.5C 87.5,35.1667 87.5,34.8333 87.5,34.5C 88.3382,34.1583 88.6716,33.4916 88.5,32.5 Z"></path></g>
<g><path style="opacity: 1" fill="#e2f4f6" d="M 15.5,16.5 C 16.795,17.4884 18.1283,18.4884 19.5,19.5C 19.5,21.1667 19.5,22.8333 19.5,24.5C 18.1667,24.5 16.8333,24.5 15.5,24.5C 15.5,23.5 15.5,22.5 15.5,21.5C 14.1667,21.5 12.8333,21.5 11.5,21.5C 11.9077,25.9172 14.241,28.9172 18.5,30.5C 22.3649,39.3271 19.3649,43.6604 9.5,43.5C 9.5,43.1667 9.5,42.8333 9.5,42.5C 8.83333,41.5 8.16667,40.5 7.5,39.5C 7.5,38.1667 7.5,36.8333 7.5,35.5C 8.83333,35.5 10.1667,35.5 11.5,35.5C 11.6941,37.9118 13.0274,38.9118 15.5,38.5C 15.4383,34.4316 13.4383,31.765 9.5,30.5C 7.93009,28.4713 6.93009,26.138 6.5,23.5C 7.00795,18.0699 10.008,15.7366 15.5,16.5 Z"></path></g>
<g><path style="opacity: 1" fill="#e5f5f6" d="M 93.5,17.5 C 94.6005,18.6049 95.2671,19.9382 95.5,21.5C 95.5,22.5 95.5,23.5 95.5,24.5C 94.1667,24.5 92.8333,24.5 91.5,24.5C 91.5,23.5 91.5,22.5 91.5,21.5C 90.1667,21.5 88.8333,21.5 87.5,21.5C 87.2407,25.2368 88.9074,27.5702 92.5,28.5C 95.9509,31.41 97.1176,35.0767 96,39.5C 91.6601,44.7298 87.4934,44.7298 83.5,39.5C 83.5,38.1667 83.5,36.8333 83.5,35.5C 84.8333,35.5 86.1667,35.5 87.5,35.5C 87.5,36.5 87.5,37.5 87.5,38.5C 88.8333,38.5 90.1667,38.5 91.5,38.5C 91.9754,35.6874 90.9754,33.6874 88.5,32.5C 87.205,31.5116 85.8717,30.5116 84.5,29.5C 83.3852,27.6931 82.7186,25.6931 82.5,23.5C 83.4176,16.714 87.0843,14.714 93.5,17.5 Z"></path></g>
<g><path style="opacity: 1" fill="#357db6" d="M 67.5,16.5 C 67.5,16.8333 67.5,17.1667 67.5,17.5C 67.5,26.1667 67.5,34.8333 67.5,43.5C 64.3668,44.0107 61.2001,44.344 58,44.5C 55.3897,44.4668 53.223,43.8001 51.5,42.5C 51.1739,33.9832 51.5073,25.6499 52.5,17.5C 52.5,25.8333 52.5,34.1667 52.5,42.5C 56.5,42.5 60.5,42.5 64.5,42.5C 64.7678,40.901 64.4345,39.5676 63.5,38.5C 61.8333,37.8333 60.1667,37.1667 58.5,36.5C 60.9201,36.2924 63.2534,36.6258 65.5,37.5C 66.1667,30.3447 66.8334,23.3447 67.5,16.5 Z"></path></g>
<g><path style="opacity: 1" fill="#3179a6" d="M 57.5,17.5 C 58.4902,23.6446 58.8235,29.9779 58.5,36.5C 60.1667,37.1667 61.8333,37.8333 63.5,38.5C 61.5,38.5 59.5,38.5 57.5,38.5C 57.5,31.5 57.5,24.5 57.5,17.5 Z"></path></g>
<g><path style="opacity: 1" fill="#ebfbfc" d="M 52.5,17.5 C 53.8333,17.5 55.1667,17.5 56.5,17.5C 56.1755,24.6866 56.5088,31.6866 57.5,38.5C 59.5,38.5 61.5,38.5 63.5,38.5C 64.4345,39.5676 64.7678,40.901 64.5,42.5C 60.5,42.5 56.5,42.5 52.5,42.5C 52.5,34.1667 52.5,25.8333 52.5,17.5 Z"></path></g>
<g><path style="opacity: 1" fill="#5997bf" d="M 132.5,37.5 C 133.568,36.5655 134.901,36.2322 136.5,36.5C 136.5,38.5 136.5,40.5 136.5,42.5C 138.167,42.5 139.833,42.5 141.5,42.5C 140.081,43.4511 138.415,43.7845 136.5,43.5C 136.167,43.5 135.833,43.5 135.5,43.5C 135.5,41.5 135.5,39.5 135.5,37.5C 134.5,37.5 133.5,37.5 132.5,37.5 Z"></path></g>
<g><path style="opacity: 1" fill="#2475b5" d="M 100.5,39.5 C 103.374,43.9248 107.04,44.5915 111.5,41.5C 114.793,44.0476 118.127,44.0476 121.5,41.5C 121.586,42.4959 121.252,43.3292 120.5,44C 114.962,44.2355 109.462,44.7355 104,45.5C 101.091,44.5715 99.9245,42.5715 100.5,39.5 Z"></path></g>
<g><path style="opacity: 1" fill="#2b78b9" d="M 127.5,20.5 C 127.5,27.8333 127.5,35.1667 127.5,42.5C 129.167,42.5 130.833,42.5 132.5,42.5C 132.5,40.8333 132.5,39.1667 132.5,37.5C 133.5,37.5 134.5,37.5 135.5,37.5C 135.5,39.5 135.5,41.5 135.5,43.5C 132.502,44.5283 129.669,45.8616 127,47.5C 126.667,46.5 126.333,45.5 126,44.5C 125.311,45.3567 124.478,46.0233 123.5,46.5C 122.313,45.1756 122.646,44.1756 124.5,43.5C 124.853,35.456 125.853,27.7894 127.5,20.5 Z"></path></g>
<g><path style="opacity: 1" fill="#1f73b4" d="M 136.5,16.5 C 139.238,15.9648 141.072,16.9648 142,19.5C 142.169,26.1915 142.669,32.8581 143.5,39.5C 144.167,34.0147 144.833,28.6813 145.5,23.5C 145.5,30.1667 145.5,36.8333 145.5,43.5C 147.167,43.5 148.833,43.5 150.5,43.5C 150.38,44.5862 149.713,45.2528 148.5,45.5C 144.339,44.9597 140.339,44.293 136.5,43.5C 138.415,43.7845 140.081,43.4511 141.5,42.5C 141.666,35.4921 141.5,28.4921 141,21.5C 139.975,19.313 138.475,17.6464 136.5,16.5 Z"></path></g>
<g><path style="opacity: 1" fill="#2375b9" d="M 15.5,16.5 C 18.1684,16.6663 20.5017,17.6663 22.5,19.5C 23.1818,18.7573 23.8485,18.0906 24.5,17.5C 24.5,25.8333 24.5,34.1667 24.5,42.5C 25.9187,43.4511 27.5853,43.7845 29.5,43.5C 29.5,39.8333 29.5,36.1667 29.5,32.5C 31.0269,32.427 32.0269,33.0937 32.5,34.5C 32.5,37.5 32.5,40.5 32.5,43.5C 34.5,43.5 36.5,43.5 38.5,43.5C 33.7254,45.0524 28.7254,45.5524 23.5,45C 21.9107,38.9836 20.744,39.1502 20,45.5C 18.4126,44.273 17.0793,44.6063 16,46.5C 13.834,45.2685 11.6674,44.2685 9.5,43.5C 19.3649,43.6604 22.3649,39.3271 18.5,30.5C 18.4606,29.4168 18.1272,28.4168 17.5,27.5C 18.6016,26.8243 19.6016,26.1577 20.5,25.5C 20.7947,23.2646 20.4614,21.2646 19.5,19.5C 18.1283,18.4884 16.795,17.4884 15.5,16.5 Z"></path></g>
<g><path style="opacity: 1" fill="#98c6dd" d="M 29.5,32.5 C 29.5,36.1667 29.5,39.8333 29.5,43.5C 27.5853,43.7845 25.9187,43.4511 24.5,42.5C 25.8333,42.5 27.1667,42.5 28.5,42.5C 28.1872,38.9581 28.5206,35.6248 29.5,32.5 Z"></path></g>
<g><path style="opacity: 1" fill="#6995be" d="M 163.5,13.5 C 164.827,31.671 164.827,50.0044 163.5,68.5C 162.478,68.1445 161.811,67.4778 161.5,66.5C 163.486,49.1983 164.153,31.5316 163.5,13.5 Z"></path></g>
<g><path style="opacity: 1" fill="#a6c2d8" d="M 3.5,51.5 C 3.83333,51.5 4.16667,51.5 4.5,51.5C 5.60048,52.6049 6.26714,53.9382 6.5,55.5C 4.73758,54.7377 3.73758,53.4044 3.5,51.5 Z"></path></g>
</svg>
