<?xml version="1.0" encoding="UTF-8"?>
<svg xmlns="http://www.w3.org/2000/svg" xmlns:xlink="http://www.w3.org/1999/xlink" width="18px" height="18px" viewBox="0 0 18 18" version="1.1">
<g id="surface1">
<path style="stroke: none; fill-rule: nonzero; fill: #000; fill-opacity: 1" d="M 8.835938 6.460938 C 8.835938 7.738281 7.800781 8.769531 6.527344 8.769531 C 5.253906 8.769531 4.21875 7.738281 4.21875 6.460938 C 4.21875 5.1875 5.253906 4.15625 6.527344 4.15625 C 7.800781 4.15625 8.835938 5.1875 8.835938 6.460938 Z M 8.835938 6.460938 "></path>
<path style="stroke: none; fill-rule: nonzero; fill: #000; fill-opacity: 1" d="M 6.527344 3.078125 C 6.78125 3.078125 6.988281 2.871094 6.988281 2.617188 L 6.988281 1.847656 C 6.988281 1.59375 6.78125 1.386719 6.527344 1.386719 C 6.273438 1.386719 6.066406 1.59375 6.066406 1.847656 L 6.066406 2.617188 C 6.066406 2.871094 6.273438 3.078125 6.527344 3.078125 Z M 6.527344 3.078125 "></path>
<path style="stroke: none; fill-rule: nonzero; fill: #000; fill-opacity: 1" d="M 3.480469 4.070312 C 3.664062 4.25 3.953125 4.25 4.132812 4.070312 C 4.316406 3.890625 4.316406 3.597656 4.132812 3.417969 L 3.589844 2.875 C 3.410156 2.691406 3.117188 2.691406 2.9375 2.875 C 2.757812 3.054688 2.757812 3.34375 2.9375 3.527344 Z M 3.480469 4.070312 "></path>
<path style="stroke: none; fill-rule: nonzero; fill: #000; fill-opacity: 1" d="M 3.144531 6.460938 C 3.144531 6.207031 2.9375 6 2.683594 6 L 1.914062 6 C 1.660156 6 1.453125 6.207031 1.453125 6.460938 C 1.453125 6.71875 1.660156 6.921875 1.914062 6.921875 L 2.683594 6.921875 C 2.9375 6.921875 3.144531 6.71875 3.144531 6.460938 Z M 3.144531 6.460938 "></path>
<path style="stroke: none; fill-rule: nonzero; fill: #000; fill-opacity: 1" d="M 3.480469 8.855469 L 2.9375 9.398438 C 2.757812 9.578125 2.757812 9.871094 2.9375 10.050781 C 3.117188 10.230469 3.410156 10.230469 3.589844 10.050781 L 4.132812 9.507812 C 4.316406 9.328125 4.316406 9.035156 4.136719 8.855469 C 3.953125 8.675781 3.664062 8.675781 3.480469 8.855469 Z M 3.480469 8.855469 "></path>
<path style="stroke: none; fill-rule: nonzero; fill: #000; fill-opacity: 1" d="M 6.527344 9.847656 C 6.273438 9.847656 6.066406 10.050781 6.066406 10.308594 L 6.066406 11.078125 C 6.066406 11.332031 6.273438 11.539062 6.527344 11.539062 C 6.78125 11.539062 6.988281 11.332031 6.988281 11.078125 L 6.988281 10.308594 C 6.988281 10.050781 6.78125 9.847656 6.527344 9.847656 Z M 6.527344 9.847656 "></path>
<path style="stroke: none; fill-rule: nonzero; fill: #000; fill-opacity: 1" d="M 9.574219 8.855469 C 9.390625 8.675781 9.101562 8.675781 8.921875 8.855469 C 8.738281 9.035156 8.738281 9.328125 8.921875 9.507812 L 9.464844 10.050781 C 9.644531 10.230469 9.9375 10.230469 10.117188 10.050781 C 10.296875 9.871094 10.296875 9.578125 10.117188 9.398438 Z M 9.574219 8.855469 "></path>
<path style="stroke: none; fill-rule: nonzero; fill: #000; fill-opacity: 1" d="M 11.601562 6.460938 C 11.601562 6.207031 11.398438 6 11.140625 6 L 10.371094 6 C 10.117188 6 9.910156 6.207031 9.910156 6.460938 C 9.910156 6.71875 10.117188 6.921875 10.371094 6.921875 L 11.140625 6.921875 C 11.398438 6.921875 11.601562 6.71875 11.601562 6.460938 Z M 11.601562 6.460938 "></path>
<path style="stroke: none; fill-rule: nonzero; fill: #000; fill-opacity: 1" d="M 9.246094 4.203125 C 9.367188 4.203125 9.484375 4.15625 9.574219 4.070312 L 10.117188 3.527344 C 10.296875 3.34375 10.296875 3.054688 10.117188 2.875 C 9.9375 2.691406 9.644531 2.691406 9.464844 2.875 L 8.921875 3.417969 C 8.789062 3.550781 8.75 3.746094 8.820312 3.917969 C 8.890625 4.09375 9.058594 4.203125 9.246094 4.203125 Z M 9.246094 4.203125 "></path>
<path style="stroke: none; fill-rule: nonzero; fill: #000; fill-opacity: 1" d="M 16.0625 14.121094 C 15.898438 14.226562 15.722656 14.3125 15.535156 14.375 C 14.847656 14.605469 14.066406 14.480469 13.492188 14.027344 C 13.351562 13.914062 13.222656 13.789062 13.113281 13.648438 C 12.660156 13.074219 12.535156 12.292969 12.765625 11.601562 C 12.828125 11.417969 12.910156 11.238281 13.019531 11.074219 C 13.09375 10.964844 13.089844 10.820312 13.011719 10.714844 C 12.929688 10.609375 12.789062 10.566406 12.664062 10.609375 C 11.277344 11.050781 10.390625 12.40625 10.542969 13.855469 C 10.691406 15.304688 11.835938 16.449219 13.285156 16.597656 C 14.734375 16.75 16.085938 15.863281 16.53125 14.476562 C 16.574219 14.351562 16.53125 14.210938 16.425781 14.128906 C 16.320312 14.050781 16.175781 14.046875 16.0625 14.121094 Z M 16.0625 14.121094 "></path>
</g>
</svg>
