<svg xmlns="http://www.w3.org/2000/svg" xmlns:xlink="http://www.w3.org/1999/xlink" width="6912" zoomAndPan="magnify" viewBox="0 0 5184 2592.000001" height="3456" preserveAspectRatio="xMidYMid meet" version="1.0"><defs><filter x="0%" y="0%" width="100%" height="100%" id="27d3b852af"><feColorMatrix values="0 0 0 0 1 0 0 0 0 1 0 0 0 0 1 0 0 0 1 0" color-interpolation-filters="sRGB"/></filter><mask id="98f217a25d"><g filter="url(#27d3b852af)"><rect x="-518.4" width="6220.8" fill="#000000" y="-259.2" height="3110.400001" fill-opacity="0.1"/></g></mask><clipPath id="f3e5d6ff12"><rect x="0" width="483" y="0" height="907"/></clipPath><mask id="6b047a49cc"><g filter="url(#27d3b852af)"><rect x="-518.4" width="6220.8" fill="#000000" y="-259.2" height="3110.400001" fill-opacity="0.1"/></g></mask><clipPath id="bf1f74f15e"><rect x="0" width="482" y="0" height="792"/></clipPath><mask id="667be3591b"><g filter="url(#27d3b852af)"><rect x="-518.4" width="6220.8" fill="#000000" y="-259.2" height="3110.400001" fill-opacity="0.1"/></g></mask><clipPath id="6faf81e6fa"><rect x="0" width="482" y="0" height="677"/></clipPath><mask id="5382af456e"><g filter="url(#27d3b852af)"><rect x="-518.4" width="6220.8" fill="#000000" y="-259.2" height="3110.400001" fill-opacity="0.1"/></g></mask><clipPath id="13c9906c25"><path d="M 0.015625 1 L 475 1 L 475 561 L 0.015625 561 Z M 0.015625 1 " clip-rule="nonzero"/></clipPath><clipPath id="0847bdbbb5"><rect x="0" width="476" y="0" height="562"/></clipPath><mask id="0e689678b4"><g filter="url(#27d3b852af)"><rect x="-518.4" width="6220.8" fill="#000000" y="-259.2" height="3110.400001" fill-opacity="0.1"/></g></mask><clipPath id="78ebb19347"><rect x="0" width="453" y="0" height="447"/></clipPath><mask id="e710f231c0"><g filter="url(#27d3b852af)"><rect x="-518.4" width="6220.8" fill="#000000" y="-259.2" height="3110.400001" fill-opacity="0.1"/></g></mask><clipPath id="48ac5ad297"><path d="M 1 1 L 385.59375 1 L 385.59375 331 L 1 331 Z M 1 1 " clip-rule="nonzero"/></clipPath><clipPath id="3524634c50"><rect x="0" width="386" y="0" height="332"/></clipPath><mask id="22ebdd7d5e"><g filter="url(#27d3b852af)"><rect x="-518.4" width="6220.8" fill="#000000" y="-259.2" height="3110.400001" fill-opacity="0.1"/></g></mask><clipPath id="f5d8124394"><path d="M 0.394531 1 L 316 1 L 316 216 L 0.394531 216 Z M 0.394531 1 " clip-rule="nonzero"/></clipPath><clipPath id="5861a00aea"><rect x="0" width="317" y="0" height="217"/></clipPath><mask id="f5eebdcd6a"><g filter="url(#27d3b852af)"><rect x="-518.4" width="6220.8" fill="#000000" y="-259.2" height="3110.400001" fill-opacity="0.1"/></g></mask><clipPath id="635698ea59"><rect x="0" width="223" y="0" height="102"/></clipPath><mask id="de01cf1c57"><g filter="url(#27d3b852af)"><rect x="-518.4" width="6220.8" fill="#000000" y="-259.2" height="3110.400001" fill-opacity="0.25"/></g></mask><clipPath id="cfed2ef6d7"><path d="M 1 475 L 476 475 L 476 983.5 L 1 983.5 Z M 1 475 " clip-rule="nonzero"/></clipPath><clipPath id="7a0e6015a4"><rect x="0" width="478" y="0" height="984"/></clipPath><mask id="37f823c7a2"><g filter="url(#27d3b852af)"><rect x="-518.4" width="6220.8" fill="#000000" y="-259.2" height="3110.400001" fill-opacity="0.1"/></g></mask><clipPath id="9812e38089"><path d="M 1 0.078125 L 477 0.078125 L 477 869.5 L 1 869.5 Z M 1 0.078125 " clip-rule="nonzero"/></clipPath><clipPath id="2e9e5f74a8"><rect x="0" width="478" y="0" height="870"/></clipPath><mask id="8fd4bf9b1b"><g filter="url(#27d3b852af)"><rect x="-518.4" width="6220.8" fill="#000000" y="-259.2" height="3110.400001" fill-opacity="0.1"/></g></mask><clipPath id="48d9774edc"><path d="M 1 1 L 477 1 L 477 755.5 L 1 755.5 Z M 1 1 " clip-rule="nonzero"/></clipPath><clipPath id="a351d0dcbb"><rect x="0" width="478" y="0" height="756"/></clipPath><mask id="d537296cb7"><g filter="url(#27d3b852af)"><rect x="-518.4" width="6220.8" fill="#000000" y="-259.2" height="3110.400001" fill-opacity="0.1"/></g></mask><clipPath id="bb6db14739"><path d="M 1 0.148438 L 477 0.148438 L 477 639.5 L 1 639.5 Z M 1 0.148438 " clip-rule="nonzero"/></clipPath><clipPath id="2e1193a38d"><rect x="0" width="478" y="0" height="640"/></clipPath><mask id="ef754aae30"><g filter="url(#27d3b852af)"><rect x="-518.4" width="6220.8" fill="#000000" y="-259.2" height="3110.400001" fill-opacity="0.1"/></g></mask><clipPath id="8d8c5b862e"><path d="M 1 0.0625 L 452 0.0625 L 452 524.5 L 1 524.5 Z M 1 0.0625 " clip-rule="nonzero"/></clipPath><clipPath id="d74140b132"><rect x="0" width="453" y="0" height="525"/></clipPath><mask id="781587b50b"><g filter="url(#27d3b852af)"><rect x="-518.4" width="6220.8" fill="#000000" y="-259.2" height="3110.400001" fill-opacity="0.1"/></g></mask><clipPath id="e21089cd7e"><path d="M 1 0.21875 L 396 0.21875 L 396 409.5 L 1 409.5 Z M 1 0.21875 " clip-rule="nonzero"/></clipPath><clipPath id="c04cd4a2bf"><rect x="0" width="398" y="0" height="410"/></clipPath><mask id="2d73107736"><g filter="url(#27d3b852af)"><rect x="-518.4" width="6220.8" fill="#000000" y="-259.2" height="3110.400001" fill-opacity="0.1"/></g></mask><clipPath id="a01e3081a1"><path d="M 1 0.132812 L 315.671875 0.132812 L 315.671875 294.5 L 1 294.5 Z M 1 0.132812 " clip-rule="nonzero"/></clipPath><clipPath id="7a4dd8d541"><rect x="0" width="316" y="0" height="295"/></clipPath><mask id="ea631584f6"><g filter="url(#27d3b852af)"><rect x="-518.4" width="6220.8" fill="#000000" y="-259.2" height="3110.400001" fill-opacity="0.3"/></g></mask><clipPath id="dc0236a9e4"><path d="M 1 0.289062 L 241 0.289062 L 241 179.5 L 1 179.5 Z M 1 0.289062 " clip-rule="nonzero"/></clipPath><clipPath id="33c0ca6983"><rect x="0" width="242" y="0" height="180"/></clipPath><mask id="efd5d0ac0e"><g filter="url(#27d3b852af)"><rect x="-518.4" width="6220.8" fill="#000000" y="-259.2" height="3110.400001" fill-opacity="0.55"/></g></mask><clipPath id="93757c301d"><rect x="0" width="469" y="0" height="494"/></clipPath><mask id="06bc839600"><g filter="url(#27d3b852af)"><rect x="-518.4" width="6220.8" fill="#000000" y="-259.2" height="3110.400001" fill-opacity="0.55"/></g></mask><clipPath id="aa5626aacb"><path d="M 0.171875 0.179688 L 114 0.179688 L 114 137 L 0.171875 137 Z M 0.171875 0.179688 " clip-rule="nonzero"/></clipPath><clipPath id="151fb588de"><rect x="0" width="116" y="0" height="138"/></clipPath><mask id="daec8dfc3f"><g filter="url(#27d3b852af)"><rect x="-518.4" width="6220.8" fill="#000000" y="-259.2" height="3110.400001" fill-opacity="0.55"/></g></mask><clipPath id="6c0033e0d4"><rect x="0" width="53" y="0" height="103"/></clipPath><mask id="c108be621e"><g filter="url(#27d3b852af)"><rect x="-518.4" width="6220.8" fill="#000000" y="-259.2" height="3110.400001" fill-opacity="0.55"/></g></mask><clipPath id="c773237bfd"><path d="M 1 2 L 35 2 L 35 127.507812 L 1 127.507812 Z M 1 2 " clip-rule="nonzero"/></clipPath><clipPath id="55e69078a0"><rect x="0" width="36" y="0" height="128"/></clipPath><mask id="c1f26da03e"><g filter="url(#27d3b852af)"><rect x="-518.4" width="6220.8" fill="#000000" y="-259.2" height="3110.400001" fill-opacity="0.55"/></g></mask><clipPath id="84dfb15b71"><rect x="0" width="53" y="0" height="73"/></clipPath><mask id="0aec347331"><g filter="url(#27d3b852af)"><rect x="-518.4" width="6220.8" fill="#000000" y="-259.2" height="3110.400001" fill-opacity="0.55"/></g></mask><clipPath id="ecf9de52f3"><path d="M 2 0.753906 L 97 0.753906 L 97 72 L 2 72 Z M 2 0.753906 " clip-rule="nonzero"/></clipPath><clipPath id="1d98329ae0"><rect x="0" width="98" y="0" height="73"/></clipPath><mask id="97946e4370"><g filter="url(#27d3b852af)"><rect x="-518.4" width="6220.8" fill="#000000" y="-259.2" height="3110.400001" fill-opacity="0.42"/></g></mask><clipPath id="2b1038ddef"><path d="M 1 1 L 386.832031 1 L 386.832031 91.386719 L 1 91.386719 Z M 1 1 " clip-rule="nonzero"/></clipPath><clipPath id="dfefeeb201"><rect x="0" width="387" y="0" height="92"/></clipPath><mask id="d82b695be9"><g filter="url(#27d3b852af)"><rect x="-518.4" width="6220.8" fill="#000000" y="-259.2" height="3110.400001" fill-opacity="0.6"/></g></mask><clipPath id="9712f9a89d"><path d="M 1 1 L 386.832031 1 L 386.832031 67.726562 L 1 67.726562 Z M 1 1 " clip-rule="nonzero"/></clipPath><clipPath id="4cac8e5f85"><rect x="0" width="387" y="0" height="68"/></clipPath><mask id="c8a976c972"><g filter="url(#27d3b852af)"><rect x="-518.4" width="6220.8" fill="#000000" y="-259.2" height="3110.400001" fill-opacity="0.55"/></g></mask><clipPath id="6e7492167c"><path d="M 0.0195312 1 L 231 1 L 231 70 L 0.0195312 70 Z M 0.0195312 1 " clip-rule="nonzero"/></clipPath><clipPath id="66d6aab463"><rect x="0" width="232" y="0" height="72"/></clipPath><mask id="c12307843c"><g filter="url(#27d3b852af)"><rect x="-518.4" width="6220.8" fill="#000000" y="-259.2" height="3110.400001" fill-opacity="0.42"/></g></mask><clipPath id="ed70979af6"><path d="M 1 1 L 386.832031 1 L 386.832031 91 L 1 91 Z M 1 1 " clip-rule="nonzero"/></clipPath><clipPath id="155c773362"><rect x="0" width="387" y="0" height="92"/></clipPath><mask id="028f7018f3"><g filter="url(#27d3b852af)"><rect x="-518.4" width="6220.8" fill="#000000" y="-259.2" height="3110.400001" fill-opacity="0.6"/></g></mask><clipPath id="1a60b64e0b"><path d="M 1 1 L 386.832031 1 L 386.832031 67.5625 L 1 67.5625 Z M 1 1 " clip-rule="nonzero"/></clipPath><clipPath id="c9ae7a27e7"><rect x="0" width="387" y="0" height="68"/></clipPath><mask id="76a4973334"><g filter="url(#27d3b852af)"><rect x="-518.4" width="6220.8" fill="#000000" y="-259.2" height="3110.400001" fill-opacity="0.55"/></g></mask><clipPath id="270c894034"><path d="M 0.0195312 0.464844 L 231.769531 0.464844 L 231.769531 69 L 0.0195312 69 Z M 0.0195312 0.464844 " clip-rule="nonzero"/></clipPath><clipPath id="cc4a5cb78d"><rect x="0" width="232" y="0" height="70"/></clipPath><mask id="381a029a62"><g filter="url(#27d3b852af)"><rect x="-518.4" width="6220.8" fill="#000000" y="-259.2" height="3110.400001" fill-opacity="0.42"/></g></mask><clipPath id="369b5e04e6"><path d="M 1 1 L 386.832031 1 L 386.832031 91 L 1 91 Z M 1 1 " clip-rule="nonzero"/></clipPath><clipPath id="afc00e58ed"><rect x="0" width="387" y="0" height="92"/></clipPath><mask id="422ed85cfc"><g filter="url(#27d3b852af)"><rect x="-518.4" width="6220.8" fill="#000000" y="-259.2" height="3110.400001" fill-opacity="0.6"/></g></mask><clipPath id="22e3603936"><path d="M 1 0.230469 L 386.832031 0.230469 L 386.832031 67 L 1 67 Z M 1 0.230469 " clip-rule="nonzero"/></clipPath><clipPath id="723d992d3c"><rect x="0" width="387" y="0" height="68"/></clipPath><mask id="68f2f78f6b"><g filter="url(#27d3b852af)"><rect x="-518.4" width="6220.8" fill="#000000" y="-259.2" height="3110.400001" fill-opacity="0.55"/></g></mask><clipPath id="901aa2d9f1"><rect x="0" width="233" y="0" height="70"/></clipPath><mask id="7aab5c0fd3"><g filter="url(#27d3b852af)"><rect x="-518.4" width="6220.8" fill="#000000" y="-259.2" height="3110.400001" fill-opacity="0.29"/></g></mask><clipPath id="36ad3edaab"><path d="M 1 0.746094 L 217 0.746094 L 217 108.703125 L 1 108.703125 Z M 1 0.746094 " clip-rule="nonzero"/></clipPath><clipPath id="54f7a9befc"><rect x="0" width="218" y="0" height="109"/></clipPath><mask id="0858b971c8"><g filter="url(#27d3b852af)"><rect x="-518.4" width="6220.8" fill="#000000" y="-259.2" height="3110.400001" fill-opacity="0.29"/></g></mask><clipPath id="ae8bdf3194"><path d="M 0.519531 0.0234375 L 215 0.0234375 L 215 107.984375 L 0.519531 107.984375 Z M 0.519531 0.0234375 " clip-rule="nonzero"/></clipPath><clipPath id="81df9eede0"><rect x="0" width="217" y="0" height="108"/></clipPath><clipPath id="e3dfee4819"><path d="M 1709.371094 993 L 1873 993 L 1873 1046 L 1709.371094 1046 Z M 1709.371094 993 " clip-rule="nonzero"/></clipPath><clipPath id="c9038b12e3"><path d="M 2938 993 L 3101.585938 993 L 3101.585938 1046 L 2938 1046 Z M 2938 993 " clip-rule="nonzero"/></clipPath></defs><path fill="#ef9700" d="M 2407.582031 1599.933594 C 2407.582031 1599.933594 2326.808594 1602.554688 2256.546875 1593.265625 C 2217.160156 1588.054688 2200.546875 1555.144531 2196.105469 1523.835938 C 2192.625 1499.300781 2196.628906 1475.726562 2203.007812 1467.238281 C 2140.917969 1464.628906 2130.140625 1409.980469 2130.140625 1409.980469 C 2130.140625 1409.980469 2107.089844 1406.996094 2103.375 1405.890625 C 2100.902344 1405.148438 2083.863281 1394.09375 2072.027344 1386.625 C 2066.027344 1382.851562 2061.367188 1380 2060.609375 1379.867188 C 2058.382812 1379.488281 2045.378906 1332.265625 2045.378906 1332.265625 L 2001.125 1316.65625 L 1971.753906 1246.398438 L 1974.261719 1230.46875 L 1979.195312 1199.175781 L 1937.550781 1173.515625 L 1927.140625 1096.9375 L 1932.484375 1074.90625 L 1942.761719 1032.621094 L 1966.179688 1005.839844 C 1966.179688 1005.839844 1953.175781 965.316406 1953.175781 964.210938 C 1953.175781 963.757812 1954.558594 956.683594 1956.175781 948.527344 C 1958.519531 936.847656 1961.34375 922.941406 1961.34375 922.941406 L 2000.761719 882.78125 L 2021.207031 854.535156 C 2021.207031 854.535156 2021.367188 854.007812 2021.65625 853.046875 C 2024.425781 843.714844 2039.421875 793.257812 2039.421875 790.214844 C 2039.421875 786.867188 2064.335938 765.300781 2064.335938 765.300781 L 2089.484375 758.996094 L 2148.722656 744.113281 C 2148.722656 744.113281 2152.449219 724.777344 2152.449219 721.425781 C 2152.449219 718.980469 2173.257812 699.714844 2184.339844 689.609375 C 2188.371094 685.957031 2191.109375 683.507812 2191.109375 683.507812 L 2233.863281 678.675781 C 2233.863281 678.675781 2268.066406 638.894531 2268.808594 637.40625 C 2269.550781 635.921875 2324.957031 623.660156 2324.957031 623.660156 L 2404.144531 652.652344 L 2404.171875 659.816406 L 2404.695312 806.511719 L 2405.148438 931.273438 L 2405.585938 1051.230469 L 2406.023438 1169.265625 L 2406.445312 1286.339844 L 2406.867188 1402.832031 L 2407.289062 1518.988281 L 2407.582031 1599.9375 Z M 2407.582031 1599.933594 " fill-opacity="1" fill-rule="nonzero"/><g mask="url(#98f217a25d)"><g transform="matrix(1, 0, 0, 1, 1926, 622)"><g clip-path="url(#f3e5d6ff12)"><path fill="#ef9700" d="M 481.289062 896.988281 C 439.511719 902.550781 396.890625 905.433594 353.601562 905.433594 C 325.46875 905.433594 297.625 904.226562 270.105469 901.835938 C 266.625 877.300781 270.628906 853.726562 277.007812 845.238281 C 214.917969 842.628906 204.140625 787.980469 204.140625 787.980469 C 204.140625 787.980469 181.089844 784.996094 177.375 783.890625 C 174.902344 783.148438 157.863281 772.09375 146.027344 764.625 C 140.027344 760.851562 135.367188 758 134.609375 757.867188 C 132.382812 757.488281 119.378906 710.265625 119.378906 710.265625 L 75.125 694.65625 L 45.753906 624.398438 L 48.261719 608.46875 L 53.195312 577.175781 L 11.550781 551.515625 L 1.140625 474.9375 L 6.484375 452.90625 L 16.761719 410.621094 L 40.179688 383.84375 C 40.179688 383.84375 27.175781 343.316406 27.175781 342.210938 C 27.175781 341.757812 28.558594 334.683594 30.175781 326.527344 C 32.519531 314.851562 35.34375 300.945312 35.34375 300.945312 L 74.761719 260.78125 L 95.207031 232.535156 C 95.207031 232.535156 95.367188 232.007812 95.65625 231.046875 C 98.425781 221.714844 113.421875 171.257812 113.421875 168.214844 C 113.421875 164.867188 138.335938 143.300781 138.335938 143.300781 L 163.484375 136.996094 L 222.722656 122.113281 C 222.722656 122.113281 226.449219 102.777344 226.449219 99.425781 C 226.449219 96.980469 247.257812 77.714844 258.339844 67.609375 C 262.371094 63.957031 265.109375 61.507812 265.109375 61.507812 L 307.863281 56.675781 C 307.863281 56.675781 342.066406 16.894531 342.808594 15.40625 C 343.550781 13.921875 398.957031 1.660156 398.957031 1.660156 L 478.144531 30.652344 L 478.171875 37.816406 L 478.695312 184.511719 L 479.148438 309.273438 L 479.585938 429.230469 L 480.023438 547.265625 L 480.445312 664.339844 L 480.867188 780.832031 Z M 481.289062 896.988281 " fill-opacity="1" fill-rule="nonzero"/></g></g></g><g mask="url(#6b047a49cc)"><g transform="matrix(1, 0, 0, 1, 1926, 622)"><g clip-path="url(#bf1f74f15e)"><path fill="#ef9700" d="M 480.867188 780.832031 C 439.351562 787.136719 396.847656 790.398438 353.601562 790.398438 C 282 790.398438 212.457031 781.457031 146.027344 764.625 C 140.027344 760.851562 135.367188 758 134.609375 757.867188 C 132.382812 757.488281 119.378906 710.265625 119.378906 710.265625 L 75.125 694.65625 L 45.753906 624.398438 L 48.261719 608.46875 L 53.195312 577.175781 L 11.550781 551.515625 L 1.140625 474.9375 L 6.484375 452.90625 L 16.761719 410.621094 L 40.179688 383.839844 C 40.179688 383.839844 27.175781 343.316406 27.175781 342.210938 C 27.175781 341.757812 28.558594 334.683594 30.175781 326.527344 C 32.519531 314.847656 35.34375 300.941406 35.34375 300.941406 L 74.761719 260.78125 L 95.207031 232.535156 C 95.207031 232.535156 95.367188 232.007812 95.65625 231.046875 C 98.425781 221.714844 113.421875 171.257812 113.421875 168.214844 C 113.421875 164.867188 138.335938 143.300781 138.335938 143.300781 L 163.484375 136.996094 L 222.722656 122.113281 C 222.722656 122.113281 226.449219 102.777344 226.449219 99.425781 C 226.449219 96.980469 247.257812 77.714844 258.339844 67.609375 C 262.371094 63.957031 265.109375 61.507812 265.109375 61.507812 L 307.863281 56.675781 C 307.863281 56.675781 342.066406 16.894531 342.808594 15.40625 C 343.550781 13.921875 398.957031 1.660156 398.957031 1.660156 L 478.144531 30.652344 L 478.171875 37.816406 L 478.695312 184.511719 L 479.148438 309.273438 L 479.585938 429.230469 L 480.023438 547.265625 L 480.445312 664.339844 Z M 480.867188 780.832031 " fill-opacity="1" fill-rule="nonzero"/></g></g></g><g mask="url(#667be3591b)"><g transform="matrix(1, 0, 0, 1, 1926, 622)"><g clip-path="url(#6faf81e6fa)"><path fill="#ef9700" d="M 480.445312 664.339844 C 439.234375 671.589844 396.847656 675.363281 353.597656 675.363281 C 244.664062 675.363281 141.21875 651.410156 48.261719 608.46875 L 53.195312 577.175781 L 11.550781 551.515625 L 1.140625 474.9375 L 6.484375 452.90625 L 16.761719 410.621094 L 40.179688 383.839844 C 40.179688 383.839844 27.175781 343.316406 27.175781 342.210938 C 27.175781 341.757812 28.558594 334.683594 30.175781 326.527344 C 32.519531 314.847656 35.34375 300.941406 35.34375 300.941406 L 74.761719 260.78125 L 95.207031 232.535156 C 95.207031 232.535156 95.367188 232.007812 95.65625 231.046875 C 98.425781 221.714844 113.421875 171.257812 113.421875 168.214844 C 113.421875 164.867188 138.335938 143.300781 138.335938 143.300781 L 163.484375 136.996094 L 222.722656 122.113281 C 222.722656 122.113281 226.449219 102.777344 226.449219 99.425781 C 226.449219 96.980469 247.257812 77.714844 258.339844 67.609375 C 262.371094 63.957031 265.109375 61.507812 265.109375 61.507812 L 307.863281 56.675781 C 307.863281 56.675781 342.066406 16.894531 342.808594 15.40625 C 343.550781 13.921875 398.957031 1.660156 398.957031 1.660156 L 478.144531 30.652344 L 478.171875 37.816406 L 478.695312 184.511719 L 479.148438 309.273438 L 479.585938 429.230469 L 480.023438 547.265625 Z M 480.445312 664.339844 " fill-opacity="1" fill-rule="nonzero"/></g></g></g><g mask="url(#5382af456e)"><g transform="matrix(1, 0, 0, 1, 1932, 622)"><g clip-path="url(#0847bdbbb5)"><g clip-path="url(#13c9906c25)"><path fill="#ef9700" d="M 474.023438 547.265625 C 433.207031 555.828125 390.921875 560.328125 347.601562 560.328125 C 218.949219 560.328125 99.371094 520.660156 0.484375 452.90625 L 10.761719 410.621094 L 34.179688 383.839844 C 34.179688 383.839844 21.175781 343.316406 21.175781 342.210938 C 21.175781 341.757812 22.558594 334.683594 24.175781 326.527344 C 26.519531 314.847656 29.34375 300.941406 29.34375 300.941406 L 68.761719 260.78125 L 89.207031 232.535156 C 89.207031 232.535156 89.367188 232.007812 89.65625 231.046875 C 92.425781 221.714844 107.421875 171.257812 107.421875 168.214844 C 107.421875 164.867188 132.335938 143.300781 132.335938 143.300781 L 157.484375 136.996094 L 216.722656 122.113281 C 216.722656 122.113281 220.449219 102.777344 220.449219 99.425781 C 220.449219 96.980469 241.257812 77.714844 252.339844 67.609375 C 256.371094 63.957031 259.109375 61.507812 259.109375 61.507812 L 301.863281 56.675781 C 301.863281 56.675781 336.066406 16.894531 336.808594 15.40625 C 337.550781 13.921875 392.957031 1.660156 392.957031 1.660156 L 472.144531 30.652344 L 472.171875 37.816406 L 472.695312 184.511719 L 473.148438 309.273438 L 473.585938 429.230469 Z M 474.023438 547.265625 " fill-opacity="1" fill-rule="nonzero"/></g></g></g></g><g mask="url(#0e689678b4)"><g transform="matrix(1, 0, 0, 1, 1955, 622)"><g clip-path="url(#78ebb19347)"><path fill="#ef9700" d="M 450.585938 429.230469 C 410.324219 439.714844 368.09375 445.292969 324.601562 445.292969 C 201.425781 445.292969 88.484375 400.574219 1.175781 326.527344 C 3.519531 314.847656 6.34375 300.941406 6.34375 300.941406 L 45.761719 260.78125 L 66.207031 232.535156 C 66.207031 232.535156 66.367188 232.007812 66.65625 231.046875 C 69.425781 221.714844 84.421875 171.257812 84.421875 168.214844 C 84.421875 164.867188 109.335938 143.300781 109.335938 143.300781 L 134.484375 136.996094 L 193.722656 122.113281 C 193.722656 122.113281 197.449219 102.777344 197.449219 99.425781 C 197.449219 96.980469 218.257812 77.714844 229.339844 67.609375 C 233.371094 63.957031 236.109375 61.507812 236.109375 61.507812 L 278.863281 56.675781 C 278.863281 56.675781 313.066406 16.894531 313.808594 15.40625 C 314.550781 13.921875 369.957031 1.660156 369.957031 1.660156 L 449.144531 30.652344 L 449.171875 37.816406 L 449.695312 184.511719 L 450.148438 309.273438 Z M 450.585938 429.230469 " fill-opacity="1" fill-rule="nonzero"/></g></g></g><g mask="url(#e710f231c0)"><g transform="matrix(1, 0, 0, 1, 2020, 622)"><g clip-path="url(#3524634c50)"><g clip-path="url(#48ac5ad297)"><path fill="#ef9700" d="M 385.148438 309.273438 C 345.773438 322.871094 303.53125 330.253906 259.601562 330.253906 C 160.507812 330.253906 70.039062 292.6875 1.65625 231.046875 C 4.425781 221.714844 19.421875 171.257812 19.421875 168.214844 C 19.421875 164.867188 44.335938 143.300781 44.335938 143.300781 L 69.484375 136.996094 L 128.722656 122.113281 C 128.722656 122.113281 132.449219 102.777344 132.449219 99.425781 C 132.449219 96.980469 153.257812 77.714844 164.339844 67.609375 C 168.371094 63.957031 171.109375 61.507812 171.109375 61.507812 L 213.863281 56.675781 C 213.863281 56.675781 248.066406 16.890625 248.808594 15.40625 C 249.550781 13.921875 304.957031 1.660156 304.957031 1.660156 L 384.144531 30.652344 L 384.171875 37.816406 L 384.695312 184.507812 Z M 385.148438 309.273438 " fill-opacity="1" fill-rule="nonzero"/></g></g></g></g><g mask="url(#22ebdd7d5e)"><g transform="matrix(1, 0, 0, 1, 2089, 622)"><g clip-path="url(#5861a00aea)"><g clip-path="url(#f5d8124394)"><path fill="#ef9700" d="M 315.699219 184.507812 C 278.257812 204.125 235.695312 215.21875 190.601562 215.21875 C 116.570312 215.21875 49.382812 185.324219 0.484375 136.996094 L 59.722656 122.113281 C 59.722656 122.113281 63.449219 102.777344 63.449219 99.425781 C 63.449219 96.980469 84.257812 77.714844 95.339844 67.609375 C 99.371094 63.957031 102.109375 61.507812 102.109375 61.507812 L 144.863281 56.675781 C 144.863281 56.675781 179.066406 16.890625 179.808594 15.40625 C 180.550781 13.921875 235.957031 1.660156 235.957031 1.660156 L 315.144531 30.652344 L 315.171875 37.816406 L 315.695312 184.507812 Z M 315.699219 184.507812 " fill-opacity="1" fill-rule="nonzero"/></g></g></g></g><g mask="url(#f5eebdcd6a)"><g transform="matrix(1, 0, 0, 1, 2183, 622)"><g clip-path="url(#635698ea59)"><path fill="#ef9700" d="M 221.171875 37.816406 C 192.792969 75.675781 147.566406 100.183594 96.597656 100.183594 C 60.707031 100.183594 27.664062 88.039062 1.339844 67.609375 C 5.371094 63.957031 8.109375 61.507812 8.109375 61.507812 L 50.863281 56.675781 C 50.863281 56.675781 85.066406 16.890625 85.808594 15.40625 C 86.550781 13.921875 141.957031 1.660156 141.957031 1.660156 L 221.144531 30.652344 Z M 221.171875 37.816406 " fill-opacity="1" fill-rule="nonzero"/></g></g></g><path fill="#001447" d="M 2533.507812 1900.308594 C 2555.335938 2007.847656 2275.742188 2007.800781 2297.582031 1900.308594 Z M 2533.507812 1900.308594 " fill-opacity="1" fill-rule="nonzero"/><path fill="#001447" d="M 2426.015625 1613.769531 C 2419.679688 1613.769531 2413.273438 1613.636719 2406.984375 1613.359375 C 2399.351562 1613.039062 2393.425781 1606.574219 2393.761719 1598.945312 C 2394.082031 1591.316406 2400.519531 1585.402344 2408.175781 1585.722656 C 2414.074219 1585.972656 2420.074219 1586.101562 2426.015625 1586.101562 C 2433.660156 1586.101562 2439.847656 1592.289062 2439.847656 1599.933594 C 2439.847656 1607.578125 2433.660156 1613.769531 2426.015625 1613.769531 Z M 2426.015625 1613.769531 " fill-opacity="1" fill-rule="nonzero"/><path fill="#ef9700" d="M 2879.371094 1084.515625 C 2879.199219 1093.660156 2878.71875 1102.808594 2877.886719 1111.90625 C 2875.660156 1136.96875 2871 1161.824219 2863.851562 1186.113281 C 2861.15625 1195.285156 2858.199219 1204.535156 2854.953125 1213.808594 C 2848.851562 1231.269531 2841.714844 1248.800781 2833.359375 1266.054688 C 2823.90625 1285.554688 2812.140625 1303.742188 2798.789062 1320.75 C 2782.203125 1341.921875 2763.1875 1361.273438 2743.265625 1379.125 C 2734.542969 1386.929688 2726.128906 1394.925781 2718.015625 1403.078125 C 2688.953125 1432.273438 2663.875 1463.480469 2643.390625 1495.558594 C 2641.203125 1498.964844 2639.078125 1502.386719 2636.996094 1505.808594 C 2628.054688 1520.574219 2620.410156 1538.0625 2615.050781 1554.53125 C 2606.445312 1581.019531 2603.636719 1595.144531 2592.308594 1603.242188 C 2591.796875 1603.632812 2591.289062 1604.027344 2590.777344 1604.390625 L 2404.230469 1604.390625 L 2404.230469 677.085938 C 2404.230469 665.394531 2407.828125 654.574219 2413.957031 645.632812 C 2424.53125 630.199219 2442.660156 620.398438 2462.828125 621.519531 C 2594.011719 628.902344 2697.457031 685.910156 2769.011719 773.398438 C 2806.507812 819.25 2835.25 873.476562 2854.617188 933.3125 C 2861.535156 954.644531 2867.257812 976.691406 2871.757812 999.332031 C 2877.347656 1027.464844 2879.910156 1056.035156 2879.371094 1084.515625 Z M 2879.371094 1084.515625 " fill-opacity="1" fill-rule="nonzero"/><g mask="url(#de01cf1c57)"><g transform="matrix(1, 0, 0, 1, 2403, 621)"><g clip-path="url(#7a0e6015a4)"><path fill="#ef9700" d="M 308.363281 94.996094 C 237.289062 53.699219 153.414062 22.117188 68.765625 1.117188 C 162.847656 6.898438 243.882812 41.570312 308.363281 94.996094 Z M 308.363281 94.996094 " fill-opacity="1" fill-rule="nonzero"/><g clip-path="url(#cfed2ef6d7)"><path fill="#ef9700" d="M 475.832031 475.296875 C 471.128906 555.195312 444.453125 635.734375 395.789062 699.75 C 346.601562 758.96875 278.597656 808.113281 240.390625 874.558594 C 228.476562 892.511719 218.664062 912.957031 212.050781 933.53125 C 202.964844 961.257812 200.882812 974.507812 187.777344 983.390625 L 1.230469 983.390625 L 1.230469 970.007812 L 45.410156 970.007812 C 58.488281 961.199219 60.613281 947.832031 69.683594 920.152344 C 76.296875 899.5625 86.953125 879.667969 98.023438 861.175781 C 234.460938 633.203125 354.710938 739.53125 475.542969 475.9375 C 475.644531 475.71875 475.730469 475.515625 475.832031 475.296875 Z M 475.832031 475.296875 " fill-opacity="1" fill-rule="nonzero"/></g></g></g></g><g mask="url(#37f823c7a2)"><g transform="matrix(1, 0, 0, 1, 2403, 735)"><g clip-path="url(#2e9e5f74a8)"><g clip-path="url(#9812e38089)"><path fill="#ef9700" d="M 476.371094 349.515625 C 475.730469 383.824219 470.589844 418 460.851562 451.113281 C 458.15625 460.285156 455.199219 469.535156 451.953125 478.808594 C 445.851562 496.269531 438.714844 513.800781 430.359375 531.054688 C 420.90625 550.554688 409.140625 568.742188 395.789062 585.75 C 379.203125 606.921875 360.1875 626.273438 340.265625 644.125 C 331.542969 651.929688 323.128906 659.925781 315.015625 668.078125 C 285.953125 697.273438 260.878906 728.480469 240.390625 760.558594 C 238.203125 763.964844 236.078125 767.386719 233.996094 770.808594 C 225.054688 785.574219 217.410156 803.0625 212.050781 819.53125 C 203.445312 846.019531 200.636719 860.144531 189.308594 868.242188 C 188.796875 868.632812 188.289062 869.027344 187.777344 869.390625 L 1.230469 869.390625 L 1.230469 8.007812 C 38.710938 2.835938 76.964844 0.171875 115.84375 0.171875 C 202.953125 0.171875 286.984375 13.570312 366.011719 38.398438 C 403.507812 84.25 432.25 138.476562 451.617188 198.3125 C 458.535156 219.644531 464.257812 241.691406 468.757812 264.332031 C 474.347656 292.464844 476.910156 321.035156 476.371094 349.515625 Z M 476.371094 349.515625 " fill-opacity="1" fill-rule="nonzero"/></g></g></g></g><g mask="url(#8fd4bf9b1b)"><g transform="matrix(1, 0, 0, 1, 2403, 849)"><g clip-path="url(#a351d0dcbb)"><g clip-path="url(#48d9774edc)"><path fill="#ef9700" d="M 476.371094 235.515625 C 475.730469 269.824219 470.589844 304 460.851562 337.113281 C 458.15625 346.285156 455.199219 355.53125 451.953125 364.808594 C 445.851562 382.269531 438.714844 399.800781 430.359375 417.054688 C 420.90625 436.554688 409.140625 454.742188 395.789062 471.75 C 379.203125 492.921875 360.1875 512.273438 340.265625 530.125 C 331.542969 537.929688 323.128906 545.925781 315.015625 554.078125 C 285.953125 583.273438 260.878906 614.480469 240.390625 646.558594 C 238.203125 649.964844 236.078125 653.386719 233.996094 656.808594 C 225.054688 671.574219 217.410156 689.0625 212.050781 705.53125 C 203.445312 732.019531 200.636719 746.144531 189.308594 754.242188 C 188.796875 754.632812 188.289062 755.027344 187.777344 755.390625 L 1.230469 755.390625 L 1.230469 10.308594 C 38.566406 4.324219 76.847656 1.207031 115.84375 1.207031 C 237.011719 1.207031 351.289062 31.265625 451.617188 84.3125 C 458.535156 105.644531 464.257812 127.691406 468.757812 150.332031 C 474.347656 178.464844 476.910156 207.035156 476.371094 235.515625 Z M 476.371094 235.515625 " fill-opacity="1" fill-rule="nonzero"/></g></g></g></g><g mask="url(#d537296cb7)"><g transform="matrix(1, 0, 0, 1, 2403, 965)"><g clip-path="url(#2e1193a38d)"><g clip-path="url(#bb6db14739)"><path fill="#ef9700" d="M 476.371094 119.515625 C 475.730469 153.824219 470.589844 188 460.851562 221.113281 C 458.15625 230.285156 455.199219 239.53125 451.953125 248.808594 C 445.851562 266.269531 438.714844 283.800781 430.359375 301.054688 C 420.90625 320.554688 409.140625 338.742188 395.789062 355.75 C 379.203125 376.921875 360.1875 396.273438 340.265625 414.125 C 331.542969 421.929688 323.128906 429.925781 315.015625 438.078125 C 285.953125 467.273438 260.878906 498.480469 240.390625 530.558594 C 238.203125 533.964844 236.078125 537.386719 233.996094 540.808594 C 225.054688 555.574219 217.410156 573.0625 212.050781 589.53125 C 203.445312 616.019531 200.636719 630.144531 189.308594 638.242188 C 188.796875 638.632812 188.289062 639.027344 187.777344 639.390625 L 1.230469 639.390625 L 1.230469 11.121094 C 38.347656 3.988281 76.675781 0.246094 115.84375 0.246094 C 250.800781 0.246094 375.578125 44.613281 476.371094 119.515625 Z M 476.371094 119.515625 " fill-opacity="1" fill-rule="nonzero"/></g></g></g></g><g mask="url(#ef754aae30)"><g transform="matrix(1, 0, 0, 1, 2403, 1080)"><g clip-path="url(#d74140b132)"><g clip-path="url(#8d8c5b862e)"><path fill="#ef9700" d="M 451.953125 133.808594 C 445.851562 151.269531 438.714844 168.800781 430.359375 186.054688 C 420.90625 205.554688 409.140625 223.742188 395.789062 240.75 C 379.203125 261.921875 360.1875 281.273438 340.265625 299.125 C 331.542969 306.929688 323.128906 314.925781 315.015625 323.078125 C 285.953125 352.273438 260.875 383.480469 240.390625 415.558594 C 238.203125 418.964844 236.078125 422.386719 233.996094 425.808594 C 225.054688 440.574219 217.410156 458.0625 212.050781 474.53125 C 203.445312 501.019531 200.636719 515.144531 189.308594 523.242188 C 188.796875 523.632812 188.289062 524.027344 187.777344 524.390625 L 1.230469 524.390625 L 1.230469 13.808594 C 38.011719 4.953125 76.398438 0.28125 115.84375 0.28125 C 245.792969 0.28125 364.089844 51.054688 451.953125 133.808594 Z M 451.953125 133.808594 " fill-opacity="1" fill-rule="nonzero"/></g></g></g></g><g mask="url(#781587b50b)"><g transform="matrix(1, 0, 0, 1, 2403, 1195)"><g clip-path="url(#c04cd4a2bf)"><g clip-path="url(#e21089cd7e)"><path fill="#ef9700" d="M 395.789062 125.75 C 379.203125 146.921875 360.1875 166.273438 340.265625 184.125 C 331.542969 191.929688 323.128906 199.925781 315.015625 208.078125 C 285.953125 237.273438 260.878906 268.480469 240.390625 300.558594 C 238.203125 303.964844 236.078125 307.386719 233.996094 310.808594 C 225.054688 325.574219 217.410156 343.0625 212.050781 359.53125 C 203.445312 386.019531 200.636719 400.144531 189.308594 408.242188 C 188.796875 408.632812 188.289062 409.027344 187.777344 409.390625 L 1.230469 409.390625 L 1.230469 18.199219 C 37.371094 6.59375 75.886719 0.316406 115.84375 0.316406 C 226.964844 0.316406 326.957031 48.804688 395.789062 125.75 Z M 395.789062 125.75 " fill-opacity="1" fill-rule="nonzero"/></g></g></g></g><g mask="url(#2d73107736)"><g transform="matrix(1, 0, 0, 1, 2403, 1310)"><g clip-path="url(#7a4dd8d541)"><g clip-path="url(#a01e3081a1)"><path fill="#ef9700" d="M 315.015625 93.078125 C 285.953125 122.273438 260.878906 153.480469 240.390625 185.558594 C 238.203125 188.964844 236.078125 192.386719 233.996094 195.808594 C 225.054688 210.574219 217.410156 228.0625 212.050781 244.53125 C 203.445312 271.019531 200.636719 285.144531 189.308594 293.242188 C 188.796875 293.632812 188.289062 294.027344 187.777344 294.390625 L 1.230469 294.390625 L 1.230469 26.941406 C 35.84375 9.917969 74.753906 0.351562 115.84375 0.351562 C 195.640625 0.351562 267.183594 36.40625 315.015625 93.078125 Z M 315.015625 93.078125 " fill-opacity="1" fill-rule="nonzero"/></g></g></g></g><g mask="url(#ea631584f6)"><g transform="matrix(1, 0, 0, 1, 2403, 1425)"><g clip-path="url(#33c0ca6983)"><g clip-path="url(#dc0236a9e4)"><path fill="#ef9700" d="M 240.390625 70.558594 C 238.203125 73.964844 236.078125 77.386719 233.996094 80.808594 C 225.054688 95.574219 217.410156 113.0625 212.050781 129.53125 C 203.445312 156.019531 200.636719 170.144531 189.308594 178.242188 C 188.796875 178.632812 188.289062 179.027344 187.777344 179.390625 L 1.230469 179.390625 L 1.230469 56.214844 C 27.878906 22.230469 69.304688 0.386719 115.84375 0.386719 C 168.628906 0.386719 214.863281 28.492188 240.390625 70.558594 Z M 240.390625 70.558594 " fill-opacity="1" fill-rule="nonzero"/></g></g></g></g><g mask="url(#efd5d0ac0e)"><g transform="matrix(1, 0, 0, 1, 2412, 619)"><g clip-path="url(#93757c301d)"><path fill="#ffffff" d="M 467.371094 465.515625 C 467.199219 474.660156 466.71875 483.808594 465.886719 492.90625 C 460.660156 492.617188 455.300781 492.09375 449.8125 491.320312 C 426.382812 35.136719 9.808594 68.046875 9.808594 68.046875 L 1.957031 26.632812 C 12.53125 11.199219 30.660156 1.398438 50.828125 2.519531 C 182.011719 9.902344 285.457031 66.910156 357.011719 154.398438 C 394.507812 200.25 423.25 254.476562 442.617188 314.3125 C 449.535156 335.644531 455.257812 357.691406 459.757812 380.332031 C 465.347656 408.464844 467.910156 437.035156 467.371094 465.515625 Z M 467.371094 465.515625 " fill-opacity="1" fill-rule="nonzero"/></g></g></g><path fill="#001447" d="M 2598.554688 1613.769531 L 2393.734375 1613.769531 L 2393.734375 663.867188 C 2393.734375 647.121094 2400.371094 631.511719 2412.429688 619.890625 C 2424.53125 608.242188 2440.460938 602.152344 2457.265625 602.808594 C 2569.910156 607.0625 2669.746094 647.644531 2745.960938 720.175781 C 2817.441406 788.191406 2866.777344 882.242188 2888.648438 992.183594 C 2901.492188 1056.761719 2898.652344 1123.628906 2880.449219 1185.558594 C 2871.816406 1214.945312 2861.273438 1242.566406 2849.144531 1267.628906 C 2829.71875 1307.746094 2799.195312 1346.128906 2755.832031 1384.964844 C 2713.96875 1422.460938 2679.09375 1464.019531 2652.167969 1508.503906 C 2644.21875 1521.652344 2636.894531 1537.933594 2631.550781 1554.34375 C 2630.226562 1558.40625 2629.046875 1562.191406 2627.9375 1565.6875 C 2621.402344 1586.523438 2617.078125 1600.328125 2603.914062 1609.851562 C 2603.332031 1610.304688 2602.746094 1610.738281 2602.164062 1611.164062 L 2598.554688 1613.738281 Z M 2421.398438 1586.101562 L 2589.292969 1586.101562 C 2593.777344 1581.703125 2596.488281 1573.492188 2601.539062 1557.429688 C 2602.660156 1553.847656 2603.882812 1549.976562 2605.238281 1545.808594 C 2611.222656 1527.433594 2619.480469 1509.101562 2628.507812 1494.191406 C 2656.84375 1447.359375 2693.480469 1403.691406 2737.382812 1364.359375 C 2778.011719 1327.972656 2806.417969 1292.382812 2824.257812 1255.570312 C 2835.730469 1231.863281 2845.71875 1205.683594 2853.933594 1177.753906 C 2870.898438 1120.089844 2873.519531 1057.78125 2861.550781 997.570312 C 2817.398438 775.597656 2665.871094 638.355469 2456.257812 630.445312 C 2447.027344 630.097656 2438.289062 633.433594 2431.664062 639.808594 C 2425.070312 646.160156 2421.441406 654.707031 2421.441406 663.851562 L 2421.441406 1586.085938 Z M 2421.398438 1586.101562 " fill-opacity="1" fill-rule="nonzero"/><path fill="#001447" d="M 2492.082031 1608.773438 C 2491.761719 1608.773438 2491.453125 1608.773438 2491.132812 1608.746094 C 2483.503906 1608.234375 2477.753906 1601.625 2478.261719 1594.007812 C 2479.9375 1569.253906 2481.144531 1535.339844 2482.425781 1499.445312 C 2484.261719 1447.828125 2486.152344 1394.445312 2489.734375 1358.738281 C 2501.125 1245.042969 2533.929688 1160.703125 2589.730469 1102.136719 C 2588.945312 1100.535156 2588.199219 1098.917969 2587.457031 1097.289062 C 2579.566406 1079.742188 2574.628906 1060.738281 2572.953125 1042.011719 C 2564.84375 1041.007812 2557.199219 1039.566406 2550.414062 1038.285156 C 2538.882812 1036.101562 2526.386719 1033.492188 2513.980469 1029.359375 C 2508.941406 1034.382812 2504.019531 1038.734375 2499.667969 1042.316406 L 2495.152344 1046.046875 C 2468.898438 1067.726562 2432.933594 1097.433594 2402.382812 1106.8125 C 2395.085938 1109.054688 2387.339844 1104.945312 2385.097656 1097.652344 C 2382.855469 1090.34375 2386.960938 1082.609375 2394.257812 1080.367188 C 2419.566406 1072.589844 2454.453125 1043.789062 2477.535156 1024.714844 L 2482.078125 1020.957031 C 2483.460938 1019.820312 2485.019531 1018.496094 2486.707031 1016.996094 C 2485.992188 1016.558594 2485.265625 1016.121094 2484.550781 1015.65625 C 2460.847656 1000.554688 2447.667969 973.863281 2449.269531 944.277344 C 2449.808594 934.34375 2451.453125 904.144531 2480.054688 894.214844 C 2498.136719 887.921875 2518.394531 892.234375 2530.433594 904.917969 C 2541.398438 916.464844 2548.433594 931.535156 2550.238281 947.347656 C 2552.757812 969.410156 2544.632812 989.546875 2533.304688 1006.234375 C 2540.847656 1008.214844 2548.390625 1009.746094 2555.523438 1011.097656 C 2561.480469 1012.21875 2567.277344 1013.269531 2572.867188 1014.070312 C 2573 1012 2573.113281 1009.933594 2573.246094 1007.851562 C 2574.121094 992.722656 2575.039062 977.066406 2581.066406 961.792969 C 2582.214844 958.867188 2583.65625 956.042969 2585.316406 953.390625 C 2600.054688 930.0625 2628.988281 925.214844 2649.285156 928.140625 C 2665.203125 930.441406 2677.316406 939.078125 2681.671875 951.265625 C 2686.332031 964.296875 2685.441406 979.296875 2679.238281 992.402344 C 2669.90625 1012.117188 2649.578125 1028.804688 2623.441406 1038.183594 C 2615.984375 1040.863281 2608.324219 1042.304688 2600.738281 1042.914062 C 2602.238281 1056.328125 2605.734375 1069.605469 2610.917969 1082.042969 C 2611.601562 1081.460938 2612.285156 1080.878906 2612.96875 1080.308594 C 2621.605469 1073.085938 2632.160156 1065.121094 2645.078125 1060.914062 C 2664.429688 1054.59375 2690.015625 1057.855469 2710.285156 1069.214844 C 2728.746094 1079.566406 2741.167969 1096.632812 2743.511719 1114.847656 C 2746.542969 1138.367188 2733.292969 1164.050781 2712.671875 1174.59375 C 2692.328125 1184.992188 2667.617188 1180.433594 2639.222656 1161.039062 C 2626.074219 1152.054688 2614.367188 1140.507812 2604.496094 1126.921875 C 2556.253906 1180.738281 2527.609375 1257.929688 2517.226562 1361.519531 C 2513.734375 1396.335938 2511.855469 1449.269531 2510.035156 1500.453125 C 2508.753906 1536.578125 2507.53125 1570.710938 2505.828125 1595.902344 C 2505.332031 1603.210938 2499.257812 1608.804688 2492.035156 1608.804688 Z M 2624.414062 1107.03125 C 2632.832031 1119.4375 2643.140625 1130.167969 2654.878906 1138.175781 C 2674.257812 1151.425781 2689.492188 1155.386719 2700.136719 1149.941406 C 2710.515625 1144.640625 2717.695312 1130.472656 2716.136719 1118.359375 C 2714.945312 1109.066406 2707.359375 1099.238281 2696.816406 1093.328125 C 2683.199219 1085.683594 2665.886719 1083.222656 2653.742188 1087.195312 C 2645.3125 1089.949219 2637.417969 1095.976562 2630.808594 1101.511719 C 2628.652344 1103.316406 2626.527344 1105.152344 2624.445312 1107.03125 Z M 2638.496094 955.035156 C 2627.183594 955.035156 2614.644531 958.824219 2608.761719 968.140625 C 2608.019531 969.320312 2607.363281 970.601562 2606.839844 971.929688 C 2602.441406 983.082031 2601.683594 995.882812 2600.898438 1009.425781 C 2600.78125 1011.332031 2600.679688 1013.253906 2600.550781 1015.148438 C 2605.253906 1014.652344 2609.765625 1013.675781 2614.121094 1012.117188 C 2633.125 1005.289062 2648.136719 993.480469 2654.265625 980.535156 C 2657.351562 974.011719 2657.863281 966.730469 2655.648438 960.554688 C 2654.980469 958.707031 2650.960938 956.304688 2645.371094 955.503906 C 2643.183594 955.183594 2640.855469 955.023438 2638.480469 955.023438 Z M 2496.945312 919.054688 C 2494.335938 919.054688 2491.671875 919.476562 2489.152344 920.335938 C 2482.515625 922.636719 2477.882812 927.851562 2476.921875 945.777344 C 2475.84375 965.550781 2484.058594 982.515625 2499.449219 992.328125 C 2501.675781 993.753906 2503.976562 995.066406 2506.351562 996.273438 C 2516.425781 983.226562 2524.699219 967.09375 2522.789062 950.492188 C 2521.65625 940.605469 2517.273438 931.183594 2510.414062 923.976562 C 2507.398438 920.804688 2502.289062 919.054688 2496.945312 919.054688 Z M 2496.945312 919.054688 " fill-opacity="1" fill-rule="nonzero"/><path fill="#001447" d="M 2265.402344 751.671875 C 2262.269531 751.671875 2259.125 750.609375 2256.535156 748.453125 C 2236.234375 731.472656 2225.300781 713.039062 2224.046875 693.6875 C 2222.882812 675.703125 2230.351562 657.445312 2245.65625 640.859375 C 2266.128906 618.667969 2294.292969 606.203125 2322.964844 606.550781 C 2348.839844 606.902344 2368.496094 617.152344 2384.28125 625.394531 C 2389.667969 628.203125 2394.765625 630.871094 2399.339844 632.703125 C 2406.429688 635.558594 2409.867188 643.609375 2407.011719 650.703125 C 2404.160156 657.792969 2396.105469 661.214844 2389.015625 658.375 C 2383.175781 656.03125 2377.496094 653.0625 2371.484375 649.929688 C 2356.9375 642.34375 2341.894531 634.480469 2322.601562 634.21875 C 2301.761719 633.914062 2281.15625 643.1875 2266 659.613281 C 2255.804688 670.652344 2250.984375 681.515625 2251.65625 691.910156 C 2252.398438 703.414062 2260.015625 715.3125 2274.285156 727.238281 C 2280.136719 732.144531 2280.925781 740.867188 2276.015625 746.71875 C 2273.28125 749.996094 2269.347656 751.6875 2265.402344 751.6875 Z M 2265.402344 751.671875 " fill-opacity="1" fill-rule="nonzero"/><path fill="#001447" d="M 2276.921875 834.148438 C 2260.917969 834.148438 2244.652344 829.765625 2230.03125 820.898438 C 2223.507812 816.9375 2221.425781 808.417969 2225.386719 801.894531 C 2229.347656 795.371094 2237.867188 793.289062 2244.390625 797.25 C 2269.84375 812.699219 2296.78125 806.84375 2312.171875 794.191406 C 2327.417969 781.652344 2331.917969 762.855469 2324.507812 742.597656 C 2321.886719 735.421875 2325.570312 727.484375 2332.734375 724.847656 C 2339.898438 722.226562 2347.847656 725.910156 2350.484375 733.078125 C 2362.015625 764.558594 2354.257812 795.398438 2329.75 815.550781 C 2314.75 827.886719 2296.023438 834.148438 2276.921875 834.148438 Z M 2276.921875 834.148438 " fill-opacity="1" fill-rule="nonzero"/><path fill="#001447" d="M 2139.097656 874.585938 C 2112.753906 874.585938 2084.636719 857.738281 2081.15625 828.046875 C 2080.265625 820.460938 2085.699219 813.585938 2093.285156 812.699219 C 2100.871094 811.796875 2107.746094 817.242188 2108.632812 824.828125 C 2110.335938 839.402344 2126.703125 847.632812 2140.859375 846.875 C 2149.566406 846.40625 2169.878906 841.820312 2170.242188 809.1875 C 2170.332031 801.601562 2176.503906 795.5 2184.078125 795.5 C 2184.132812 795.5 2184.179688 795.5 2184.238281 795.5 C 2191.882812 795.589844 2197.996094 801.851562 2197.925781 809.480469 C 2197.414062 855.320312 2167.664062 873.144531 2142.34375 874.484375 C 2141.28125 874.539062 2140.203125 874.570312 2139.125 874.570312 Z M 2139.097656 874.585938 " fill-opacity="1" fill-rule="nonzero"/><path fill="#001447" d="M 2364.535156 1036 C 2357.738281 1036 2351.808594 1030.988281 2350.847656 1024.074219 C 2345.839844 988.078125 2351.636719 966.378906 2361.070312 953.332031 C 2351.578125 948.484375 2343.800781 941.84375 2337.800781 933.457031 C 2324.273438 914.496094 2320.996094 888.503906 2328.03125 856.164062 C 2328.132812 855.667969 2328.234375 855.261719 2328.292969 854.957031 C 2329.792969 847.472656 2337.089844 842.609375 2344.574219 844.121094 C 2352.058594 845.621094 2356.921875 852.917969 2355.40625 860.402344 C 2355.320312 860.824219 2355.203125 861.378906 2355.058594 862.046875 C 2348.433594 892.40625 2354.257812 908.890625 2360.3125 917.367188 C 2367.257812 927.09375 2378.703125 932.773438 2395.304688 934.722656 C 2402.132812 935.523438 2407.332031 941.203125 2407.523438 948.078125 C 2407.710938 954.949219 2402.832031 960.90625 2396.078125 962.097656 C 2379.289062 965.027344 2373.289062 984.597656 2378.238281 1020.257812 C 2379.289062 1027.828125 2374.015625 1034.820312 2366.445312 1035.867188 C 2365.804688 1035.953125 2365.148438 1036 2364.523438 1036 Z M 2364.535156 1036 " fill-opacity="1" fill-rule="nonzero"/><path fill="#001447" d="M 2146.027344 765.535156 C 2138.671875 765.535156 2132.558594 759.738281 2132.222656 752.328125 C 2130.957031 724.164062 2141.132812 699.816406 2161.695312 681.9375 C 2186.261719 660.546875 2220.667969 653.335938 2241.957031 657.285156 C 2249.472656 658.683594 2254.4375 665.890625 2253.039062 673.402344 C 2251.640625 680.917969 2244.433594 685.882812 2236.917969 684.484375 C 2224.585938 682.199219 2198.726562 686.378906 2179.851562 702.804688 C 2165.699219 715.136719 2158.972656 731.371094 2159.859375 751.089844 C 2160.210938 758.71875 2154.296875 765.183594 2146.667969 765.535156 C 2146.449219 765.535156 2146.246094 765.535156 2146.027344 765.535156 Z M 2146.027344 765.535156 " fill-opacity="1" fill-rule="nonzero"/><path fill="#001447" d="M 2244.8125 1078.925781 C 2243.546875 1078.925781 2242.265625 1078.75 2240.984375 1078.386719 C 2233.644531 1076.277344 2229.40625 1068.601562 2231.519531 1061.261719 C 2244.476562 1016.269531 2241.476562 984.609375 2222.839844 969.730469 C 2208.292969 958.109375 2188.429688 960.148438 2184.398438 962.375 L 2183.464844 962.945312 L 2182.503906 963.335938 C 2139.632812 981.160156 2102.210938 975.191406 2088.101562 971.796875 L 2087.199219 971.578125 L 2086.324219 971.242188 C 2017.886719 944.640625 2003.570312 896.804688 2001.125 870.652344 C 1996.859375 825.003906 2021.191406 777.371094 2061.671875 752.152344 C 2100.246094 728.125 2146.085938 728.882812 2187.453125 754.234375 C 2193.964844 758.222656 2196.015625 766.742188 2192.027344 773.25 C 2188.035156 779.761719 2179.519531 781.8125 2173.007812 777.824219 C 2129.0625 750.886719 2093.5625 764.894531 2076.320312 775.640625 C 2045.015625 795.136719 2025.429688 833.15625 2028.691406 868.074219 C 2031.867188 902.003906 2055.570312 929.320312 2095.484375 945.105469 C 2107.484375 947.859375 2136.96875 952.050781 2171.117188 938.101562 C 2184.847656 930.644531 2215.777344 929.597656 2238.871094 947.144531 C 2259.199219 962.59375 2279.03125 996.246094 2258.105469 1068.90625 C 2256.359375 1074.964844 2250.824219 1078.910156 2244.828125 1078.910156 Z M 2244.8125 1078.925781 " fill-opacity="1" fill-rule="nonzero"/><g mask="url(#06bc839600)"><g transform="matrix(1, 0, 0, 1, 2047, 780)"><g clip-path="url(#151fb588de)"><g clip-path="url(#aa5626aacb)"><path fill="#ffffff" d="M 105.886719 12.152344 C 100.089844 11.03125 94.351562 10.027344 88.644531 9.457031 C 82.9375 8.949219 77.273438 8.773438 71.738281 9.195312 C 60.6875 9.96875 50.1875 13.199219 41.714844 19.070312 C 37.460938 21.964844 33.703125 25.492188 30.488281 29.421875 C 27.296875 33.398438 24.660156 37.824219 22.609375 42.511719 C 18.472656 51.890625 16.667969 62.390625 17.175781 72.683594 C 17.382812 77.839844 18.210938 82.949219 19.683594 87.84375 C 21.078125 92.75 23.132812 97.425781 25.726562 101.734375 C 30.980469 110.324219 38.714844 117.199219 48.179688 121.421875 C 52.910156 123.519531 58.023438 124.988281 63.367188 125.878906 C 68.695312 126.738281 74.242188 127.027344 79.835938 126.882812 C 91.078125 126.691406 102.476562 124.480469 113.96875 121.902344 C 108.871094 124.84375 103.613281 127.652344 98.050781 129.792969 C 95.3125 131.003906 92.445312 131.847656 89.589844 132.835938 C 86.695312 133.667969 83.78125 134.496094 80.796875 135.082031 C 74.824219 136.304688 68.667969 137.003906 62.375 136.871094 C 56.101562 136.726562 49.722656 135.765625 43.519531 133.769531 C 31.082031 129.882812 19.828125 121.378906 12.371094 110.414062 C 8.644531 104.9375 5.832031 98.894531 3.808594 92.675781 C 1.828125 86.429688 0.707031 79.964844 0.402344 73.46875 C 0.140625 66.976562 0.621094 60.46875 1.886719 54.105469 C 3.210938 47.753906 5.296875 41.539062 8.238281 35.699219 C 11.191406 29.886719 14.847656 24.371094 19.40625 19.621094 C 23.917969 14.847656 29.203125 10.8125 34.957031 7.738281 C 40.707031 4.667969 46.910156 2.570312 53.1875 1.507812 C 59.464844 0.414062 65.769531 0.328125 71.882812 0.96875 C 78 1.640625 83.941406 3.007812 89.621094 4.886719 C 95.3125 6.777344 100.703125 9.3125 105.871094 12.136719 Z M 105.886719 12.152344 " fill-opacity="1" fill-rule="nonzero"/></g></g></g></g><g mask="url(#daec8dfc3f)"><g transform="matrix(1, 0, 0, 1, 1983, 915)"><g clip-path="url(#6c0033e0d4)"><path fill="#ffffff" d="M 21.824219 1.476562 C 18.824219 11.714844 17.195312 21.09375 16.875 30.410156 C 16.523438 39.671875 17.425781 48.714844 19.597656 57.308594 C 21.796875 65.898438 25.246094 74.023438 30.371094 81.375 C 32.921875 85.074219 35.921875 88.554688 39.371094 91.875 C 42.820312 95.210938 46.753906 98.253906 51.109375 101.429688 C 40.40625 102.082031 29.28125 97.832031 20.6875 90.359375 C 12.039062 82.890625 6.054688 72.421875 3.316406 61.441406 C 0.535156 50.433594 0.8125 38.8125 3.898438 28.167969 C 5.472656 22.855469 7.742188 17.773438 10.730469 13.199219 C 13.742188 8.65625 17.382812 4.535156 21.808594 1.492188 Z M 21.824219 1.476562 " fill-opacity="1" fill-rule="nonzero"/></g></g></g><g mask="url(#c108be621e)"><g transform="matrix(1, 0, 0, 1, 1943, 1043)"><g clip-path="url(#55e69078a0)"><g clip-path="url(#c773237bfd)"><path fill="#ffffff" d="M 28.753906 2.257812 C 23.398438 12.671875 19.550781 22.980469 17.222656 33.566406 C 14.878906 44.125 13.988281 54.828125 14.457031 65.457031 C 14.953125 76.085938 16.800781 86.644531 20.105469 96.9375 C 23.382812 107.261719 28.230469 117.164062 34.316406 127.183594 C 24.285156 121.050781 16.234375 111.644531 10.625 100.972656 C 5.035156 90.253906 1.890625 78.199219 1.367188 66.054688 C 0.828125 53.910156 2.851562 41.632812 7.4375 30.449219 C 12.039062 19.324219 19.175781 9.132812 28.742188 2.257812 Z M 28.753906 2.257812 " fill-opacity="1" fill-rule="nonzero"/></g></g></g></g><g mask="url(#c1f26da03e)"><g transform="matrix(1, 0, 0, 1, 1993, 1231)"><g clip-path="url(#84dfb15b71)"><path fill="#ffffff" d="M 4.484375 1.78125 C 5.386719 9.644531 7.003906 16.796875 9.496094 23.550781 C 11.957031 30.292969 15.230469 36.597656 19.207031 42.421875 C 23.183594 48.234375 27.855469 53.578125 33.257812 58.308594 C 38.648438 63.085938 44.75 67.164062 51.679688 71.007812 C 43.730469 71.300781 35.691406 68.910156 28.628906 64.847656 C 21.550781 60.757812 15.40625 54.960938 10.789062 48.160156 C 6.160156 41.359375 3 33.554688 1.746094 25.472656 C 0.523438 17.421875 1.179688 9.019531 4.484375 1.769531 Z M 4.484375 1.78125 " fill-opacity="1" fill-rule="nonzero"/></g></g></g><g mask="url(#0aec347331)"><g transform="matrix(1, 0, 0, 1, 2269, 641)"><g clip-path="url(#1d98329ae0)"><g clip-path="url(#ecf9de52f3)"><path fill="#ffffff" d="M 96.28125 30.742188 C 92.144531 26.140625 87.777344 22.167969 82.957031 19.226562 C 78.164062 16.269531 73.011719 14.304688 67.738281 13.34375 C 57.195312 11.390625 46.230469 13.253906 36.5625 17.726562 C 26.921875 22.253906 18.492188 29.460938 13.496094 38.855469 C 10.976562 43.542969 9.363281 48.785156 8.78125 54.390625 C 8.152344 59.996094 8.648438 65.894531 9.695312 71.980469 C 6.085938 66.988281 3.566406 61.03125 2.519531 54.609375 C 1.46875 48.1875 2.082031 41.328125 4.28125 34.9375 C 6.449219 28.53125 10.207031 22.691406 14.851562 17.8125 C 15.988281 16.558594 17.296875 15.496094 18.519531 14.347656 C 19.800781 13.253906 21.15625 12.265625 22.480469 11.230469 C 23.863281 10.285156 25.308594 9.425781 26.71875 8.523438 C 28.191406 7.722656 29.675781 6.949219 31.175781 6.179688 C 37.261719 3.382812 43.828125 1.605469 50.542969 1.125 C 57.238281 0.644531 64.070312 1.445312 70.402344 3.703125 C 76.722656 5.945312 82.488281 9.660156 86.929688 14.40625 C 91.371094 19.152344 94.5625 24.789062 96.28125 30.714844 Z M 96.28125 30.742188 " fill-opacity="1" fill-rule="nonzero"/></g></g></g></g><path fill="#001447" d="M 2223.917969 967.75 C 2223.277344 967.75 2222.621094 967.707031 2221.964844 967.617188 C 2214.40625 966.539062 2209.136719 959.550781 2210.214844 951.980469 C 2217.347656 901.597656 2239.351562 874.21875 2258.003906 869.445312 C 2265.386719 867.550781 2272.828125 872.007812 2274.75 879.375 C 2276.671875 886.742188 2272.21875 894.300781 2264.863281 896.253906 C 2259.855469 897.59375 2243.414062 914.847656 2237.605469 955.851562 C 2236.628906 962.753906 2230.703125 967.75 2223.929688 967.75 Z M 2223.917969 967.75 " fill-opacity="1" fill-rule="nonzero"/><path fill="#001447" d="M 2251.917969 1045.726562 C 2250.492188 1045.726562 2249.050781 1045.507812 2247.621094 1045.042969 C 2240.355469 1042.667969 2236.394531 1034.847656 2238.769531 1027.597656 C 2250.460938 991.820312 2267.46875 986.328125 2288.480469 982.863281 C 2289.867188 982.628906 2291.261719 982.414062 2292.691406 982.148438 C 2300.21875 980.8125 2307.398438 985.804688 2308.75 993.332031 C 2310.089844 1000.863281 2305.097656 1008.039062 2297.570312 1009.394531 C 2296.011719 1009.671875 2294.480469 1009.917969 2292.980469 1010.167969 C 2278.476562 1012.554688 2272.464844 1013.542969 2265.066406 1036.1875 C 2263.160156 1042.027344 2257.742188 1045.726562 2251.917969 1045.726562 Z M 2251.917969 1045.726562 " fill-opacity="1" fill-rule="nonzero"/><path fill="#001447" d="M 2065.558594 1211.785156 C 2060.902344 1211.785156 2056.34375 1209.425781 2053.738281 1205.144531 C 2049.761719 1198.621094 2051.828125 1190.101562 2058.351562 1186.128906 C 2086.019531 1169.265625 2117.996094 1142.894531 2113.207031 1113.074219 C 2108.691406 1084.984375 2073.527344 1062.835938 2059.503906 1059.558594 C 2052.0625 1057.828125 2047.429688 1050.386719 2049.164062 1042.945312 C 2050.898438 1035.503906 2058.339844 1030.871094 2065.777344 1032.605469 C 2087.722656 1037.71875 2133.679688 1066.140625 2140.507812 1108.675781 C 2143.261719 1125.84375 2139.328125 1142.921875 2128.785156 1159.4375 C 2117.617188 1176.953125 2098.746094 1193.875 2072.726562 1209.746094 C 2070.480469 1211.113281 2067.992188 1211.769531 2065.53125 1211.769531 Z M 2065.558594 1211.785156 " fill-opacity="1" fill-rule="nonzero"/><path fill="#001447" d="M 2201.273438 1194.601562 C 2162.511719 1194.601562 2116.25 1170.183594 2110.175781 1166.878906 C 2103.464844 1163.238281 2100.972656 1154.835938 2104.628906 1148.121094 C 2108.285156 1141.410156 2116.671875 1138.917969 2123.382812 1142.574219 C 2146.769531 1155.257812 2192.113281 1172.601562 2214.160156 1165.171875 C 2232.070312 1159.144531 2245.90625 1140.433594 2259.300781 1122.347656 C 2260.625 1120.558594 2261.949219 1118.765625 2263.261719 1117.003906 C 2281.726562 1092.277344 2309.816406 1076.902344 2340.320312 1074.777344 C 2357.664062 1073.566406 2376.535156 1074.949219 2396.382812 1078.882812 C 2403.882812 1080.367188 2408.761719 1087.632812 2407.273438 1095.132812 C 2405.789062 1102.632812 2398.507812 1107.511719 2391.023438 1106.023438 C 2373.566406 1102.574219 2357.152344 1101.351562 2342.242188 1102.382812 C 2319.789062 1103.941406 2299.082031 1115.300781 2285.4375 1133.5625 C 2284.144531 1135.292969 2282.847656 1137.039062 2281.550781 1138.800781 C 2266.363281 1159.320312 2249.152344 1182.589844 2223.011719 1191.398438 C 2216.316406 1193.65625 2208.949219 1194.617188 2201.289062 1194.617188 Z M 2201.273438 1194.601562 " fill-opacity="1" fill-rule="nonzero"/><path fill="#001447" d="M 2358.320312 1279.480469 C 2351.316406 1279.480469 2343.859375 1278.082031 2336.113281 1275.214844 C 2328.949219 1272.5625 2325.277344 1264.613281 2327.929688 1257.449219 C 2330.578125 1250.285156 2338.53125 1246.617188 2345.695312 1249.265625 C 2365.890625 1256.722656 2372.09375 1245.742188 2374.132812 1242.128906 C 2382.550781 1227.25 2379.113281 1201.605469 2367.433594 1192.257812 C 2352.902344 1180.609375 2328.992188 1199.539062 2319.394531 1208.21875 C 2313.730469 1213.34375 2304.980469 1212.890625 2299.855469 1207.226562 C 2294.730469 1201.5625 2295.179688 1192.8125 2300.84375 1187.6875 C 2345.433594 1147.394531 2374.351562 1162.363281 2384.71875 1170.664062 C 2406.910156 1188.429688 2413.332031 1228.980469 2398.203125 1255.746094 C 2389.40625 1271.28125 2375.226562 1279.480469 2358.289062 1279.480469 Z M 2358.320312 1279.480469 " fill-opacity="1" fill-rule="nonzero"/><path fill="#001447" d="M 2372.777344 1369.0625 C 2343.351562 1369.0625 2330.535156 1356.320312 2321.375 1342.007812 C 2318.011719 1336.738281 2312.652344 1333.15625 2306.289062 1331.929688 C 2277.792969 1326.382812 2254.410156 1306.785156 2236.789062 1273.671875 L 2236.175781 1272.519531 C 2232.523438 1265.808594 2234.996094 1257.40625 2241.710938 1253.75 C 2248.421875 1250.097656 2256.824219 1252.570312 2260.480469 1259.285156 C 2260.683594 1259.664062 2260.933594 1260.128906 2261.222656 1260.683594 C 2274.734375 1286.078125 2291.6875 1300.914062 2311.589844 1304.789062 C 2325.25 1307.4375 2337.308594 1315.578125 2344.6875 1327.113281 C 2350.164062 1335.671875 2356.367188 1345.355469 2390.105469 1339.851562 C 2397.648438 1338.613281 2404.753906 1343.726562 2405.992188 1351.269531 C 2407.230469 1358.8125 2402.121094 1365.917969 2394.578125 1367.15625 C 2386.4375 1368.480469 2379.230469 1369.09375 2372.808594 1369.09375 Z M 2372.777344 1369.0625 " fill-opacity="1" fill-rule="nonzero"/><path fill="#001447" d="M 2297.785156 1428.503906 C 2278.726562 1428.503906 2261.121094 1423.1875 2245.757812 1412.660156 C 2226.230469 1399.277344 2215.515625 1381.238281 2210.941406 1373.519531 C 2210.417969 1372.628906 2210.011719 1371.933594 2209.691406 1371.453125 C 2205.480469 1365.074219 2207.242188 1356.496094 2213.621094 1352.289062 C 2220 1348.082031 2228.578125 1349.84375 2232.785156 1356.21875 C 2233.28125 1356.960938 2233.921875 1358.039062 2234.722656 1359.394531 C 2242.789062 1372.964844 2267.324219 1414.292969 2325.015625 1396.394531 C 2332.3125 1394.136719 2340.058594 1398.214844 2342.332031 1405.511719 C 2344.585938 1412.804688 2340.511719 1420.550781 2333.214844 1422.824219 C 2320.996094 1426.609375 2309.128906 1428.488281 2297.773438 1428.488281 Z M 2297.785156 1428.503906 " fill-opacity="1" fill-rule="nonzero"/><path fill="#001447" d="M 2302.359375 1604.652344 C 2296.824219 1604.652344 2291.597656 1601.304688 2289.457031 1595.828125 C 2281.59375 1575.601562 2281.550781 1520.835938 2309.523438 1488.292969 C 2323.515625 1472 2350.089844 1454.800781 2397.210938 1465.34375 C 2404.667969 1467.019531 2409.355469 1474.402344 2407.695312 1481.855469 C 2406.023438 1489.3125 2398.625 1494 2391.183594 1492.339844 C 2364.101562 1486.285156 2343.699219 1490.988281 2330.519531 1506.320312 C 2309.667969 1530.59375 2311.007812 1574.875 2315.261719 1585.796875 C 2318.027344 1592.917969 2314.503906 1600.941406 2307.382812 1603.707031 C 2305.738281 1604.347656 2304.035156 1604.652344 2302.375 1604.652344 Z M 2302.359375 1604.652344 " fill-opacity="1" fill-rule="nonzero"/><path fill="#001447" d="M 2254.859375 1609.589844 C 2252.164062 1609.589844 2249.441406 1608.804688 2247.054688 1607.171875 C 2245.21875 1605.921875 2242.992188 1604.507812 2240.632812 1603.007812 C 2228.210938 1595.128906 2209.441406 1583.21875 2195.871094 1561.625 C 2180.015625 1536.390625 2175.003906 1503.609375 2181.003906 1464.207031 C 2182.152344 1456.652344 2189.203125 1451.464844 2196.757812 1452.617188 C 2204.316406 1453.765625 2209.5 1460.816406 2208.351562 1468.371094 C 2197.050781 1542.59375 2232.1875 1564.902344 2255.441406 1579.652344 C 2258.003906 1581.28125 2260.4375 1582.8125 2262.648438 1584.339844 C 2268.957031 1588.648438 2270.570312 1597.269531 2266.261719 1603.574219 C 2263.582031 1607.492188 2259.242188 1609.605469 2254.832031 1609.605469 Z M 2254.859375 1609.589844 " fill-opacity="1" fill-rule="nonzero"/><path fill="#001447" d="M 2194.996094 1480.125 C 2185.226562 1480.125 2172.835938 1479.003906 2160.589844 1474.152344 C 2143.902344 1467.542969 2122.335938 1451.730469 2114.269531 1413.972656 C 2112.667969 1406.5 2117.429688 1399.148438 2124.914062 1397.546875 C 2132.382812 1395.945312 2139.738281 1400.707031 2141.339844 1408.175781 C 2150.351562 1450.359375 2179.257812 1453.972656 2206.328125 1451.933594 C 2208.320312 1451.785156 2210.039062 1451.65625 2211.539062 1451.625 C 2211.613281 1451.625 2211.683594 1451.625 2211.773438 1451.625 C 2219.316406 1451.625 2225.472656 1457.667969 2225.605469 1465.242188 C 2225.722656 1472.886719 2219.636719 1479.175781 2212.003906 1479.292969 C 2211.320312 1479.292969 2209.910156 1479.410156 2208.421875 1479.527344 C 2205.089844 1479.773438 2200.457031 1480.125 2195.027344 1480.125 Z M 2194.996094 1480.125 " fill-opacity="1" fill-rule="nonzero"/><path fill="#001447" d="M 2118.113281 1424.890625 C 2110.773438 1424.890625 2103.230469 1423.8125 2095.820312 1421.558594 C 2067.597656 1412.964844 2038.695312 1385.210938 2042.203125 1333.109375 L 2042.246094 1332.367188 L 2042.378906 1331.640625 C 2047.648438 1301.703125 2061.351562 1279.480469 2083.105469 1265.589844 C 2120.761719 1241.535156 2170.039062 1250.941406 2189.464844 1256.09375 C 2196.847656 1258.0625 2201.246094 1265.632812 2199.277344 1273.015625 C 2197.3125 1280.398438 2189.742188 1284.796875 2182.359375 1282.832031 C 2169.953125 1279.539062 2127.199219 1270.234375 2097.988281 1288.902344 C 2083.195312 1298.351562 2073.699219 1314.09375 2069.738281 1335.703125 C 2067.105469 1379.109375 2092.6875 1391.691406 2103.855469 1395.085938 C 2121.636719 1400.5 2138.878906 1394.96875 2143.828125 1386.390625 C 2149.273438 1376.957031 2141.660156 1361.15625 2123.457031 1344.121094 C 2117.878906 1338.90625 2117.589844 1330.140625 2122.800781 1324.5625 C 2128.027344 1318.984375 2136.78125 1318.695312 2142.359375 1323.90625 C 2183.085938 1362.015625 2173.707031 1389.972656 2167.78125 1400.226562 C 2158.78125 1415.804688 2139.359375 1424.878906 2118.097656 1424.878906 Z M 2118.113281 1424.890625 " fill-opacity="1" fill-rule="nonzero"/><path fill="#001447" d="M 2053.371094 1344.949219 C 2028.179688 1344.949219 1992.039062 1327.984375 1971.203125 1297.421875 C 1951.472656 1268.472656 1949.941406 1233.699219 1966.863281 1199.496094 L 1967.632812 1197.921875 L 1968.785156 1196.597656 C 2005.042969 1154.558594 2001.695312 1136.648438 2000.644531 1133.488281 C 2000.019531 1131.59375 1999.042969 1130.605469 1997.457031 1130.242188 C 1990 1128.550781 1985.339844 1121.140625 1987.03125 1113.683594 C 1988.71875 1106.230469 1996.132812 1101.570312 2003.585938 1103.257812 C 2014.742188 1105.792969 2023.246094 1113.65625 2026.929688 1124.839844 C 2031.953125 1140.113281 2029.710938 1167.808594 1990.917969 1213.285156 C 1979.023438 1238.273438 1980.085938 1261.335938 1994.050781 1281.839844 C 2010.882812 1306.535156 2040.996094 1318.417969 2055.382812 1317.195312 C 2062.984375 1316.539062 2069.695312 1322.191406 2070.351562 1329.804688 C 2071.007812 1337.421875 2065.355469 1344.121094 2057.742188 1344.773438 C 2056.328125 1344.890625 2054.859375 1344.949219 2053.359375 1344.949219 Z M 2053.371094 1344.949219 " fill-opacity="1" fill-rule="nonzero"/><path fill="#001447" d="M 2014.695312 1230.671875 C 1978.976562 1230.671875 1937.753906 1201.039062 1917.890625 1159.859375 C 1892.527344 1107.277344 1906.753906 1049.117188 1956.902344 1000.28125 C 1962.378906 994.949219 1971.128906 995.066406 1976.457031 1000.542969 C 1981.789062 1006.015625 1981.671875 1014.769531 1976.195312 1020.097656 C 1919.945312 1074.863281 1931.128906 1123.628906 1942.792969 1147.832031 C 1960.355469 1184.234375 1996.335938 1205.609375 2018.921875 1202.726562 C 2026.507812 1201.765625 2033.421875 1207.125 2034.382812 1214.695312 C 2035.34375 1222.285156 2029.988281 1229.199219 2022.414062 1230.160156 C 2019.867188 1230.480469 2017.289062 1230.640625 2014.683594 1230.640625 Z M 2014.695312 1230.671875 " fill-opacity="1" fill-rule="nonzero"/><path fill="#001447" d="M 2022.96875 1059.921875 C 2021.757812 1059.921875 2020.523438 1059.761719 2019.285156 1059.429688 C 1958.476562 1042.695312 1939.660156 995.5625 1942.328125 957.03125 C 1945.488281 911.394531 1976.429688 873.230469 2014.320312 868.265625 C 2021.890625 867.273438 2028.835938 872.605469 2029.828125 880.191406 C 2030.816406 887.761719 2025.488281 894.707031 2017.902344 895.699219 C 1993.234375 898.929688 1972.148438 926.714844 1969.921875 958.9375 C 1968.726562 976.105469 1971.871094 1017.679688 2026.609375 1032.75 C 2033.976562 1034.777344 2038.300781 1042.390625 2036.277344 1049.757812 C 2034.589844 1055.902344 2029.027344 1059.921875 2022.953125 1059.921875 Z M 2022.96875 1059.921875 " fill-opacity="1" fill-rule="nonzero"/><path fill="#001447" d="M 2449.125 1608.773438 C 2449.035156 1608.773438 2448.964844 1608.773438 2448.875 1608.773438 C 2441.230469 1608.644531 2435.160156 1602.339844 2435.289062 1594.691406 L 2443.097656 1150.234375 C 2443.226562 1142.675781 2449.402344 1136.648438 2456.929688 1136.648438 C 2457.015625 1136.648438 2457.089844 1136.648438 2457.175781 1136.648438 C 2464.820312 1136.777344 2470.894531 1143.082031 2470.761719 1150.726562 L 2462.957031 1595.1875 C 2462.828125 1602.746094 2456.652344 1608.773438 2449.125 1608.773438 Z M 2449.125 1608.773438 " fill-opacity="1" fill-rule="nonzero"/><path fill="#001447" d="M 2122.875 1095.25 C 2118.929688 1095.25 2114.996094 1093.558594 2112.257812 1090.296875 C 2107.351562 1084.445312 2108.125 1075.722656 2113.992188 1070.816406 C 2130.375 1057.097656 2141.0625 1047.035156 2140.21875 1032.707031 C 2139.765625 1025.078125 2145.574219 1018.539062 2153.207031 1018.089844 C 2160.808594 1017.636719 2167.375 1023.445312 2167.824219 1031.078125 C 2169.558594 1060.375 2148.589844 1077.9375 2131.742188 1092.03125 C 2129.152344 1094.199219 2126.003906 1095.265625 2122.875 1095.265625 Z M 2122.875 1095.25 " fill-opacity="1" fill-rule="nonzero"/><path fill="#001447" d="M 2481.464844 1138.757812 C 2481.464844 1139.582031 2481.425781 1140.402344 2481.34375 1141.21875 C 2481.265625 1142.035156 2481.144531 1142.847656 2480.984375 1143.652344 C 2480.824219 1144.460938 2480.625 1145.253906 2480.386719 1146.042969 C 2480.144531 1146.828125 2479.871094 1147.601562 2479.554688 1148.359375 C 2479.242188 1149.121094 2478.890625 1149.859375 2478.503906 1150.585938 C 2478.117188 1151.3125 2477.695312 1152.015625 2477.238281 1152.699219 C 2476.78125 1153.382812 2476.292969 1154.039062 2475.769531 1154.675781 C 2475.25 1155.3125 2474.699219 1155.917969 2474.117188 1156.5 C 2473.535156 1157.082031 2472.925781 1157.632812 2472.292969 1158.152344 C 2471.65625 1158.675781 2470.996094 1159.164062 2470.316406 1159.621094 C 2469.632812 1160.078125 2468.925781 1160.5 2468.203125 1160.886719 C 2467.476562 1161.273438 2466.734375 1161.625 2465.976562 1161.9375 C 2465.21875 1162.253906 2464.445312 1162.53125 2463.660156 1162.769531 C 2462.871094 1163.007812 2462.078125 1163.207031 2461.269531 1163.367188 C 2460.464844 1163.527344 2459.652344 1163.648438 2458.835938 1163.726562 C 2458.015625 1163.808594 2457.199219 1163.847656 2456.375 1163.847656 C 2455.554688 1163.847656 2454.734375 1163.808594 2453.917969 1163.726562 C 2453.097656 1163.648438 2452.285156 1163.527344 2451.480469 1163.367188 C 2450.675781 1163.207031 2449.878906 1163.007812 2449.09375 1162.769531 C 2448.304688 1162.53125 2447.535156 1162.253906 2446.773438 1161.9375 C 2446.015625 1161.625 2445.273438 1161.273438 2444.550781 1160.886719 C 2443.824219 1160.5 2443.121094 1160.078125 2442.4375 1159.621094 C 2441.753906 1159.164062 2441.09375 1158.675781 2440.460938 1158.152344 C 2439.824219 1157.632812 2439.214844 1157.082031 2438.636719 1156.5 C 2438.054688 1155.917969 2437.503906 1155.3125 2436.980469 1154.675781 C 2436.460938 1154.039062 2435.972656 1153.382812 2435.515625 1152.699219 C 2435.058594 1152.015625 2434.636719 1151.3125 2434.25 1150.585938 C 2433.863281 1149.859375 2433.511719 1149.121094 2433.195312 1148.359375 C 2432.882812 1147.601562 2432.605469 1146.828125 2432.367188 1146.042969 C 2432.128906 1145.253906 2431.929688 1144.460938 2431.769531 1143.652344 C 2431.609375 1142.847656 2431.488281 1142.035156 2431.40625 1141.21875 C 2431.328125 1140.402344 2431.285156 1139.582031 2431.285156 1138.757812 C 2431.285156 1137.9375 2431.328125 1137.117188 2431.40625 1136.300781 C 2431.488281 1135.480469 2431.609375 1134.671875 2431.769531 1133.863281 C 2431.929688 1133.058594 2432.128906 1132.261719 2432.367188 1131.476562 C 2432.605469 1130.691406 2432.882812 1129.917969 2433.195312 1129.15625 C 2433.511719 1128.398438 2433.863281 1127.65625 2434.25 1126.933594 C 2434.636719 1126.207031 2435.058594 1125.503906 2435.515625 1124.820312 C 2435.972656 1124.136719 2436.460938 1123.476562 2436.980469 1122.84375 C 2437.503906 1122.207031 2438.054688 1121.597656 2438.636719 1121.019531 C 2439.214844 1120.4375 2439.824219 1119.886719 2440.460938 1119.363281 C 2441.09375 1118.84375 2441.753906 1118.355469 2442.4375 1117.898438 C 2443.121094 1117.441406 2443.824219 1117.019531 2444.550781 1116.632812 C 2445.273438 1116.246094 2446.015625 1115.894531 2446.773438 1115.578125 C 2447.535156 1115.265625 2448.304688 1114.988281 2449.09375 1114.75 C 2449.878906 1114.511719 2450.675781 1114.3125 2451.480469 1114.152344 C 2452.289062 1113.992188 2453.097656 1113.871094 2453.917969 1113.789062 C 2454.734375 1113.710938 2455.554688 1113.667969 2456.375 1113.667969 C 2457.199219 1113.667969 2458.015625 1113.710938 2458.835938 1113.789062 C 2459.652344 1113.871094 2460.464844 1113.992188 2461.269531 1114.152344 C 2462.078125 1114.3125 2462.871094 1114.511719 2463.660156 1114.75 C 2464.445312 1114.988281 2465.21875 1115.265625 2465.976562 1115.578125 C 2466.734375 1115.894531 2467.476562 1116.246094 2468.203125 1116.632812 C 2468.925781 1117.019531 2469.632812 1117.441406 2470.316406 1117.898438 C 2470.996094 1118.355469 2471.65625 1118.84375 2472.292969 1119.363281 C 2472.925781 1119.886719 2473.535156 1120.4375 2474.117188 1121.019531 C 2474.699219 1121.597656 2475.25 1122.207031 2475.769531 1122.84375 C 2476.292969 1123.476562 2476.78125 1124.136719 2477.238281 1124.820312 C 2477.695312 1125.503906 2478.117188 1126.207031 2478.503906 1126.933594 C 2478.890625 1127.65625 2479.242188 1128.398438 2479.554688 1129.15625 C 2479.871094 1129.917969 2480.144531 1130.691406 2480.386719 1131.476562 C 2480.625 1132.261719 2480.824219 1133.058594 2480.984375 1133.863281 C 2481.144531 1134.671875 2481.265625 1135.480469 2481.34375 1136.300781 C 2481.425781 1137.117188 2481.464844 1137.9375 2481.464844 1138.757812 Z M 2481.464844 1138.757812 " fill-opacity="1" fill-rule="nonzero"/><path fill="#ef9700" d="M 2606.273438 1624.398438 C 2606.535156 1625.753906 2607.394531 1628.664062 2607.144531 1630.09375 C 2602.703125 1655.125 2602.472656 1676.761719 2569.125 1681.945312 C 2460.816406 1698.765625 2366.707031 1702.375 2258.339844 1682.425781 C 2224.980469 1676.28125 2225.519531 1655.152344 2222.285156 1630.035156 C 2222.097656 1628.621094 2222.664062 1625.519531 2223.230469 1624.28125 C 2233.0625 1602.425781 2238.796875 1580.074219 2271.066406 1586.335938 C 2375.867188 1606.648438 2454.816406 1602.265625 2559.851562 1584.09375 C 2565.441406 1583.132812 2568.164062 1584.179688 2571.136719 1583.945312 C 2573.378906 1583.773438 2571.558594 1583.917969 2571.570312 1583.917969 C 2593.820312 1586.320312 2602.457031 1604.507812 2606.273438 1624.414062 Z M 2606.273438 1624.398438 " fill-opacity="1" fill-rule="nonzero"/><g mask="url(#97946e4370)"><g transform="matrix(1, 0, 0, 1, 2221, 1605)"><g clip-path="url(#dfefeeb201)"><g clip-path="url(#2b1038ddef)"><path fill="#001447" d="M 385.316406 19.382812 C 385.316406 20.824219 386.421875 23.664062 386.175781 25.078125 C 381.660156 50.136719 381.472656 71.777344 348.125 76.945312 C 239.800781 93.734375 145.75 97.433594 37.324219 77.398438 C 3.9375 71.222656 4.648438 50.238281 1.226562 24.976562 C 1.039062 23.546875 2.1875 20.78125 2.335938 19.355469 C 2.988281 13.0625 5.8125 7.398438 7.765625 1.851562 C 15.324219 23.066406 15.308594 39.144531 43.644531 44.691406 C 149.8125 65.472656 241.332031 61.292969 347.441406 43.074219 C 372.007812 38.851562 373.449219 27.335938 383.582031 9.640625 C 383.742188 12.800781 385.328125 15.960938 385.328125 19.371094 Z M 385.316406 19.382812 " fill-opacity="1" fill-rule="nonzero"/></g></g></g></g><g mask="url(#d82b695be9)"><g transform="matrix(1, 0, 0, 1, 2227, 1579)"><g clip-path="url(#4cac8e5f85)"><g clip-path="url(#9712f9a89d)"><path fill="#ef9700" d="M 385.765625 47.84375 C 385.445312 46.460938 385.707031 43.359375 385.226562 42.109375 C 376.535156 20.207031 370.039062 -3.351562 338.367188 1.960938 C 235.476562 19.230469 153.875 26.484375 50.371094 5.980469 C 18.511719 -0.339844 12.265625 21.78125 2.609375 43.5625 C 2.070312 44.800781 2.160156 47.933594 1.882812 49.300781 C 0.644531 55.34375 1.53125 61.503906 1.925781 67.183594 C 14.8125 49.765625 20.242188 33.445312 48.070312 39.007812 C 152.316406 59.828125 240.777344 53.085938 344.457031 34.507812 C 368.46875 30.195312 373.273438 44.292969 386.261719 57.761719 C 385.796875 54.746094 386.507812 51.121094 385.765625 47.84375 Z M 385.765625 47.84375 " fill-opacity="1" fill-rule="nonzero"/></g></g></g></g><g mask="url(#c8a976c972)"><g transform="matrix(1, 0, 0, 1, 2229, 1586)"><g clip-path="url(#66d6aab463)"><g clip-path="url(#6e7492167c)"><path fill="#ffffff" d="M 5.96875 67.492188 C 5.96875 67.492188 1.789062 5.316406 230.988281 20.925781 C 230.988281 20.925781 58.941406 1.964844 57.835938 1.964844 C 56.730469 1.964844 15.449219 2.796875 15.449219 2.796875 C 15.449219 2.796875 1.222656 33.753906 0.667969 40.160156 C 0.113281 46.566406 2.34375 67.769531 2.621094 69.152344 C 2.894531 70.535156 5.96875 67.476562 5.96875 67.476562 Z M 5.96875 67.492188 " fill-opacity="1" fill-rule="nonzero"/></g></g></g></g><path fill="#001447" d="M 2404.742188 1709.773438 C 2353.921875 1709.773438 2305.621094 1705.1875 2255.851562 1696.011719 C 2211.539062 1690.855469 2201.433594 1637.824219 2213.402344 1612.238281 C 2221.996094 1592.289062 2233.746094 1564.957031 2273.714844 1572.71875 C 2384.804688 1596.179688 2467.210938 1583.261719 2570.871094 1570.070312 C 2600.898438 1569.574219 2625.027344 1605.441406 2619.640625 1639.191406 C 2615.96875 1661.546875 2611.410156 1689.371094 2571.25 1695.605469 C 2510.414062 1705.054688 2456.289062 1709.773438 2404.742188 1709.773438 Z M 2236.148438 1629.292969 C 2238.855469 1651.089844 2238.273438 1665.914062 2260.84375 1668.8125 C 2357.867188 1686.679688 2449.429688 1686.519531 2567 1668.273438 C 2601.582031 1667.777344 2598.789062 1599.425781 2571.105469 1597.78125 C 2465.535156 1611.964844 2382.460938 1623.539062 2268.445312 1599.890625 C 2249.457031 1594.257812 2244.449219 1609.824219 2236.148438 1629.292969 Z M 2593.398438 1630.265625 Z M 2235.914062 1629.816406 L 2235.855469 1629.960938 C 2235.855469 1629.960938 2235.902344 1629.875 2235.914062 1629.816406 Z M 2236.089844 1629.699219 Z M 2593.53125 1627.675781 Z M 2593.53125 1627.675781 " fill-opacity="1" fill-rule="nonzero"/><path fill="#ef9700" d="M 2606.273438 1729.242188 C 2606.535156 1730.59375 2607.394531 1733.507812 2607.144531 1734.933594 C 2602.703125 1759.964844 2602.472656 1781.605469 2569.125 1786.789062 C 2460.816406 1803.605469 2366.707031 1807.21875 2258.339844 1787.269531 C 2224.980469 1781.125 2225.519531 1759.996094 2222.285156 1734.875 C 2222.097656 1733.464844 2222.664062 1730.363281 2223.230469 1729.125 C 2233.0625 1707.269531 2238.796875 1684.917969 2271.066406 1691.175781 C 2375.867188 1711.492188 2454.816406 1707.109375 2559.851562 1688.933594 C 2565.441406 1687.972656 2568.164062 1689.023438 2571.136719 1688.789062 C 2573.378906 1688.613281 2571.558594 1688.761719 2571.570312 1688.761719 C 2593.820312 1691.164062 2602.457031 1709.351562 2606.273438 1729.257812 Z M 2606.273438 1729.242188 " fill-opacity="1" fill-rule="nonzero"/><g mask="url(#c12307843c)"><g transform="matrix(1, 0, 0, 1, 2221, 1710)"><g clip-path="url(#155c773362)"><g clip-path="url(#ed70979af6)"><path fill="#001447" d="M 385.316406 19.226562 C 385.316406 20.667969 386.421875 23.507812 386.175781 24.921875 C 381.660156 49.980469 381.472656 71.617188 348.125 76.789062 C 239.800781 93.578125 145.75 97.277344 37.324219 77.238281 C 3.9375 71.066406 4.648438 50.082031 1.226562 24.816406 C 1.039062 23.390625 2.1875 20.625 2.335938 19.199219 C 2.988281 12.90625 5.8125 7.242188 7.765625 1.695312 C 15.324219 22.910156 15.308594 38.988281 43.644531 44.535156 C 149.8125 65.3125 241.332031 61.132812 347.441406 42.917969 C 372.007812 38.695312 373.449219 27.175781 383.582031 9.484375 C 383.742188 12.644531 385.328125 15.804688 385.328125 19.210938 Z M 385.316406 19.226562 " fill-opacity="1" fill-rule="nonzero"/></g></g></g></g><g mask="url(#028f7018f3)"><g transform="matrix(1, 0, 0, 1, 2227, 1684)"><g clip-path="url(#c9ae7a27e7)"><g clip-path="url(#1a60b64e0b)"><path fill="#ef9700" d="M 385.765625 47.6875 C 385.445312 46.304688 385.707031 43.203125 385.226562 41.949219 C 376.535156 20.050781 370.039062 -3.511719 338.367188 1.804688 C 235.476562 19.074219 153.875 26.324219 50.371094 5.824219 C 18.511719 -0.496094 12.265625 21.621094 2.609375 43.40625 C 2.070312 44.644531 2.160156 47.773438 1.882812 49.144531 C 0.644531 55.1875 1.53125 61.347656 1.925781 67.023438 C 14.8125 49.609375 20.242188 33.285156 48.070312 38.847656 C 152.316406 59.671875 240.777344 52.929688 344.457031 34.347656 C 368.46875 30.039062 373.273438 44.132812 386.261719 57.605469 C 385.796875 54.589844 386.507812 50.964844 385.765625 47.6875 Z M 385.765625 47.6875 " fill-opacity="1" fill-rule="nonzero"/></g></g></g></g><g mask="url(#76a4973334)"><g transform="matrix(1, 0, 0, 1, 2229, 1700)"><g clip-path="url(#cc4a5cb78d)"><g clip-path="url(#270c894034)"><path fill="#ffffff" d="M 6.347656 66.140625 C 6.347656 66.140625 2.167969 3.960938 231.367188 19.574219 C 231.367188 19.574219 59.320312 0.613281 58.214844 0.613281 C 57.109375 0.613281 15.828125 1.445312 15.828125 1.445312 C 15.828125 1.445312 1.601562 32.402344 1.046875 38.808594 C 0.492188 45.214844 2.722656 66.417969 3 67.800781 C 3.273438 69.183594 6.347656 66.125 6.347656 66.125 Z M 6.347656 66.140625 " fill-opacity="1" fill-rule="nonzero"/></g></g></g></g><path fill="#001447" d="M 2404.742188 1814.617188 C 2353.921875 1814.617188 2305.621094 1810.027344 2255.851562 1800.855469 C 2211.539062 1795.699219 2201.433594 1742.667969 2213.402344 1717.082031 C 2221.996094 1697.132812 2233.746094 1669.800781 2273.714844 1677.5625 C 2384.804688 1701.019531 2467.210938 1688.105469 2570.871094 1674.914062 C 2600.898438 1674.417969 2625.027344 1710.28125 2619.640625 1744.035156 C 2615.96875 1766.386719 2611.410156 1794.214844 2571.25 1800.445312 C 2510.414062 1809.898438 2456.289062 1814.613281 2404.742188 1814.613281 Z M 2236.148438 1734.132812 C 2238.855469 1755.933594 2238.273438 1770.757812 2260.84375 1773.652344 C 2357.867188 1791.519531 2449.429688 1791.359375 2567 1773.113281 C 2601.582031 1772.621094 2598.789062 1704.269531 2571.105469 1702.621094 C 2465.535156 1716.804688 2382.460938 1728.382812 2268.445312 1704.734375 C 2249.457031 1699.097656 2244.449219 1714.664062 2236.148438 1734.132812 Z M 2593.398438 1735.109375 Z M 2235.914062 1734.65625 L 2235.855469 1734.804688 C 2235.855469 1734.804688 2235.902344 1734.714844 2235.914062 1734.65625 Z M 2236.089844 1734.542969 Z M 2593.53125 1732.519531 Z M 2593.53125 1732.519531 " fill-opacity="1" fill-rule="nonzero"/><path fill="#ef9700" d="M 2606.273438 1834.082031 C 2606.535156 1835.4375 2607.394531 1838.351562 2607.144531 1839.777344 C 2602.703125 1864.808594 2602.472656 1886.445312 2569.125 1891.632812 C 2460.816406 1908.449219 2366.707031 1912.0625 2258.339844 1892.113281 C 2224.980469 1885.964844 2225.519531 1864.835938 2222.285156 1839.71875 C 2222.097656 1838.308594 2222.664062 1835.207031 2223.230469 1833.96875 C 2233.0625 1812.109375 2238.796875 1789.757812 2271.066406 1796.019531 C 2375.867188 1816.332031 2454.816406 1811.949219 2559.851562 1793.777344 C 2565.441406 1792.816406 2568.164062 1793.863281 2571.136719 1793.632812 C 2573.378906 1793.457031 2571.558594 1793.601562 2571.570312 1793.601562 C 2593.820312 1796.003906 2602.457031 1814.191406 2606.273438 1834.097656 Z M 2606.273438 1834.082031 " fill-opacity="1" fill-rule="nonzero"/><g mask="url(#381a029a62)"><g transform="matrix(1, 0, 0, 1, 2221, 1815)"><g clip-path="url(#afc00e58ed)"><g clip-path="url(#369b5e04e6)"><path fill="#001447" d="M 385.316406 19.070312 C 385.316406 20.511719 386.421875 23.351562 386.175781 24.761719 C 381.660156 49.824219 381.472656 71.460938 348.125 76.628906 C 239.800781 93.421875 145.75 97.117188 37.324219 77.082031 C 3.9375 70.910156 4.648438 49.925781 1.226562 24.660156 C 1.039062 23.234375 2.1875 20.46875 2.335938 19.039062 C 2.988281 12.75 5.8125 7.085938 7.765625 1.539062 C 15.324219 22.753906 15.308594 38.828125 43.644531 44.378906 C 149.8125 65.15625 241.332031 60.976562 347.441406 42.761719 C 372.007812 38.539062 373.449219 27.019531 383.582031 9.328125 C 383.742188 12.488281 385.328125 15.648438 385.328125 19.054688 Z M 385.316406 19.070312 " fill-opacity="1" fill-rule="nonzero"/></g></g></g></g><g mask="url(#422ed85cfc)"><g transform="matrix(1, 0, 0, 1, 2227, 1789)"><g clip-path="url(#723d992d3c)"><g clip-path="url(#22e3603936)"><path fill="#ef9700" d="M 385.765625 47.53125 C 385.445312 46.148438 385.707031 43.046875 385.226562 41.792969 C 376.535156 19.894531 370.039062 -3.667969 338.367188 1.648438 C 235.476562 18.917969 153.875 26.167969 50.371094 5.664062 C 18.511719 -0.652344 12.265625 21.464844 2.609375 43.25 C 2.070312 44.488281 2.160156 47.617188 1.882812 48.988281 C 0.644531 55.03125 1.53125 61.1875 1.925781 66.867188 C 14.8125 49.453125 20.242188 33.128906 48.070312 38.691406 C 152.316406 59.515625 240.777344 52.773438 344.457031 34.191406 C 368.46875 29.882812 373.273438 43.976562 386.261719 57.445312 C 385.796875 54.433594 386.507812 50.804688 385.765625 47.53125 Z M 385.765625 47.53125 " fill-opacity="1" fill-rule="nonzero"/></g></g></g></g><g mask="url(#68f2f78f6b)"><g transform="matrix(1, 0, 0, 1, 2233, 1799)"><g clip-path="url(#901aa2d9f1)"><path fill="#ffffff" d="M 6.746094 66.886719 C 6.746094 66.886719 2.566406 4.707031 231.761719 20.320312 C 231.761719 20.320312 59.71875 1.359375 58.613281 1.359375 C 57.507812 1.359375 16.222656 2.191406 16.222656 2.191406 C 16.222656 2.191406 1.996094 33.148438 1.445312 39.554688 C 0.890625 45.960938 3.117188 67.164062 3.394531 68.546875 C 3.671875 69.929688 6.746094 66.871094 6.746094 66.871094 Z M 6.746094 66.886719 " fill-opacity="1" fill-rule="nonzero"/></g></g></g><path fill="#001447" d="M 2404.742188 1919.457031 C 2353.921875 1919.457031 2305.621094 1914.871094 2255.851562 1905.699219 C 2211.539062 1900.542969 2201.433594 1847.507812 2213.402344 1821.925781 C 2221.996094 1801.976562 2233.746094 1774.644531 2273.714844 1782.40625 C 2384.804688 1805.863281 2467.210938 1792.949219 2570.871094 1779.753906 C 2600.898438 1779.261719 2625.027344 1815.125 2619.640625 1848.878906 C 2615.96875 1871.230469 2611.410156 1899.058594 2571.25 1905.289062 C 2510.414062 1914.738281 2456.289062 1919.457031 2404.742188 1919.457031 Z M 2236.148438 1838.976562 C 2238.855469 1860.773438 2238.273438 1875.597656 2260.84375 1878.496094 C 2357.867188 1896.363281 2449.429688 1896.203125 2567 1877.957031 C 2601.582031 1877.460938 2598.789062 1809.109375 2571.105469 1807.464844 C 2465.535156 1821.648438 2382.460938 1833.226562 2268.445312 1809.578125 C 2249.457031 1803.941406 2244.449219 1819.507812 2236.148438 1838.976562 Z M 2593.398438 1839.953125 Z M 2235.914062 1839.5 L 2235.855469 1839.644531 C 2235.855469 1839.644531 2235.902344 1839.558594 2235.914062 1839.5 Z M 2236.089844 1839.382812 Z M 2593.53125 1837.359375 Z M 2593.53125 1837.359375 " fill-opacity="1" fill-rule="nonzero"/><g mask="url(#7aab5c0fd3)"><g transform="matrix(1, 0, 0, 1, 2383, 1592)"><g clip-path="url(#54f7a9befc)"><g clip-path="url(#36ad3edaab)"><path fill="#001447" d="M 137.503906 4.0625 C 137.503906 4.0625 169.292969 78.792969 1.996094 93.847656 C -2.460938 115.601562 169.292969 106.125 169.292969 106.125 C 169.292969 106.125 214.460938 55.929688 215.582031 55.929688 C 216.703125 55.929688 215.582031 0.902344 215.582031 0.902344 Z M 137.503906 4.0625 " fill-opacity="1" fill-rule="nonzero"/></g></g></g></g><g mask="url(#0858b971c8)"><g transform="matrix(1, 0, 0, 1, 2383, 1699)"><g clip-path="url(#81df9eede0)"><g clip-path="url(#ae8bdf3194)"><path fill="#001447" d="M 136.382812 3.390625 C 136.382812 3.390625 168.171875 78.121094 0.875 93.175781 C -3.582031 114.929688 168.171875 105.453125 168.171875 105.453125 C 168.171875 105.453125 213.339844 55.257812 214.460938 55.257812 C 215.582031 55.257812 214.460938 0.230469 214.460938 0.230469 Z M 136.382812 3.390625 " fill-opacity="1" fill-rule="nonzero"/></g></g></g></g><path fill="#ef9700" d="M 1880.644531 1520.515625 C 1876.289062 1520.515625 1871.996094 1518.464844 1869.316406 1514.632812 C 1864.933594 1508.386719 1866.433594 1499.753906 1872.695312 1495.371094 L 1985.066406 1416.503906 C 1991.324219 1412.105469 1999.945312 1413.621094 2004.328125 1419.882812 C 2008.710938 1426.128906 2007.210938 1434.765625 2000.953125 1439.148438 L 1888.582031 1518.011719 C 1886.164062 1519.714844 1883.394531 1520.53125 1880.644531 1520.53125 Z M 1880.644531 1520.515625 " fill-opacity="1" fill-rule="nonzero"/><path fill="#ef9700" d="M 1784.726562 1370.054688 C 1779.078125 1370.054688 1773.777344 1366.574219 1771.738281 1360.96875 C 1769.117188 1353.789062 1772.816406 1345.851562 1779.980469 1343.230469 L 1908.9375 1296.125 C 1916.117188 1293.503906 1924.050781 1297.203125 1926.671875 1304.367188 C 1929.292969 1311.546875 1925.59375 1319.480469 1918.429688 1322.101562 L 1789.476562 1369.207031 C 1787.902344 1369.777344 1786.300781 1370.054688 1784.726562 1370.054688 Z M 1784.726562 1370.054688 " fill-opacity="1" fill-rule="nonzero"/><path fill="#ef9700" d="M 1731.011719 1199.886719 C 1723.917969 1199.886719 1717.890625 1194.472656 1717.25 1187.277344 C 1716.582031 1179.664062 1722.199219 1172.949219 1729.800781 1172.28125 L 1866.546875 1160.164062 C 1874.148438 1159.480469 1880.878906 1165.117188 1881.546875 1172.714844 C 1882.21875 1180.332031 1876.597656 1187.042969 1868.996094 1187.714844 L 1732.25 1199.828125 C 1731.824219 1199.875 1731.417969 1199.886719 1731.011719 1199.886719 Z M 1731.011719 1199.886719 " fill-opacity="1" fill-rule="nonzero"/><g clip-path="url(#e3dfee4819)"><path fill="#ef9700" d="M 1858.453125 1045.316406 C 1857.667969 1045.316406 1856.851562 1045.246094 1856.050781 1045.113281 L 1720.816406 1021.421875 C 1713.289062 1020.097656 1708.265625 1012.933594 1709.574219 1005.40625 C 1710.886719 997.875 1718.066406 992.839844 1725.59375 994.164062 L 1860.824219 1017.855469 C 1868.355469 1019.179688 1873.378906 1026.34375 1872.066406 1033.871094 C 1870.886719 1040.585938 1865.050781 1045.316406 1858.453125 1045.316406 Z M 1858.453125 1045.316406 " fill-opacity="1" fill-rule="nonzero"/></g><path fill="#ef9700" d="M 1886.265625 905.292969 C 1884.3125 905.292969 1882.332031 904.871094 1880.441406 904 L 1755.953125 846.117188 C 1749.023438 842.898438 1746.023438 834.671875 1749.242188 827.742188 C 1752.460938 820.808594 1760.6875 817.808594 1767.617188 821.027344 L 1892.105469 878.910156 C 1899.035156 882.128906 1902.035156 890.355469 1898.816406 897.285156 C 1896.472656 902.324219 1891.476562 905.292969 1886.265625 905.292969 Z M 1886.265625 905.292969 " fill-opacity="1" fill-rule="nonzero"/><path fill="#ef9700" d="M 1949.402344 777.253906 C 1946.273438 777.253906 1943.128906 776.191406 1940.535156 774.023438 L 1835.269531 685.898438 C 1829.417969 680.988281 1828.644531 672.265625 1833.539062 666.414062 C 1838.445312 660.558594 1847.167969 659.789062 1853.019531 664.679688 L 1958.285156 752.808594 C 1964.140625 757.714844 1964.910156 766.4375 1960.019531 772.289062 C 1957.28125 775.550781 1953.363281 777.242188 1949.402344 777.242188 Z M 1949.402344 777.253906 " fill-opacity="1" fill-rule="nonzero"/><path fill="#ef9700" d="M 2043.542969 669.921875 C 2039.191406 669.921875 2034.894531 667.871094 2032.214844 664.039062 L 1953.351562 551.667969 C 1948.964844 545.421875 1950.464844 536.789062 1956.726562 532.40625 C 1962.976562 528.023438 1971.609375 529.519531 1975.992188 535.78125 L 2054.859375 648.152344 C 2059.242188 654.402344 2057.742188 663.035156 2051.480469 667.417969 C 2049.0625 669.121094 2046.296875 669.9375 2043.542969 669.9375 Z M 2043.542969 669.921875 " fill-opacity="1" fill-rule="nonzero"/><path fill="#ef9700" d="M 2162.21875 590.59375 C 2156.570312 590.59375 2151.269531 587.113281 2149.230469 581.503906 L 2102.125 452.550781 C 2099.503906 445.371094 2103.203125 437.433594 2110.367188 434.8125 C 2117.542969 432.191406 2125.480469 435.890625 2128.101562 443.054688 L 2175.207031 572.011719 C 2177.828125 579.191406 2174.128906 587.125 2166.964844 589.746094 C 2165.394531 590.316406 2163.792969 590.59375 2162.21875 590.59375 Z M 2162.21875 590.59375 " fill-opacity="1" fill-rule="nonzero"/><path fill="#ef9700" d="M 2328.394531 538.578125 C 2321.945312 538.578125 2316.179688 534.050781 2314.851562 527.496094 L 2287.550781 392.949219 C 2286.035156 385.464844 2290.871094 378.15625 2298.355469 376.640625 C 2305.855469 375.125 2313.148438 379.960938 2314.664062 387.445312 L 2341.964844 521.992188 C 2343.480469 529.476562 2338.644531 536.789062 2331.160156 538.300781 C 2330.230469 538.492188 2329.3125 538.578125 2328.394531 538.578125 Z M 2328.394531 538.578125 " fill-opacity="1" fill-rule="nonzero"/><path fill="#ef9700" d="M 2930.511719 1520.515625 C 2927.761719 1520.515625 2924.992188 1519.703125 2922.574219 1517.996094 L 2810.207031 1439.132812 C 2803.957031 1434.75 2802.445312 1426.113281 2806.828125 1419.867188 C 2811.210938 1413.621094 2819.84375 1412.105469 2826.089844 1416.488281 L 2938.460938 1495.355469 C 2944.710938 1499.738281 2946.222656 1508.371094 2941.839844 1514.621094 C 2939.148438 1518.449219 2934.867188 1520.503906 2930.511719 1520.503906 Z M 2930.511719 1520.515625 " fill-opacity="1" fill-rule="nonzero"/><path fill="#ef9700" d="M 3026.429688 1370.054688 C 3024.855469 1370.054688 3023.253906 1369.777344 3021.679688 1369.207031 L 2892.726562 1322.101562 C 2885.546875 1319.480469 2881.863281 1311.546875 2884.484375 1304.367188 C 2887.105469 1297.1875 2895.039062 1293.503906 2902.21875 1296.125 L 3031.175781 1343.230469 C 3038.355469 1345.851562 3042.039062 1353.789062 3039.417969 1360.96875 C 3037.363281 1366.574219 3032.0625 1370.054688 3026.429688 1370.054688 Z M 3026.429688 1370.054688 " fill-opacity="1" fill-rule="nonzero"/><path fill="#ef9700" d="M 3080.144531 1199.886719 C 3079.738281 1199.886719 3079.332031 1199.875 3078.90625 1199.828125 L 2942.160156 1187.714844 C 2934.546875 1187.042969 2928.925781 1180.316406 2929.609375 1172.714844 C 2930.277344 1165.101562 2936.992188 1159.480469 2944.609375 1160.164062 L 3081.355469 1172.28125 C 3088.96875 1172.949219 3094.589844 1179.675781 3093.90625 1187.277344 C 3093.265625 1194.472656 3087.238281 1199.886719 3080.144531 1199.886719 Z M 3080.144531 1199.886719 " fill-opacity="1" fill-rule="nonzero"/><g clip-path="url(#c9038b12e3)"><path fill="#ef9700" d="M 2952.703125 1045.316406 C 2946.105469 1045.316406 2940.269531 1040.585938 2939.089844 1033.871094 C 2937.765625 1026.34375 2942.800781 1019.179688 2950.332031 1017.855469 L 3085.5625 994.164062 C 3093.078125 992.851562 3100.253906 997.875 3101.582031 1005.40625 C 3102.90625 1012.933594 3097.867188 1020.097656 3090.339844 1021.421875 L 2955.105469 1045.113281 C 2954.304688 1045.257812 2953.488281 1045.316406 2952.703125 1045.316406 Z M 2952.703125 1045.316406 " fill-opacity="1" fill-rule="nonzero"/></g><path fill="#ef9700" d="M 2924.890625 905.292969 C 2919.679688 905.292969 2914.683594 902.324219 2912.339844 897.285156 C 2909.121094 890.355469 2912.121094 882.128906 2919.050781 878.910156 L 3043.539062 821.027344 C 3050.46875 817.808594 3058.695312 820.808594 3061.914062 827.742188 C 3065.132812 834.671875 3062.132812 842.898438 3055.203125 846.117188 L 2930.714844 904 C 2928.824219 904.871094 2926.84375 905.292969 2924.890625 905.292969 Z M 2924.890625 905.292969 " fill-opacity="1" fill-rule="nonzero"/><path fill="#ef9700" d="M 2861.753906 777.253906 C 2857.808594 777.253906 2853.875 775.566406 2851.136719 772.304688 C 2846.230469 766.449219 2847.003906 757.730469 2852.871094 752.820312 L 2958.136719 664.695312 C 2963.988281 659.789062 2972.710938 660.558594 2977.617188 666.429688 C 2982.527344 672.28125 2981.753906 681.003906 2975.886719 685.910156 L 2870.621094 774.039062 C 2868.027344 776.207031 2864.882812 777.269531 2861.753906 777.269531 Z M 2861.753906 777.253906 " fill-opacity="1" fill-rule="nonzero"/><path fill="#ef9700" d="M 2767.613281 669.921875 C 2764.859375 669.921875 2762.09375 669.109375 2759.675781 667.402344 C 2753.429688 663.019531 2751.914062 654.386719 2756.296875 648.140625 L 2835.164062 535.769531 C 2839.546875 529.519531 2848.179688 528.007812 2854.429688 532.390625 C 2860.675781 536.773438 2862.191406 545.40625 2857.804688 551.65625 L 2778.941406 664.027344 C 2776.246094 667.855469 2771.964844 669.910156 2767.613281 669.910156 Z M 2767.613281 669.921875 " fill-opacity="1" fill-rule="nonzero"/><path fill="#ef9700" d="M 2648.9375 590.59375 C 2647.363281 590.59375 2645.761719 590.316406 2644.191406 589.746094 C 2637.011719 587.125 2633.328125 579.191406 2635.949219 572.011719 L 2683.054688 443.054688 C 2685.675781 435.875 2693.613281 432.179688 2700.789062 434.8125 C 2707.96875 437.433594 2711.652344 445.371094 2709.03125 452.550781 L 2661.925781 581.503906 C 2659.871094 587.113281 2654.570312 590.59375 2648.9375 590.59375 Z M 2648.9375 590.59375 " fill-opacity="1" fill-rule="nonzero"/><path fill="#ef9700" d="M 2480.183594 539.496094 C 2479.660156 539.496094 2479.121094 539.46875 2478.582031 539.410156 C 2470.996094 538.535156 2465.550781 531.675781 2466.421875 524.074219 L 2482.148438 387.691406 C 2483.023438 380.105469 2489.894531 374.660156 2497.484375 375.535156 C 2505.070312 376.40625 2510.515625 383.265625 2509.640625 390.867188 L 2493.914062 527.25 C 2493.101562 534.296875 2487.117188 539.496094 2480.183594 539.496094 Z M 2480.183594 539.496094 " fill-opacity="1" fill-rule="nonzero"/></svg>